<?xml version="1.0" encoding="UTF-8" standalone="no"?>
<!DOCTYPE svg PUBLIC "-//W3C//DTD SVG 1.1//EN"
 "http://www.w3.org/Graphics/SVG/1.1/DTD/svg11.dtd">
<!-- Generated by graphviz version 2.40.1 (0)
 -->
<!-- Title: snakemake_dag Pages: 1 -->
<svg width="795pt" height="481pt"
 viewBox="0.00 0.00 795.33 481.00" xmlns="http://www.w3.org/2000/svg" xmlns:xlink="http://www.w3.org/1999/xlink">
<g id="graph0" class="graph" transform="scale(1 1) rotate(0) translate(4 477)">
<title>snakemake_dag</title>
<polygon fill="#ffffff" stroke="transparent" points="-4,4 -4,-477 791.3317,-477 791.3317,4 -4,4"/>
<!-- 0 -->
<g id="node1" class="node">
<title>0</title>
<path fill="none" stroke="#d85656" stroke-width="2" stroke-dasharray="5,2" d="M485,-36C485,-36 455,-36 455,-36 449,-36 443,-30 443,-24 443,-24 443,-12 443,-12 443,-6 449,0 455,0 455,0 485,0 485,0 491,0 497,-6 497,-12 497,-12 497,-24 497,-24 497,-30 491,-36 485,-36"/>
<text text-anchor="middle" x="470" y="-15.5" font-family="sans" font-size="10.00" fill="#000000">all</text>
</g>
<!-- 1 -->
<g id="node2" class="node">
<title>1</title>
<path fill="none" stroke="#56d86b" stroke-width="2" stroke-dasharray="5,2" d="M274,-108C274,-108 12,-108 12,-108 6,-108 0,-102 0,-96 0,-96 0,-84 0,-84 0,-78 6,-72 12,-72 12,-72 274,-72 274,-72 280,-72 286,-78 286,-84 286,-84 286,-96 286,-96 286,-102 280,-108 274,-108"/>
<text text-anchor="middle" x="143" y="-93" font-family="sans" font-size="10.00" fill="#000000">pycoqc</text>
<text text-anchor="middle" x="143" y="-82" font-family="sans" font-size="10.00" fill="#000000">prefix: 20210107_2213_MN35107_FAO13840_83e8e224</text>
</g>
<!-- 1&#45;&gt;0 -->
<g id="edge1" class="edge">
<title>1&#45;&gt;0</title>
<path fill="none" stroke="#c0c0c0" stroke-width="2" d="M225.0938,-71.9243C291.8203,-57.2322 382.8332,-37.1927 433.0077,-26.1451"/>
<polygon fill="#c0c0c0" stroke="#c0c0c0" stroke-width="2" points="433.7615,-29.563 442.775,-23.9945 432.2563,-22.7268 433.7615,-29.563"/>
</g>
<!-- 2 -->
<g id="node3" class="node">
<title>2</title>
<path fill="none" stroke="#8fd856" stroke-width="2" stroke-dasharray="5,2" d="M621.5,-401C621.5,-401 532.5,-401 532.5,-401 526.5,-401 520.5,-395 520.5,-389 520.5,-389 520.5,-372 520.5,-372 520.5,-366 526.5,-360 532.5,-360 532.5,-360 621.5,-360 621.5,-360 627.5,-360 633.5,-366 633.5,-372 633.5,-372 633.5,-389 633.5,-389 633.5,-395 627.5,-401 621.5,-401"/>
<text text-anchor="middle" x="577" y="-389" font-family="sans" font-size="10.00" fill="#000000">trimmomatic_pe</text>
<text text-anchor="middle" x="577" y="-378" font-family="sans" font-size="10.00" fill="#000000">barcode: barcode01</text>
<text text-anchor="middle" x="577" y="-367" font-family="sans" font-size="10.00" fill="#000000">sample: 309a</text>
</g>
<!-- 2&#45;&gt;0 -->
<g id="edge2" class="edge">
<title>2&#45;&gt;0</title>
<path fill="none" stroke="#c0c0c0" stroke-width="2" d="M520.4077,-364.3684C515.1992,-362.8893 510.0023,-361.4156 505,-360 448.1369,-343.9086 425.1957,-358.1982 377,-324 337.1798,-295.7449 314,-282.8262 314,-234 314,-234 314,-234 314,-162 314,-97.3086 387.3291,-53.6347 433.4372,-32.5675"/>
<polygon fill="#c0c0c0" stroke="#c0c0c0" stroke-width="2" points="435.0965,-35.6608 442.8269,-28.4157 432.2656,-29.2587 435.0965,-35.6608"/>
</g>
<!-- 3 -->
<g id="node4" class="node">
<title>3</title>
<path fill="none" stroke="#56a9d8" stroke-width="2" stroke-dasharray="5,2" d="M488.5,-180C488.5,-180 445.5,-180 445.5,-180 439.5,-180 433.5,-174 433.5,-168 433.5,-168 433.5,-156 433.5,-156 433.5,-150 439.5,-144 445.5,-144 445.5,-144 488.5,-144 488.5,-144 494.5,-144 500.5,-150 500.5,-156 500.5,-156 500.5,-168 500.5,-168 500.5,-174 494.5,-180 488.5,-180"/>
<text text-anchor="middle" x="467" y="-159.5" font-family="sans" font-size="10.00" fill="#000000">polypolish</text>
</g>
<!-- 2&#45;&gt;3 -->
<g id="edge7" class="edge">
<title>2&#45;&gt;3</title>
<path fill="none" stroke="#c0c0c0" stroke-width="2" d="M566.6515,-359.9441C546.7209,-320.3547 503.012,-233.5328 480.6969,-189.207"/>
<polygon fill="#c0c0c0" stroke="#c0c0c0" stroke-width="2" points="483.7711,-187.5297 476.1482,-180.1716 477.5187,-190.6774 483.7711,-187.5297"/>
</g>
<!-- 7 -->
<g id="node8" class="node">
<title>7</title>
<path fill="none" stroke="#b6d856" stroke-width="2" stroke-dasharray="5,2" d="M467.5,-252C467.5,-252 430.5,-252 430.5,-252 424.5,-252 418.5,-246 418.5,-240 418.5,-240 418.5,-228 418.5,-228 418.5,-222 424.5,-216 430.5,-216 430.5,-216 467.5,-216 467.5,-216 473.5,-216 479.5,-222 479.5,-228 479.5,-228 479.5,-240 479.5,-240 479.5,-246 473.5,-252 467.5,-252"/>
<text text-anchor="middle" x="449" y="-231.5" font-family="sans" font-size="10.00" fill="#000000">bwaalign</text>
</g>
<!-- 2&#45;&gt;7 -->
<g id="edge13" class="edge">
<title>2&#45;&gt;7</title>
<path fill="none" stroke="#c0c0c0" stroke-width="2" d="M538.2766,-359.8944C523.099,-350.4439 506.3907,-338.1735 494,-324 478.0163,-305.7166 466.1222,-280.7507 458.5894,-261.7514"/>
<polygon fill="#c0c0c0" stroke="#c0c0c0" stroke-width="2" points="461.7704,-260.2685 454.9522,-252.1591 455.2251,-262.7504 461.7704,-260.2685"/>
</g>
<!-- 8 -->
<g id="node9" class="node">
<title>8</title>
<path fill="none" stroke="#d8a456" stroke-width="2" stroke-dasharray="5,2" d="M716,-180C716,-180 624,-180 624,-180 618,-180 612,-174 612,-168 612,-168 612,-156 612,-156 612,-150 618,-144 624,-144 624,-144 716,-144 716,-144 722,-144 728,-150 728,-156 728,-156 728,-168 728,-168 728,-174 722,-180 716,-180"/>
<text text-anchor="middle" x="670" y="-159.5" font-family="sans" font-size="10.00" fill="#000000">polypolish_unicycler</text>
</g>
<!-- 2&#45;&gt;8 -->
<g id="edge15" class="edge">
<title>2&#45;&gt;8</title>
<path fill="none" stroke="#c0c0c0" stroke-width="2" d="M575.6989,-359.9768C574.5704,-327.2349 576.2814,-262.172 603,-216 609.6718,-204.4705 619.824,-194.4216 630.2226,-186.2205"/>
<polygon fill="#c0c0c0" stroke="#c0c0c0" stroke-width="2" points="632.603,-188.8128 638.5532,-180.0467 628.4351,-183.1889 632.603,-188.8128"/>
</g>
<!-- 9 -->
<g id="node10" class="node">
<title>9</title>
<path fill="none" stroke="#56d892" stroke-width="2" stroke-dasharray="5,2" d="M744.5,-324C744.5,-324 707.5,-324 707.5,-324 701.5,-324 695.5,-318 695.5,-312 695.5,-312 695.5,-300 695.5,-300 695.5,-294 701.5,-288 707.5,-288 707.5,-288 744.5,-288 744.5,-288 750.5,-288 756.5,-294 756.5,-300 756.5,-300 756.5,-312 756.5,-312 756.5,-318 750.5,-324 744.5,-324"/>
<text text-anchor="middle" x="726" y="-303.5" font-family="sans" font-size="10.00" fill="#000000">unicycler</text>
</g>
<!-- 2&#45;&gt;9 -->
<g id="edge18" class="edge">
<title>2&#45;&gt;9</title>
<path fill="none" stroke="#c0c0c0" stroke-width="2" d="M618.1093,-359.9453C639.4193,-349.2904 665.3249,-336.3375 686.4099,-325.795"/>
<polygon fill="#c0c0c0" stroke="#c0c0c0" stroke-width="2" points="688.0443,-328.891 695.4233,-321.2883 684.9138,-322.63 688.0443,-328.891"/>
</g>
<!-- 10 -->
<g id="node11" class="node">
<title>10</title>
<path fill="none" stroke="#567bd8" stroke-width="2" stroke-dasharray="5,2" d="M710,-252C710,-252 624,-252 624,-252 618,-252 612,-246 612,-240 612,-240 612,-228 612,-228 612,-222 618,-216 624,-216 624,-216 710,-216 710,-216 716,-216 722,-222 722,-228 722,-228 722,-240 722,-240 722,-246 716,-252 710,-252"/>
<text text-anchor="middle" x="667" y="-231.5" font-family="sans" font-size="10.00" fill="#000000">bwaalign_unicycler</text>
</g>
<!-- 2&#45;&gt;10 -->
<g id="edge20" class="edge">
<title>2&#45;&gt;10</title>
<path fill="none" stroke="#c0c0c0" stroke-width="2" d="M589.7039,-359.8208C605.6189,-333.9149 632.9247,-289.4671 650.4571,-260.9282"/>
<polygon fill="#c0c0c0" stroke="#c0c0c0" stroke-width="2" points="653.5268,-262.6177 655.7792,-252.265 647.5624,-258.9535 653.5268,-262.6177"/>
</g>
<!-- 3&#45;&gt;0 -->
<g id="edge3" class="edge">
<title>3&#45;&gt;0</title>
<path fill="none" stroke="#c0c0c0" stroke-width="2" d="M464.603,-143.716C462.5434,-125.5231 460.1718,-96.8148 462,-72 462.6169,-63.6264 463.7649,-54.5812 465.0026,-46.3322"/>
<polygon fill="#c0c0c0" stroke="#c0c0c0" stroke-width="2" points="468.4648,-46.8463 466.585,-36.4196 461.5523,-45.7428 468.4648,-46.8463"/>
</g>
<!-- 11 -->
<g id="node12" class="node">
<title>11</title>
<path fill="none" stroke="#56d8b9" stroke-width="2" stroke-dasharray="5,2" d="M585,-108C585,-108 555,-108 555,-108 549,-108 543,-102 543,-96 543,-96 543,-84 543,-84 543,-78 549,-72 555,-72 555,-72 585,-72 585,-72 591,-72 597,-78 597,-84 597,-84 597,-96 597,-96 597,-102 591,-108 585,-108"/>
<text text-anchor="middle" x="570" y="-87.5" font-family="sans" font-size="10.00" fill="#000000">prokka</text>
</g>
<!-- 3&#45;&gt;11 -->
<g id="edge25" class="edge">
<title>3&#45;&gt;11</title>
<path fill="none" stroke="#c0c0c0" stroke-width="2" d="M492.9912,-143.8314C505.9216,-134.7927 521.7222,-123.7476 535.6383,-114.0198"/>
<polygon fill="#c0c0c0" stroke="#c0c0c0" stroke-width="2" points="537.8263,-116.7608 544.0171,-108.1628 533.8157,-111.0235 537.8263,-116.7608"/>
</g>
<!-- 12 -->
<g id="node13" class="node">
<title>12</title>
<path fill="none" stroke="#d8cb56" stroke-width="2" stroke-dasharray="5,2" d="M513,-108C513,-108 483,-108 483,-108 477,-108 471,-102 471,-96 471,-96 471,-84 471,-84 471,-78 477,-72 483,-72 483,-72 513,-72 513,-72 519,-72 525,-78 525,-84 525,-84 525,-96 525,-96 525,-102 519,-108 513,-108"/>
<text text-anchor="middle" x="498" y="-87.5" font-family="sans" font-size="10.00" fill="#000000">quast</text>
</g>
<!-- 3&#45;&gt;12 -->
<g id="edge29" class="edge">
<title>3&#45;&gt;12</title>
<path fill="none" stroke="#c0c0c0" stroke-width="2" d="M474.8226,-143.8314C478.2109,-135.9617 482.2541,-126.5712 486.0076,-117.8533"/>
<polygon fill="#c0c0c0" stroke="#c0c0c0" stroke-width="2" points="489.3321,-118.9822 490.0721,-108.4133 482.9027,-116.214 489.3321,-118.9822"/>
</g>
<!-- 4 -->
<g id="node5" class="node">
<title>4</title>
<path fill="none" stroke="#d87d56" stroke-width="2" stroke-dasharray="5,2" d="M430,-324C430,-324 398,-324 398,-324 392,-324 386,-318 386,-312 386,-312 386,-300 386,-300 386,-294 392,-288 398,-288 398,-288 430,-288 430,-288 436,-288 442,-294 442,-300 442,-300 442,-312 442,-312 442,-318 436,-324 430,-324"/>
<text text-anchor="middle" x="414" y="-303.5" font-family="sans" font-size="10.00" fill="#000000">medaka</text>
</g>
<!-- 4&#45;&gt;3 -->
<g id="edge8" class="edge">
<title>4&#45;&gt;3</title>
<path fill="none" stroke="#c0c0c0" stroke-width="2" d="M408.7286,-287.9225C404.2495,-269.1337 399.9884,-239.2757 410,-216 414.7491,-204.9589 422.9885,-195.1176 431.7506,-186.9593"/>
<polygon fill="#c0c0c0" stroke="#c0c0c0" stroke-width="2" points="434.245,-189.4291 439.5106,-180.2354 429.661,-184.1388 434.245,-189.4291"/>
</g>
<!-- 4&#45;&gt;7 -->
<g id="edge14" class="edge">
<title>4&#45;&gt;7</title>
<path fill="none" stroke="#c0c0c0" stroke-width="2" d="M422.832,-287.8314C426.6986,-279.8771 431.3206,-270.369 435.5968,-261.5723"/>
<polygon fill="#c0c0c0" stroke="#c0c0c0" stroke-width="2" points="438.8249,-262.9371 440.0491,-252.4133 432.5293,-259.8768 438.8249,-262.9371"/>
</g>
<!-- 4&#45;&gt;11 -->
<g id="edge23" class="edge">
<title>4&#45;&gt;11</title>
<path fill="none" stroke="#c0c0c0" stroke-width="2" d="M442.2412,-290.2765C457.5225,-280.7162 475.8959,-267.3942 489,-252 523.911,-210.9878 548.3661,-152.336 560.7288,-118.0079"/>
<polygon fill="#c0c0c0" stroke="#c0c0c0" stroke-width="2" points="564.1682,-118.7765 564.1754,-108.1817 557.5628,-116.4595 564.1682,-118.7765"/>
</g>
<!-- 4&#45;&gt;12 -->
<g id="edge27" class="edge">
<title>4&#45;&gt;12</title>
<path fill="none" stroke="#c0c0c0" stroke-width="2" d="M407.6052,-287.7647C404.3154,-277.4187 400.6558,-264.1474 399,-252 392.3319,-203.081 395.5069,-183.594 425,-144 434.9652,-130.6218 449.1653,-119.0769 462.3964,-110.1354"/>
<polygon fill="#c0c0c0" stroke="#c0c0c0" stroke-width="2" points="464.3975,-113.0096 470.897,-104.6425 460.5983,-107.1302 464.3975,-113.0096"/>
</g>
<!-- 5 -->
<g id="node6" class="node">
<title>5</title>
<path fill="none" stroke="#68d856" stroke-width="2" stroke-dasharray="5,2" d="M484,-398.5C484,-398.5 454,-398.5 454,-398.5 448,-398.5 442,-392.5 442,-386.5 442,-386.5 442,-374.5 442,-374.5 442,-368.5 448,-362.5 454,-362.5 454,-362.5 484,-362.5 484,-362.5 490,-362.5 496,-368.5 496,-374.5 496,-374.5 496,-386.5 496,-386.5 496,-392.5 490,-398.5 484,-398.5"/>
<text text-anchor="middle" x="469" y="-378" font-family="sans" font-size="10.00" fill="#000000">flye</text>
</g>
<!-- 5&#45;&gt;4 -->
<g id="edge10" class="edge">
<title>5&#45;&gt;4</title>
<path fill="none" stroke="#c0c0c0" stroke-width="2" d="M455.686,-362.4656C448.98,-353.3819 440.724,-342.1989 433.3335,-332.1881"/>
<polygon fill="#c0c0c0" stroke="#c0c0c0" stroke-width="2" points="436.1372,-330.0929 427.382,-324.1265 430.5056,-334.2504 436.1372,-330.0929"/>
</g>
<!-- 6 -->
<g id="node7" class="node">
<title>6</title>
<path fill="none" stroke="#56d0d8" stroke-width="2" stroke-dasharray="5,2" d="M514,-473C514,-473 424,-473 424,-473 418,-473 412,-467 412,-461 412,-461 412,-449 412,-449 412,-443 418,-437 424,-437 424,-437 514,-437 514,-437 520,-437 526,-443 526,-449 526,-449 526,-461 526,-461 526,-467 520,-473 514,-473"/>
<text text-anchor="middle" x="469" y="-458" font-family="sans" font-size="10.00" fill="#000000">trim_nano_adaptors</text>
<text text-anchor="middle" x="469" y="-447" font-family="sans" font-size="10.00" fill="#000000">barcode: barcode01</text>
</g>
<!-- 6&#45;&gt;4 -->
<g id="edge11" class="edge">
<title>6&#45;&gt;4</title>
<path fill="none" stroke="#c0c0c0" stroke-width="2" d="M454.0592,-436.5417C446.683,-426.5591 438.2604,-413.6998 433,-401 424.0933,-379.4974 419.264,-353.4842 416.7065,-334.1189"/>
<polygon fill="#c0c0c0" stroke="#c0c0c0" stroke-width="2" points="420.1728,-333.6279 415.5079,-324.1153 413.2225,-334.4607 420.1728,-333.6279"/>
</g>
<!-- 6&#45;&gt;5 -->
<g id="edge12" class="edge">
<title>6&#45;&gt;5</title>
<path fill="none" stroke="#c0c0c0" stroke-width="2" d="M469,-436.9656C469,-428.5178 469,-418.2542 469,-408.8064"/>
<polygon fill="#c0c0c0" stroke="#c0c0c0" stroke-width="2" points="472.5001,-408.6265 469,-398.6265 465.5001,-408.6265 472.5001,-408.6265"/>
</g>
<!-- 6&#45;&gt;9 -->
<g id="edge19" class="edge">
<title>6&#45;&gt;9</title>
<path fill="none" stroke="#c0c0c0" stroke-width="2" d="M526.083,-445.5579C561.8086,-437.7236 607.6064,-424.0281 643,-401 670.4289,-383.154 694.1137,-353.7783 709.0814,-332.4106"/>
<polygon fill="#c0c0c0" stroke="#c0c0c0" stroke-width="2" points="712.016,-334.3194 714.7586,-324.0857 706.2327,-330.3755 712.016,-334.3194"/>
</g>
<!-- 7&#45;&gt;3 -->
<g id="edge9" class="edge">
<title>7&#45;&gt;3</title>
<path fill="none" stroke="#c0c0c0" stroke-width="2" d="M453.5422,-215.8314C455.4884,-208.0463 457.8068,-198.7729 459.9663,-190.1347"/>
<polygon fill="#c0c0c0" stroke="#c0c0c0" stroke-width="2" points="463.3668,-190.9636 462.3967,-180.4133 456.5758,-189.2658 463.3668,-190.9636"/>
</g>
<!-- 8&#45;&gt;0 -->
<g id="edge4" class="edge">
<title>8&#45;&gt;0</title>
<path fill="none" stroke="#c0c0c0" stroke-width="2" d="M661.1155,-143.7352C650.5157,-123.6566 631.039,-91.6468 606,-72 576.5903,-48.9237 536.0557,-34.5345 506.9025,-26.47"/>
<polygon fill="#c0c0c0" stroke="#c0c0c0" stroke-width="2" points="507.6648,-23.0514 497.1022,-23.8774 505.8745,-29.8186 507.6648,-23.0514"/>
</g>
<!-- 8&#45;&gt;11 -->
<g id="edge24" class="edge">
<title>8&#45;&gt;11</title>
<path fill="none" stroke="#c0c0c0" stroke-width="2" d="M644.7658,-143.8314C632.212,-134.7927 616.8717,-123.7476 603.3609,-114.0198"/>
<polygon fill="#c0c0c0" stroke="#c0c0c0" stroke-width="2" points="605.3866,-111.1655 595.2261,-108.1628 601.2964,-116.8463 605.3866,-111.1655"/>
</g>
<!-- 8&#45;&gt;12 -->
<g id="edge28" class="edge">
<title>8&#45;&gt;12</title>
<path fill="none" stroke="#c0c0c0" stroke-width="2" d="M621.7472,-143.9986C597.708,-134.7649 568.0909,-122.9925 534.1961,-107.9315"/>
<polygon fill="#c0c0c0" stroke="#c0c0c0" stroke-width="2" points="535.5648,-104.7096 525.0078,-103.8146 532.7025,-111.0977 535.5648,-104.7096"/>
</g>
<!-- 9&#45;&gt;8 -->
<g id="edge16" class="edge">
<title>9&#45;&gt;8</title>
<path fill="none" stroke="#c0c0c0" stroke-width="2" d="M743.4663,-287.7805C759.1224,-269.1375 777.6789,-239.6335 764,-216 756.493,-203.0299 744.5621,-192.9041 731.6854,-185.1078"/>
<polygon fill="#c0c0c0" stroke="#c0c0c0" stroke-width="2" points="733.101,-181.8898 722.6625,-180.0763 729.6917,-188.0035 733.101,-181.8898"/>
</g>
<!-- 9&#45;&gt;10 -->
<g id="edge21" class="edge">
<title>9&#45;&gt;10</title>
<path fill="none" stroke="#c0c0c0" stroke-width="2" d="M711.1118,-287.8314C704.247,-279.454 695.9699,-269.3531 688.4489,-260.1749"/>
<polygon fill="#c0c0c0" stroke="#c0c0c0" stroke-width="2" points="691.1341,-257.9297 682.0886,-252.4133 685.7197,-262.3665 691.1341,-257.9297"/>
</g>
<!-- 9&#45;&gt;11 -->
<g id="edge22" class="edge">
<title>9&#45;&gt;11</title>
<path fill="none" stroke="#c0c0c0" stroke-width="2" d="M751.5052,-287.9627C762.4753,-278.6284 774.1145,-266.2089 780,-252 799.7712,-204.2681 777.4129,-176.1875 737,-144 699.0363,-113.7632 643.6664,-100.2481 607.2458,-94.3517"/>
<polygon fill="#c0c0c0" stroke="#c0c0c0" stroke-width="2" points="607.4583,-90.8444 597.0492,-92.8195 606.418,-97.7667 607.4583,-90.8444"/>
</g>
<!-- 9&#45;&gt;12 -->
<g id="edge26" class="edge">
<title>9&#45;&gt;12</title>
<path fill="none" stroke="#c0c0c0" stroke-width="2" d="M733.3567,-287.7704C740.0077,-268.0204 746.5919,-236.582 731,-216 695.3152,-168.8944 655.1035,-207.8849 603,-180 571.6535,-163.2239 541.4386,-135.742 521.5346,-115.553"/>
<polygon fill="#c0c0c0" stroke="#c0c0c0" stroke-width="2" points="523.899,-112.9632 514.4302,-108.21 518.8682,-117.8305 523.899,-112.9632"/>
</g>
<!-- 10&#45;&gt;8 -->
<g id="edge17" class="edge">
<title>10&#45;&gt;8</title>
<path fill="none" stroke="#c0c0c0" stroke-width="2" d="M667.757,-215.8314C668.0779,-208.131 668.4594,-198.9743 668.816,-190.4166"/>
<polygon fill="#c0c0c0" stroke="#c0c0c0" stroke-width="2" points="672.3133,-190.5503 669.2328,-180.4133 665.3194,-190.2589 672.3133,-190.5503"/>
</g>
<!-- 11&#45;&gt;0 -->
<g id="edge5" class="edge">
<title>11&#45;&gt;0</title>
<path fill="none" stroke="#c0c0c0" stroke-width="2" d="M544.7658,-71.8314C532.212,-62.7927 516.8717,-51.7476 503.3609,-42.0198"/>
<polygon fill="#c0c0c0" stroke="#c0c0c0" stroke-width="2" points="505.3866,-39.1655 495.2261,-36.1628 501.2964,-44.8463 505.3866,-39.1655"/>
</g>
<!-- 12&#45;&gt;0 -->
<g id="edge6" class="edge">
<title>12&#45;&gt;0</title>
<path fill="none" stroke="#c0c0c0" stroke-width="2" d="M490.9344,-71.8314C487.874,-63.9617 484.2221,-54.5712 480.8318,-45.8533"/>
<polygon fill="#c0c0c0" stroke="#c0c0c0" stroke-width="2" points="484.0473,-44.4647 477.1607,-36.4133 477.5232,-47.0019 484.0473,-44.4647"/>
</g>
</g>
</svg>
