<?xml version="1.0" encoding="UTF-8" standalone="no"?>
<!DOCTYPE svg PUBLIC "-//W3C//DTD SVG 1.1//EN"
 "http://www.w3.org/Graphics/SVG/1.1/DTD/svg11.dtd">
<!-- Generated by graphviz version 7.1.0 (20230122.1345)
 -->
<!-- Title: snakemake_dag Pages: 1 -->
<svg width="1162pt" height="692pt"
 viewBox="0.00 0.00 1162.25 692.00" xmlns="http://www.w3.org/2000/svg" xmlns:xlink="http://www.w3.org/1999/xlink">
<g id="graph0" class="graph" transform="scale(1 1) rotate(0) translate(4 688)">
<title>snakemake_dag</title>
<polygon fill="white" stroke="none" points="-4,4 -4,-688 1158.25,-688 1158.25,4 -4,4"/>
<!-- 0 -->
<g id="node1" class="node">
<title>0</title>
<path fill="none" stroke="#d8d356" stroke-width="2" d="M681.25,-36C681.25,-36 651.25,-36 651.25,-36 645.25,-36 639.25,-30 639.25,-24 639.25,-24 639.25,-12 639.25,-12 639.25,-6 645.25,0 651.25,0 651.25,0 681.25,0 681.25,0 687.25,0 693.25,-6 693.25,-12 693.25,-12 693.25,-24 693.25,-24 693.25,-30 687.25,-36 681.25,-36"/>
<text text-anchor="middle" x="666.25" y="-15.5" font-family="sans" font-size="10.00">all</text>
</g>
<!-- 1 -->
<g id="node2" class="node">
<title>1</title>
<path fill="none" stroke="#56b9d8" stroke-width="2" d="M112.25,-108C112.25,-108 82.25,-108 82.25,-108 76.25,-108 70.25,-102 70.25,-96 70.25,-96 70.25,-84 70.25,-84 70.25,-78 76.25,-72 82.25,-72 82.25,-72 112.25,-72 112.25,-72 118.25,-72 124.25,-78 124.25,-84 124.25,-84 124.25,-96 124.25,-96 124.25,-102 118.25,-108 112.25,-108"/>
<text text-anchor="middle" x="97.25" y="-87.5" font-family="sans" font-size="10.00">pycoqc</text>
</g>
<!-- 1&#45;&gt;0 -->
<g id="edge5" class="edge">
<title>1&#45;&gt;0</title>
<path fill="none" stroke="grey" stroke-width="2" d="M125.11,-76.18C129.44,-74.56 133.92,-73.09 138.25,-72 315.67,-27.35 535.57,-20.08 625.27,-19.06"/>
<polygon fill="grey" stroke="grey" stroke-width="2" points="625.28,-22.56 635.25,-18.98 625.22,-15.56 625.28,-22.56"/>
</g>
<!-- 2 -->
<g id="node3" class="node">
<title>2</title>
<path fill="none" stroke="#56d863" stroke-width="2" d="M724.25,-612C724.25,-612 650.25,-612 650.25,-612 644.25,-612 638.25,-606 638.25,-600 638.25,-600 638.25,-588 638.25,-588 638.25,-582 644.25,-576 650.25,-576 650.25,-576 724.25,-576 724.25,-576 730.25,-576 736.25,-582 736.25,-588 736.25,-588 736.25,-600 736.25,-600 736.25,-606 730.25,-612 724.25,-612"/>
<text text-anchor="middle" x="687.25" y="-591.5" font-family="sans" font-size="10.00">trimmomatic_pe</text>
</g>
<!-- 2&#45;&gt;0 -->
<g id="edge2" class="edge">
<title>2&#45;&gt;0</title>
<path fill="none" stroke="grey" stroke-width="2" d="M737.24,-592.29C801.63,-589.71 915.8,-579.35 1004.25,-540 1062.34,-514.16 1116.25,-514.58 1116.25,-451 1116.25,-451 1116.25,-451 1116.25,-161 1116.25,-75.57 817.6,-35.09 706.9,-23.02"/>
<polygon fill="grey" stroke="grey" stroke-width="2" points="707.38,-19.55 697.07,-21.98 706.64,-26.52 707.38,-19.55"/>
</g>
<!-- 3 -->
<g id="node4" class="node">
<title>3</title>
<path fill="none" stroke="#c6d856" stroke-width="2" d="M287.75,-396C287.75,-396 244.75,-396 244.75,-396 238.75,-396 232.75,-390 232.75,-384 232.75,-384 232.75,-372 232.75,-372 232.75,-366 238.75,-360 244.75,-360 244.75,-360 287.75,-360 287.75,-360 293.75,-360 299.75,-366 299.75,-372 299.75,-372 299.75,-384 299.75,-384 299.75,-390 293.75,-396 287.75,-396"/>
<text text-anchor="middle" x="266.25" y="-375.5" font-family="sans" font-size="10.00">polypolish</text>
</g>
<!-- 2&#45;&gt;3 -->
<g id="edge13" class="edge">
<title>2&#45;&gt;3</title>
<path fill="none" stroke="grey" stroke-width="2" d="M637.51,-583.91C597.03,-575.49 538.98,-561.07 491.25,-540 436.77,-515.95 426.74,-502.57 378.25,-468 349.97,-447.84 319.16,-423.14 297.03,-404.89"/>
<polygon fill="grey" stroke="grey" stroke-width="2" points="299.47,-402.36 289.54,-398.67 295,-407.75 299.47,-402.36"/>
</g>
<!-- 7 -->
<g id="node8" class="node">
<title>7</title>
<path fill="none" stroke="#d85656" stroke-width="2" d="M275.75,-468C275.75,-468 238.75,-468 238.75,-468 232.75,-468 226.75,-462 226.75,-456 226.75,-456 226.75,-444 226.75,-444 226.75,-438 232.75,-432 238.75,-432 238.75,-432 275.75,-432 275.75,-432 281.75,-432 287.75,-438 287.75,-444 287.75,-444 287.75,-456 287.75,-456 287.75,-462 281.75,-468 275.75,-468"/>
<text text-anchor="middle" x="257.25" y="-447.5" font-family="sans" font-size="10.00">bwaalign</text>
</g>
<!-- 2&#45;&gt;7 -->
<g id="edge19" class="edge">
<title>2&#45;&gt;7</title>
<path fill="none" stroke="grey" stroke-width="2" d="M637.53,-589.43C554.3,-582.8 390.9,-566.75 340.25,-540 313.45,-525.85 290.63,-499.61 275.74,-479.28"/>
<polygon fill="grey" stroke="grey" stroke-width="2" points="278.66,-477.35 270.04,-471.18 272.93,-481.38 278.66,-477.35"/>
</g>
<!-- 8 -->
<g id="node9" class="node">
<title>8</title>
<path fill="none" stroke="#56d8a9" stroke-width="2" d="M466.25,-252C466.25,-252 436.25,-252 436.25,-252 430.25,-252 424.25,-246 424.25,-240 424.25,-240 424.25,-228 424.25,-228 424.25,-222 430.25,-216 436.25,-216 436.25,-216 466.25,-216 466.25,-216 472.25,-216 478.25,-222 478.25,-228 478.25,-228 478.25,-240 478.25,-240 478.25,-246 472.25,-252 466.25,-252"/>
<text text-anchor="middle" x="451.25" y="-231.5" font-family="sans" font-size="10.00">pilon</text>
</g>
<!-- 2&#45;&gt;8 -->
<g id="edge22" class="edge">
<title>2&#45;&gt;8</title>
<path fill="none" stroke="grey" stroke-width="2" d="M655.04,-575.07C641.43,-566.09 626.4,-554.11 616.25,-540 547.36,-444.29 605.32,-381.33 533.25,-288 522.02,-273.46 505.6,-261.73 490.4,-253.04"/>
<polygon fill="grey" stroke="grey" stroke-width="2" points="492.26,-250.06 481.79,-248.42 488.95,-256.23 492.26,-250.06"/>
</g>
<!-- 9 -->
<g id="node10" class="node">
<title>9</title>
<path fill="none" stroke="#5673d8" stroke-width="2" d="M512.25,-324C512.25,-324 420.25,-324 420.25,-324 414.25,-324 408.25,-318 408.25,-312 408.25,-312 408.25,-300 408.25,-300 408.25,-294 414.25,-288 420.25,-288 420.25,-288 512.25,-288 512.25,-288 518.25,-288 524.25,-294 524.25,-300 524.25,-300 524.25,-312 524.25,-312 524.25,-318 518.25,-324 512.25,-324"/>
<text text-anchor="middle" x="466.25" y="-303.5" font-family="sans" font-size="10.00">bwaalign_polypolish</text>
</g>
<!-- 2&#45;&gt;9 -->
<g id="edge24" class="edge">
<title>2&#45;&gt;9</title>
<path fill="none" stroke="grey" stroke-width="2" d="M673.43,-575.11C636.06,-526.76 532.85,-393.19 487.78,-334.86"/>
<polygon fill="grey" stroke="grey" stroke-width="2" points="490.8,-333.05 481.92,-327.28 485.27,-337.33 490.8,-333.05"/>
</g>
<!-- 10 -->
<g id="node11" class="node">
<title>10</title>
<path fill="none" stroke="#d88556" stroke-width="2" d="M864.25,-396C864.25,-396 772.25,-396 772.25,-396 766.25,-396 760.25,-390 760.25,-384 760.25,-384 760.25,-372 760.25,-372 760.25,-366 766.25,-360 772.25,-360 772.25,-360 864.25,-360 864.25,-360 870.25,-360 876.25,-366 876.25,-372 876.25,-372 876.25,-384 876.25,-384 876.25,-390 870.25,-396 864.25,-396"/>
<text text-anchor="middle" x="818.25" y="-375.5" font-family="sans" font-size="10.00">polypolish_unicycler</text>
</g>
<!-- 2&#45;&gt;10 -->
<g id="edge27" class="edge">
<title>2&#45;&gt;10</title>
<path fill="none" stroke="grey" stroke-width="2" d="M737.16,-577.93C785.81,-560.27 857.03,-525.82 889.25,-468 897.04,-454.02 896.42,-446.3 889.25,-432 883.72,-420.98 874.7,-411.66 864.9,-404.07"/>
<polygon fill="grey" stroke="grey" stroke-width="2" points="867.2,-401.4 857.01,-398.51 863.18,-407.13 867.2,-401.4"/>
</g>
<!-- 11 -->
<g id="node12" class="node">
<title>11</title>
<path fill="none" stroke="#afd856" stroke-width="2" d="M549.75,-540C549.75,-540 512.75,-540 512.75,-540 506.75,-540 500.75,-534 500.75,-528 500.75,-528 500.75,-516 500.75,-516 500.75,-510 506.75,-504 512.75,-504 512.75,-504 549.75,-504 549.75,-504 555.75,-504 561.75,-510 561.75,-516 561.75,-516 561.75,-528 561.75,-528 561.75,-534 555.75,-540 549.75,-540"/>
<text text-anchor="middle" x="531.25" y="-519.5" font-family="sans" font-size="10.00">unicycler</text>
</g>
<!-- 2&#45;&gt;11 -->
<g id="edge29" class="edge">
<title>2&#45;&gt;11</title>
<path fill="none" stroke="grey" stroke-width="2" d="M647.48,-575.15C625.14,-565.13 597.23,-552.61 574.37,-542.35"/>
<polygon fill="grey" stroke="grey" stroke-width="2" points="575.91,-539.2 565.35,-538.3 573.04,-545.59 575.91,-539.2"/>
</g>
<!-- 12 -->
<g id="node13" class="node">
<title>12</title>
<path fill="none" stroke="#568ad8" stroke-width="2" d="M868.25,-468C868.25,-468 782.25,-468 782.25,-468 776.25,-468 770.25,-462 770.25,-456 770.25,-456 770.25,-444 770.25,-444 770.25,-438 776.25,-432 782.25,-432 782.25,-432 868.25,-432 868.25,-432 874.25,-432 880.25,-438 880.25,-444 880.25,-444 880.25,-456 880.25,-456 880.25,-462 874.25,-468 868.25,-468"/>
<text text-anchor="middle" x="825.25" y="-447.5" font-family="sans" font-size="10.00">bwaalign_unicycler</text>
</g>
<!-- 2&#45;&gt;12 -->
<g id="edge31" class="edge">
<title>2&#45;&gt;12</title>
<path fill="none" stroke="grey" stroke-width="2" d="M704.73,-575.02C728.58,-550.48 771.5,-506.3 799.17,-477.84"/>
<polygon fill="grey" stroke="grey" stroke-width="2" points="801.34,-480.62 805.8,-471.01 796.32,-475.74 801.34,-480.62"/>
</g>
<!-- 13 -->
<g id="node14" class="node">
<title>13</title>
<path fill="none" stroke="#56d8c9" stroke-width="2" d="M924.25,-252C924.25,-252 858.25,-252 858.25,-252 852.25,-252 846.25,-246 846.25,-240 846.25,-240 846.25,-228 846.25,-228 846.25,-222 852.25,-216 858.25,-216 858.25,-216 924.25,-216 924.25,-216 930.25,-216 936.25,-222 936.25,-228 936.25,-228 936.25,-240 936.25,-240 936.25,-246 930.25,-252 924.25,-252"/>
<text text-anchor="middle" x="891.25" y="-231.5" font-family="sans" font-size="10.00">pilon_unicycler</text>
</g>
<!-- 2&#45;&gt;13 -->
<g id="edge34" class="edge">
<title>2&#45;&gt;13</title>
<path fill="none" stroke="grey" stroke-width="2" d="M737.17,-585.64C842.58,-568.69 1078.25,-522.77 1078.25,-451 1078.25,-451 1078.25,-451 1078.25,-377 1078.25,-336.55 1086.46,-317.93 1059.25,-288 1031.46,-257.43 986.23,-244.37 949.69,-238.84"/>
<polygon fill="grey" stroke="grey" stroke-width="2" points="950.55,-235.43 940.18,-237.58 949.63,-242.37 950.55,-235.43"/>
</g>
<!-- 14 -->
<g id="node15" class="node">
<title>14</title>
<path fill="none" stroke="#56d0d8" stroke-width="2" d="M1038.25,-324C1038.25,-324 896.25,-324 896.25,-324 890.25,-324 884.25,-318 884.25,-312 884.25,-312 884.25,-300 884.25,-300 884.25,-294 890.25,-288 896.25,-288 896.25,-288 1038.25,-288 1038.25,-288 1044.25,-288 1050.25,-294 1050.25,-300 1050.25,-300 1050.25,-312 1050.25,-312 1050.25,-318 1044.25,-324 1038.25,-324"/>
<text text-anchor="middle" x="967.25" y="-303.5" font-family="sans" font-size="10.00">bwaalign_polypolish_unicycler</text>
</g>
<!-- 2&#45;&gt;14 -->
<g id="edge36" class="edge">
<title>2&#45;&gt;14</title>
<path fill="none" stroke="grey" stroke-width="2" d="M737.12,-585.37C771.91,-578.14 818.05,-564.6 852.25,-540 920.85,-490.66 950.63,-388.77 961.67,-337.65"/>
<polygon fill="grey" stroke="grey" stroke-width="2" points="965.09,-338.42 963.65,-327.92 958.23,-337.02 965.09,-338.42"/>
</g>
<!-- 3&#45;&gt;0 -->
<g id="edge8" class="edge">
<title>3&#45;&gt;0</title>
<path fill="none" stroke="grey" stroke-width="2" d="M252.15,-359.24C221.48,-318.3 154.97,-215.35 200.25,-144 246.53,-71.08 520.61,-34.53 625.48,-23.07"/>
<polygon fill="grey" stroke="grey" stroke-width="2" points="625.68,-26.57 635.25,-22.03 624.93,-19.61 625.68,-26.57"/>
</g>
<!-- 3&#45;&gt;8 -->
<g id="edge20" class="edge">
<title>3&#45;&gt;8</title>
<path fill="none" stroke="grey" stroke-width="2" d="M284.24,-359.28C303.67,-340.57 335.92,-310.7 366.25,-288 380.79,-277.12 397.6,-266.3 412.42,-257.3"/>
<polygon fill="grey" stroke="grey" stroke-width="2" points="413.9,-260.49 420.69,-252.36 410.31,-254.49 413.9,-260.49"/>
</g>
<!-- 3&#45;&gt;9 -->
<g id="edge23" class="edge">
<title>3&#45;&gt;9</title>
<path fill="none" stroke="grey" stroke-width="2" d="M300.63,-364.97C328.68,-355.15 369.06,-341.01 402.93,-329.16"/>
<polygon fill="grey" stroke="grey" stroke-width="2" points="403.94,-332.52 412.22,-325.91 401.63,-325.91 403.94,-332.52"/>
</g>
<!-- 17 -->
<g id="node18" class="node">
<title>17</title>
<path fill="none" stroke="#d86e56" stroke-width="2" d="M251.25,-180C251.25,-180 221.25,-180 221.25,-180 215.25,-180 209.25,-174 209.25,-168 209.25,-168 209.25,-156 209.25,-156 209.25,-150 215.25,-144 221.25,-144 221.25,-144 251.25,-144 251.25,-144 257.25,-144 263.25,-150 263.25,-156 263.25,-156 263.25,-168 263.25,-168 263.25,-174 257.25,-180 251.25,-180"/>
<text text-anchor="middle" x="236.25" y="-159.5" font-family="sans" font-size="10.00">prokka</text>
</g>
<!-- 3&#45;&gt;17 -->
<g id="edge47" class="edge">
<title>3&#45;&gt;17</title>
<path fill="none" stroke="grey" stroke-width="2" d="M260.73,-359.01C257.81,-348.82 254.38,-335.8 252.25,-324 244.13,-279.01 239.86,-226.15 237.84,-193.62"/>
<polygon fill="grey" stroke="grey" stroke-width="2" points="241.36,-193.8 237.28,-184.02 234.37,-194.21 241.36,-193.8"/>
</g>
<!-- 18 -->
<g id="node19" class="node">
<title>18</title>
<path fill="none" stroke="#97d856" stroke-width="2" d="M681.25,-180C681.25,-180 651.25,-180 651.25,-180 645.25,-180 639.25,-174 639.25,-168 639.25,-168 639.25,-156 639.25,-156 639.25,-150 645.25,-144 651.25,-144 651.25,-144 681.25,-144 681.25,-144 687.25,-144 693.25,-150 693.25,-156 693.25,-156 693.25,-168 693.25,-168 693.25,-174 687.25,-180 681.25,-180"/>
<text text-anchor="middle" x="666.25" y="-159.5" font-family="sans" font-size="10.00">quast</text>
</g>
<!-- 3&#45;&gt;18 -->
<g id="edge54" class="edge">
<title>3&#45;&gt;18</title>
<path fill="none" stroke="grey" stroke-width="2" d="M300.47,-359.78C318.53,-350.14 340.72,-337.38 359.25,-324 378.64,-310 378.99,-300.72 399.25,-288 435.04,-265.53 448.75,-269.42 487.25,-252 535.97,-229.96 590.89,-202.21 626.89,-183.61"/>
<polygon fill="grey" stroke="grey" stroke-width="2" points="628.39,-186.77 635.65,-179.06 625.17,-180.56 628.39,-186.77"/>
</g>
<!-- 19 -->
<g id="node20" class="node">
<title>19</title>
<path fill="none" stroke="#78d856" stroke-width="2" d="M413.25,-180C413.25,-180 383.25,-180 383.25,-180 377.25,-180 371.25,-174 371.25,-168 371.25,-168 371.25,-156 371.25,-156 371.25,-150 377.25,-144 383.25,-144 383.25,-144 413.25,-144 413.25,-144 419.25,-144 425.25,-150 425.25,-156 425.25,-156 425.25,-168 425.25,-168 425.25,-174 419.25,-180 413.25,-180"/>
<text text-anchor="middle" x="398.25" y="-159.5" font-family="sans" font-size="10.00">busco</text>
</g>
<!-- 3&#45;&gt;19 -->
<g id="edge61" class="edge">
<title>3&#45;&gt;19</title>
<path fill="none" stroke="grey" stroke-width="2" d="M268.66,-359.08C271.71,-340.46 278.09,-310.9 290.25,-288 296.07,-277.04 343.39,-223.75 373.44,-190.39"/>
<polygon fill="grey" stroke="grey" stroke-width="2" points="376.01,-192.76 380.11,-182.99 370.81,-188.07 376.01,-192.76"/>
</g>
<!-- 4 -->
<g id="node5" class="node">
<title>4</title>
<path fill="none" stroke="#61d856" stroke-width="2" d="M195.25,-540C195.25,-540 163.25,-540 163.25,-540 157.25,-540 151.25,-534 151.25,-528 151.25,-528 151.25,-516 151.25,-516 151.25,-510 157.25,-504 163.25,-504 163.25,-504 195.25,-504 195.25,-504 201.25,-504 207.25,-510 207.25,-516 207.25,-516 207.25,-528 207.25,-528 207.25,-534 201.25,-540 195.25,-540"/>
<text text-anchor="middle" x="179.25" y="-519.5" font-family="sans" font-size="10.00">medaka</text>
</g>
<!-- 4&#45;&gt;3 -->
<g id="edge12" class="edge">
<title>4&#45;&gt;3</title>
<path fill="none" stroke="grey" stroke-width="2" d="M175.78,-503.28C173.03,-484.3 171.49,-453.94 184.25,-432 192.58,-417.66 206.53,-406.54 220.57,-398.27"/>
<polygon fill="grey" stroke="grey" stroke-width="2" points="221.95,-401.51 229.09,-393.68 218.63,-395.35 221.95,-401.51"/>
</g>
<!-- 4&#45;&gt;7 -->
<g id="edge18" class="edge">
<title>4&#45;&gt;7</title>
<path fill="none" stroke="grey" stroke-width="2" d="M198.93,-503.34C207.64,-495.52 218.07,-486.16 227.68,-477.53"/>
<polygon fill="grey" stroke="grey" stroke-width="2" points="229.94,-480.21 235.05,-470.92 225.27,-475 229.94,-480.21"/>
</g>
<!-- 4&#45;&gt;17 -->
<g id="edge43" class="edge">
<title>4&#45;&gt;17</title>
<path fill="none" stroke="grey" stroke-width="2" d="M150.54,-508.22C133.55,-499.26 112.95,-485.72 100.25,-468 76.39,-434.7 76.25,-419.97 76.25,-379 76.25,-379 76.25,-379 76.25,-305 76.25,-264.03 72.89,-246.49 100.25,-216 124.79,-188.64 165.18,-175.27 195.58,-168.82"/>
<polygon fill="grey" stroke="grey" stroke-width="2" points="196.2,-172.27 205.36,-166.96 194.88,-165.39 196.2,-172.27"/>
</g>
<!-- 4&#45;&gt;18 -->
<g id="edge50" class="edge">
<title>4&#45;&gt;18</title>
<path fill="none" stroke="grey" stroke-width="2" d="M182.38,-503.13C186.78,-483.15 196.69,-451.09 217.25,-432 244.44,-406.75 502.73,-345.1 533.25,-324 584.78,-288.38 627.34,-227.49 649.57,-191.68"/>
<polygon fill="grey" stroke="grey" stroke-width="2" points="652.28,-193.94 654.48,-183.58 646.3,-190.31 652.28,-193.94"/>
</g>
<!-- 4&#45;&gt;19 -->
<g id="edge57" class="edge">
<title>4&#45;&gt;19</title>
<path fill="none" stroke="grey" stroke-width="2" d="M173.73,-503.19C168.96,-484.92 163.9,-455.87 171.25,-432 205.43,-321.02 235.63,-297.6 318.25,-216 330.41,-203.99 345.67,-193.1 359.59,-184.35"/>
<polygon fill="grey" stroke="grey" stroke-width="2" points="361.05,-187.56 367.8,-179.39 357.43,-181.57 361.05,-187.56"/>
</g>
<!-- 5 -->
<g id="node6" class="node">
<title>5</title>
<path fill="none" stroke="#d8a456" stroke-width="2" d="M518.25,-684C518.25,-684 428.25,-684 428.25,-684 422.25,-684 416.25,-678 416.25,-672 416.25,-672 416.25,-660 416.25,-660 416.25,-654 422.25,-648 428.25,-648 428.25,-648 518.25,-648 518.25,-648 524.25,-648 530.25,-654 530.25,-660 530.25,-660 530.25,-672 530.25,-672 530.25,-678 524.25,-684 518.25,-684"/>
<text text-anchor="middle" x="473.25" y="-663.5" font-family="sans" font-size="10.00">trim_nano_adaptors</text>
</g>
<!-- 5&#45;&gt;4 -->
<g id="edge16" class="edge">
<title>5&#45;&gt;4</title>
<path fill="none" stroke="grey" stroke-width="2" d="M436.01,-647.02C380.62,-620.26 276.92,-570.17 219.71,-542.54"/>
<polygon fill="grey" stroke="grey" stroke-width="2" points="221.5,-539.52 210.97,-538.32 218.45,-545.82 221.5,-539.52"/>
</g>
<!-- 6 -->
<g id="node7" class="node">
<title>6</title>
<path fill="none" stroke="#56a2d8" stroke-width="2" d="M194.25,-612C194.25,-612 164.25,-612 164.25,-612 158.25,-612 152.25,-606 152.25,-600 152.25,-600 152.25,-588 152.25,-588 152.25,-582 158.25,-576 164.25,-576 164.25,-576 194.25,-576 194.25,-576 200.25,-576 206.25,-582 206.25,-588 206.25,-588 206.25,-600 206.25,-600 206.25,-606 200.25,-612 194.25,-612"/>
<text text-anchor="middle" x="179.25" y="-591.5" font-family="sans" font-size="10.00">flye</text>
</g>
<!-- 5&#45;&gt;6 -->
<g id="edge17" class="edge">
<title>5&#45;&gt;6</title>
<path fill="none" stroke="grey" stroke-width="2" d="M415.52,-651.25C357.67,-637.48 270.15,-616.64 219.45,-604.57"/>
<polygon fill="grey" stroke="grey" stroke-width="2" points="220.58,-601.24 210.04,-602.33 218.96,-608.05 220.58,-601.24"/>
</g>
<!-- 5&#45;&gt;11 -->
<g id="edge28" class="edge">
<title>5&#45;&gt;11</title>
<path fill="none" stroke="grey" stroke-width="2" d="M480.6,-647.02C490.27,-623.33 507.42,-581.35 519.05,-552.86"/>
<polygon fill="grey" stroke="grey" stroke-width="2" points="522.28,-554.22 522.82,-543.64 515.8,-551.57 522.28,-554.22"/>
</g>
<!-- 15 -->
<g id="node16" class="node">
<title>15</title>
<path fill="none" stroke="#56d87b" stroke-width="2" d="M892.25,-180C892.25,-180 856.25,-180 856.25,-180 850.25,-180 844.25,-174 844.25,-168 844.25,-168 844.25,-156 844.25,-156 844.25,-150 850.25,-144 856.25,-144 856.25,-144 892.25,-144 892.25,-144 898.25,-144 904.25,-150 904.25,-156 904.25,-156 904.25,-168 904.25,-168 904.25,-174 898.25,-180 892.25,-180"/>
<text text-anchor="middle" x="874.25" y="-159.5" font-family="sans" font-size="10.00">minimap</text>
</g>
<!-- 5&#45;&gt;15 -->
<g id="edge39" class="edge">
<title>5&#45;&gt;15</title>
<path fill="none" stroke="grey" stroke-width="2" d="M531.02,-665.18C695.45,-664.14 1154.25,-649.89 1154.25,-523 1154.25,-523 1154.25,-523 1154.25,-305 1154.25,-200.28 996.53,-172.76 917.83,-165.55"/>
<polygon fill="grey" stroke="grey" stroke-width="2" points="918.29,-162.08 908.03,-164.74 917.71,-169.05 918.29,-162.08"/>
</g>
<!-- 6&#45;&gt;4 -->
<g id="edge15" class="edge">
<title>6&#45;&gt;4</title>
<path fill="none" stroke="grey" stroke-width="2" d="M179.25,-575.34C179.25,-568.75 179.25,-561.08 179.25,-553.67"/>
<polygon fill="grey" stroke="grey" stroke-width="2" points="182.75,-553.93 179.25,-543.93 175.75,-553.93 182.75,-553.93"/>
</g>
<!-- 6&#45;&gt;17 -->
<g id="edge49" class="edge">
<title>6&#45;&gt;17</title>
<path fill="none" stroke="grey" stroke-width="2" d="M151.54,-591.23C116.84,-587.5 57.87,-575.92 24.25,-540 -3.75,-510.09 0.25,-491.97 0.25,-451 0.25,-451 0.25,-451 0.25,-305 0.25,-214.89 128.12,-180.5 195.61,-168.62"/>
<polygon fill="grey" stroke="grey" stroke-width="2" points="195.97,-172.11 205.26,-167.03 194.83,-165.21 195.97,-172.11"/>
</g>
<!-- 6&#45;&gt;18 -->
<g id="edge56" class="edge">
<title>6&#45;&gt;18</title>
<path fill="none" stroke="grey" stroke-width="2" d="M207.18,-583.93C310.66,-549.95 666.25,-429.5 666.25,-379 666.25,-379 666.25,-379 666.25,-305 666.25,-266.65 666.25,-222.48 666.25,-193.72"/>
<polygon fill="grey" stroke="grey" stroke-width="2" points="669.75,-193.96 666.25,-183.96 662.75,-193.96 669.75,-193.96"/>
</g>
<!-- 6&#45;&gt;19 -->
<g id="edge63" class="edge">
<title>6&#45;&gt;19</title>
<path fill="none" stroke="grey" stroke-width="2" d="M151.39,-580.45C110.3,-559.82 38.25,-514.58 38.25,-451 38.25,-451 38.25,-451 38.25,-377 38.25,-229.76 263.52,-181.56 357.66,-167.84"/>
<polygon fill="grey" stroke="grey" stroke-width="2" points="357.88,-171.34 367.3,-166.51 356.92,-164.41 357.88,-171.34"/>
</g>
<!-- 7&#45;&gt;3 -->
<g id="edge14" class="edge">
<title>7&#45;&gt;3</title>
<path fill="none" stroke="grey" stroke-width="2" d="M259.52,-431.34C260.37,-424.75 261.35,-417.08 262.31,-409.67"/>
<polygon fill="grey" stroke="grey" stroke-width="2" points="265.76,-410.27 263.56,-399.9 258.82,-409.38 265.76,-410.27"/>
</g>
<!-- 8&#45;&gt;0 -->
<g id="edge3" class="edge">
<title>8&#45;&gt;0</title>
<path fill="none" stroke="grey" stroke-width="2" d="M469.21,-215.12C506.91,-177.59 594.5,-90.41 639.1,-46.02"/>
<polygon fill="grey" stroke="grey" stroke-width="2" points="641.42,-48.65 646.04,-39.11 636.49,-43.69 641.42,-48.65"/>
</g>
<!-- 8&#45;&gt;15 -->
<g id="edge38" class="edge">
<title>8&#45;&gt;15</title>
<path fill="none" stroke="grey" stroke-width="2" d="M479,-228.41C550.87,-216.51 743.48,-184.64 830.5,-170.24"/>
<polygon fill="grey" stroke="grey" stroke-width="2" points="831,-173.7 840.3,-168.62 829.86,-166.8 831,-173.7"/>
</g>
<!-- 16 -->
<g id="node17" class="node">
<title>16</title>
<path fill="none" stroke="#56d892" stroke-width="2" d="M854.25,-108C854.25,-108 760.25,-108 760.25,-108 754.25,-108 748.25,-102 748.25,-96 748.25,-96 748.25,-84 748.25,-84 748.25,-78 754.25,-72 760.25,-72 760.25,-72 854.25,-72 854.25,-72 860.25,-72 866.25,-78 866.25,-84 866.25,-84 866.25,-96 866.25,-96 866.25,-102 860.25,-108 854.25,-108"/>
<text text-anchor="middle" x="807.25" y="-87.5" font-family="sans" font-size="10.00">medaka_variant_call</text>
</g>
<!-- 8&#45;&gt;16 -->
<g id="edge40" class="edge">
<title>8&#45;&gt;16</title>
<path fill="none" stroke="grey" stroke-width="2" d="M479.09,-217.29C513.73,-198.19 575.05,-165.8 630.25,-144 664.11,-130.63 702.74,-118.69 735.25,-109.55"/>
<polygon fill="grey" stroke="grey" stroke-width="2" points="735.77,-113.04 744.47,-107 733.9,-106.29 735.77,-113.04"/>
</g>
<!-- 8&#45;&gt;17 -->
<g id="edge44" class="edge">
<title>8&#45;&gt;17</title>
<path fill="none" stroke="grey" stroke-width="2" d="M423.58,-223.99C386.19,-211.82 319.28,-190.03 276.37,-176.06"/>
<polygon fill="grey" stroke="grey" stroke-width="2" points="277.62,-172.79 267.03,-173.02 275.45,-179.45 277.62,-172.79"/>
</g>
<!-- 8&#45;&gt;18 -->
<g id="edge51" class="edge">
<title>8&#45;&gt;18</title>
<path fill="none" stroke="grey" stroke-width="2" d="M478.9,-221.11C483.33,-219.32 487.9,-217.56 492.25,-216 516.95,-207.14 582.92,-187.45 626.16,-174.72"/>
<polygon fill="grey" stroke="grey" stroke-width="2" points="627,-178.12 635.6,-171.94 625.02,-171.4 627,-178.12"/>
</g>
<!-- 8&#45;&gt;19 -->
<g id="edge58" class="edge">
<title>8&#45;&gt;19</title>
<path fill="none" stroke="grey" stroke-width="2" d="M437.88,-215.34C432.33,-208.01 425.76,-199.34 419.58,-191.18"/>
<polygon fill="grey" stroke="grey" stroke-width="2" points="422.46,-189.18 413.63,-183.32 416.88,-193.4 422.46,-189.18"/>
</g>
<!-- 9&#45;&gt;8 -->
<g id="edge21" class="edge">
<title>9&#45;&gt;8</title>
<path fill="none" stroke="grey" stroke-width="2" d="M462.46,-287.34C461.04,-280.67 459.37,-272.89 457.76,-265.39"/>
<polygon fill="grey" stroke="grey" stroke-width="2" points="461.24,-264.91 455.72,-255.86 454.39,-266.37 461.24,-264.91"/>
</g>
<!-- 10&#45;&gt;0 -->
<g id="edge7" class="edge">
<title>10&#45;&gt;0</title>
<path fill="none" stroke="grey" stroke-width="2" d="M816.38,-359.08C814.27,-340.97 810.32,-312.28 804.25,-288 780.6,-193.45 718.65,-94.53 686.41,-47.33"/>
<polygon fill="grey" stroke="grey" stroke-width="2" points="689.37,-45.46 680.8,-39.23 683.61,-49.44 689.37,-45.46"/>
</g>
<!-- 10&#45;&gt;13 -->
<g id="edge33" class="edge">
<title>10&#45;&gt;13</title>
<path fill="none" stroke="grey" stroke-width="2" d="M827.5,-359.02C839.78,-335.12 861.64,-292.59 876.29,-264.1"/>
<polygon fill="grey" stroke="grey" stroke-width="2" points="879.24,-266.02 880.7,-255.53 873.01,-262.82 879.24,-266.02"/>
</g>
<!-- 10&#45;&gt;14 -->
<g id="edge35" class="edge">
<title>10&#45;&gt;14</title>
<path fill="none" stroke="grey" stroke-width="2" d="M856.23,-359.15C874.81,-350.43 897.42,-339.81 917.37,-330.43"/>
<polygon fill="grey" stroke="grey" stroke-width="2" points="918.77,-333.64 926.34,-326.22 915.8,-327.31 918.77,-333.64"/>
</g>
<!-- 10&#45;&gt;17 -->
<g id="edge46" class="edge">
<title>10&#45;&gt;17</title>
<path fill="none" stroke="grey" stroke-width="2" d="M759.62,-360.28C724.59,-350.12 679.25,-336.71 639.25,-324 591.83,-308.93 580.61,-303.26 533.25,-288 481.06,-271.18 466.19,-272.27 415.25,-252 365.71,-232.28 311.16,-204.18 275.46,-184.85"/>
<polygon fill="grey" stroke="grey" stroke-width="2" points="277.22,-181.83 266.77,-180.11 273.87,-187.97 277.22,-181.83"/>
</g>
<!-- 10&#45;&gt;18 -->
<g id="edge53" class="edge">
<title>10&#45;&gt;18</title>
<path fill="none" stroke="grey" stroke-width="2" d="M813.01,-359.16C801.89,-322.14 775.37,-238.56 756.25,-216 742.72,-200.04 723.11,-187.7 705.64,-178.96"/>
<polygon fill="grey" stroke="grey" stroke-width="2" points="707.27,-175.86 696.73,-174.77 704.29,-182.19 707.27,-175.86"/>
</g>
<!-- 10&#45;&gt;19 -->
<g id="edge60" class="edge">
<title>10&#45;&gt;19</title>
<path fill="none" stroke="grey" stroke-width="2" d="M783.16,-359.12C705.45,-319.52 519.24,-224.65 437.67,-183.08"/>
<polygon fill="grey" stroke="grey" stroke-width="2" points="439.38,-180.03 428.88,-178.61 436.2,-186.27 439.38,-180.03"/>
</g>
<!-- 11&#45;&gt;10 -->
<g id="edge26" class="edge">
<title>11&#45;&gt;10</title>
<path fill="none" stroke="grey" stroke-width="2" d="M562.67,-516.53C601.22,-510.08 667.66,-495.75 718.25,-468 726.37,-463.55 763.16,-430.12 789.76,-405.54"/>
<polygon fill="grey" stroke="grey" stroke-width="2" points="791.85,-408.38 796.81,-399.01 787.09,-403.24 791.85,-408.38"/>
</g>
<!-- 11&#45;&gt;12 -->
<g id="edge30" class="edge">
<title>11&#45;&gt;12</title>
<path fill="none" stroke="grey" stroke-width="2" d="M562.58,-513.73C606.07,-503.61 687.19,-484.64 756.25,-468 756.52,-467.93 756.79,-467.87 757.06,-467.8"/>
<polygon fill="grey" stroke="grey" stroke-width="2" points="757.69,-471.25 766.58,-465.49 756.04,-464.45 757.69,-471.25"/>
</g>
<!-- 11&#45;&gt;17 -->
<g id="edge48" class="edge">
<title>11&#45;&gt;17</title>
<path fill="none" stroke="grey" stroke-width="2" d="M499.87,-509.34C423.11,-480.69 231.49,-408.24 223.25,-396 181.57,-334.1 206.59,-240.66 223.91,-193.11"/>
<polygon fill="grey" stroke="grey" stroke-width="2" points="227.17,-194.4 227.46,-183.81 220.63,-191.91 227.17,-194.4"/>
</g>
<!-- 11&#45;&gt;18 -->
<g id="edge55" class="edge">
<title>11&#45;&gt;18</title>
<path fill="none" stroke="grey" stroke-width="2" d="M562.69,-518.28C596.49,-513.67 649.5,-501.26 680.25,-468 708.06,-437.92 704.25,-419.97 704.25,-379 704.25,-379 704.25,-379 704.25,-305 704.25,-265.16 690.12,-221.11 679.09,-192.8"/>
<polygon fill="grey" stroke="grey" stroke-width="2" points="682.44,-191.73 675.44,-183.77 675.95,-194.36 682.44,-191.73"/>
</g>
<!-- 11&#45;&gt;19 -->
<g id="edge62" class="edge">
<title>11&#45;&gt;19</title>
<path fill="none" stroke="grey" stroke-width="2" d="M513.8,-503.12C483.49,-470.69 422.18,-398.57 399.25,-324 385.81,-280.28 389.14,-226.68 393.3,-193.68"/>
<polygon fill="grey" stroke="grey" stroke-width="2" points="396.75,-194.28 394.66,-183.89 389.81,-193.31 396.75,-194.28"/>
</g>
<!-- 12&#45;&gt;10 -->
<g id="edge25" class="edge">
<title>12&#45;&gt;10</title>
<path fill="none" stroke="grey" stroke-width="2" d="M823.48,-431.34C822.83,-424.75 822.06,-417.08 821.32,-409.67"/>
<polygon fill="grey" stroke="grey" stroke-width="2" points="824.82,-409.52 820.34,-399.91 817.85,-410.21 824.82,-409.52"/>
</g>
<!-- 13&#45;&gt;0 -->
<g id="edge4" class="edge">
<title>13&#45;&gt;0</title>
<path fill="none" stroke="grey" stroke-width="2" d="M900.61,-215.4C905.43,-205.34 910.8,-192.31 913.25,-180 922.78,-132.2 929.22,-105.95 894.25,-72 867.88,-46.39 764.92,-30.51 706.79,-23.4"/>
<polygon fill="grey" stroke="grey" stroke-width="2" points="707.42,-19.95 697.08,-22.25 706.6,-26.9 707.42,-19.95"/>
</g>
<!-- 13&#45;&gt;15 -->
<g id="edge37" class="edge">
<title>13&#45;&gt;15</title>
<path fill="none" stroke="grey" stroke-width="2" d="M886.96,-215.34C885.34,-208.67 883.45,-200.89 881.63,-193.39"/>
<polygon fill="grey" stroke="grey" stroke-width="2" points="885.07,-192.73 879.31,-183.84 878.27,-194.39 885.07,-192.73"/>
</g>
<!-- 13&#45;&gt;16 -->
<g id="edge42" class="edge">
<title>13&#45;&gt;16</title>
<path fill="none" stroke="grey" stroke-width="2" d="M867.28,-215.08C856.18,-205.7 843.62,-193.39 835.25,-180 824.09,-162.16 817.05,-139.51 812.82,-121.53"/>
<polygon fill="grey" stroke="grey" stroke-width="2" points="816.25,-120.85 810.74,-111.8 809.41,-122.31 816.25,-120.85"/>
</g>
<!-- 13&#45;&gt;17 -->
<g id="edge45" class="edge">
<title>13&#45;&gt;17</title>
<path fill="none" stroke="grey" stroke-width="2" d="M845.55,-228.95C753.82,-220.71 540.78,-200.98 362.25,-180 333.76,-176.65 301.73,-172.32 277.1,-168.87"/>
<polygon fill="grey" stroke="grey" stroke-width="2" points="277.63,-165.41 267.24,-167.48 276.65,-172.34 277.63,-165.41"/>
</g>
<!-- 13&#45;&gt;18 -->
<g id="edge52" class="edge">
<title>13&#45;&gt;18</title>
<path fill="none" stroke="grey" stroke-width="2" d="M845.45,-218.75C804.7,-206.07 745.67,-187.71 706.65,-175.57"/>
<polygon fill="grey" stroke="grey" stroke-width="2" points="707.72,-172.24 697.13,-172.61 705.64,-178.92 707.72,-172.24"/>
</g>
<!-- 13&#45;&gt;19 -->
<g id="edge59" class="edge">
<title>13&#45;&gt;19</title>
<path fill="none" stroke="grey" stroke-width="2" d="M845.31,-226.48C749.49,-212.87 529.68,-181.66 438.76,-168.75"/>
<polygon fill="grey" stroke="grey" stroke-width="2" points="439.45,-165.31 429.06,-167.37 438.47,-172.25 439.45,-165.31"/>
</g>
<!-- 14&#45;&gt;13 -->
<g id="edge32" class="edge">
<title>14&#45;&gt;13</title>
<path fill="none" stroke="grey" stroke-width="2" d="M948.07,-287.34C939.59,-279.52 929.43,-270.16 920.06,-261.53"/>
<polygon fill="grey" stroke="grey" stroke-width="2" points="922.64,-259.15 912.91,-254.95 917.9,-264.3 922.64,-259.15"/>
</g>
<!-- 15&#45;&gt;0 -->
<g id="edge9" class="edge">
<title>15&#45;&gt;0</title>
<path fill="none" stroke="grey" stroke-width="2" d="M880.37,-143.24C885.9,-123.66 891,-92.24 875.25,-72 854.76,-45.66 761.43,-30.3 706.66,-23.4"/>
<polygon fill="grey" stroke="grey" stroke-width="2" points="707.32,-19.96 696.97,-22.23 706.48,-26.91 707.32,-19.96"/>
</g>
<!-- 15&#45;&gt;16 -->
<g id="edge41" class="edge">
<title>15&#45;&gt;16</title>
<path fill="none" stroke="grey" stroke-width="2" d="M857.34,-143.34C850.02,-135.69 841.28,-126.56 833.17,-118.08"/>
<polygon fill="grey" stroke="grey" stroke-width="2" points="835.92,-115.89 826.48,-111.09 830.86,-120.73 835.92,-115.89"/>
</g>
<!-- 16&#45;&gt;0 -->
<g id="edge1" class="edge">
<title>16&#45;&gt;0</title>
<path fill="none" stroke="grey" stroke-width="2" d="M771.3,-71.15C751.25,-61.2 726.24,-48.78 705.66,-38.57"/>
<polygon fill="grey" stroke="grey" stroke-width="2" points="707.35,-35.49 696.83,-34.18 704.23,-41.76 707.35,-35.49"/>
</g>
<!-- 17&#45;&gt;0 -->
<g id="edge6" class="edge">
<title>17&#45;&gt;0</title>
<path fill="none" stroke="grey" stroke-width="2" d="M264.19,-148C305.05,-129.35 383.79,-94.75 453.25,-72 512.32,-52.65 582.6,-36.44 625.81,-27.23"/>
<polygon fill="grey" stroke="grey" stroke-width="2" points="626.29,-30.7 635.35,-25.22 624.84,-23.85 626.29,-30.7"/>
</g>
<!-- 18&#45;&gt;0 -->
<g id="edge10" class="edge">
<title>18&#45;&gt;0</title>
<path fill="none" stroke="grey" stroke-width="2" d="M666.25,-143.02C666.25,-119.54 666.25,-78.11 666.25,-49.64"/>
<polygon fill="grey" stroke="grey" stroke-width="2" points="669.75,-49.87 666.25,-39.87 662.75,-49.87 669.75,-49.87"/>
</g>
<!-- 19&#45;&gt;0 -->
<g id="edge11" class="edge">
<title>19&#45;&gt;0</title>
<path fill="none" stroke="grey" stroke-width="2" d="M416.22,-143.01C436.86,-123.22 472.5,-91.62 508.25,-72 545.98,-51.29 593.21,-36.75 626.16,-28.21"/>
<polygon fill="grey" stroke="grey" stroke-width="2" points="626.69,-31.69 635.54,-25.86 624.98,-24.9 626.69,-31.69"/>
</g>
</g>
</svg>
