<?xml version="1.0" encoding="UTF-8" standalone="no"?>
<!DOCTYPE svg PUBLIC "-//W3C//DTD SVG 1.1//EN"
 "http://www.w3.org/Graphics/SVG/1.1/DTD/svg11.dtd">
<!-- Generated by graphviz version 7.1.0 (20230122.1345)
 -->
<!-- Title: snakemake_dag Pages: 1 -->
<svg width="1206pt" height="620pt"
 viewBox="0.00 0.00 1206.00 620.00" xmlns="http://www.w3.org/2000/svg" xmlns:xlink="http://www.w3.org/1999/xlink">
<g id="graph0" class="graph" transform="scale(1 1) rotate(0) translate(4 616)">
<title>snakemake_dag</title>
<polygon fill="white" stroke="none" points="-4,4 -4,-616 1202,-616 1202,4 -4,4"/>
<!-- 0 -->
<g id="node1" class="node">
<title>0</title>
<path fill="none" stroke="#97d856" stroke-width="2" d="M629,-36C629,-36 599,-36 599,-36 593,-36 587,-30 587,-24 587,-24 587,-12 587,-12 587,-6 593,0 599,0 599,0 629,0 629,0 635,0 641,-6 641,-12 641,-12 641,-24 641,-24 641,-30 635,-36 629,-36"/>
<text text-anchor="middle" x="614" y="-15.5" font-family="sans" font-size="10.00">all</text>
</g>
<!-- 1 -->
<g id="node2" class="node">
<title>1</title>
<path fill="none" stroke="#80d856" stroke-width="2" d="M42,-108C42,-108 12,-108 12,-108 6,-108 0,-102 0,-96 0,-96 0,-84 0,-84 0,-78 6,-72 12,-72 12,-72 42,-72 42,-72 48,-72 54,-78 54,-84 54,-84 54,-96 54,-96 54,-102 48,-108 42,-108"/>
<text text-anchor="middle" x="27" y="-87.5" font-family="sans" font-size="10.00">pycoqc</text>
</g>
<!-- 1&#45;&gt;0 -->
<g id="edge6" class="edge">
<title>1&#45;&gt;0</title>
<path fill="none" stroke="grey" stroke-width="2" d="M54.86,-76.17C59.19,-74.55 63.66,-73.08 68,-72 252.56,-25.87 481.52,-19.46 573.23,-18.87"/>
<polygon fill="grey" stroke="grey" stroke-width="2" points="573.23,-22.37 583.22,-18.83 573.2,-15.37 573.23,-22.37"/>
</g>
<!-- 2 -->
<g id="node3" class="node">
<title>2</title>
<path fill="none" stroke="#56d8b9" stroke-width="2" d="M625,-540C625,-540 551,-540 551,-540 545,-540 539,-534 539,-528 539,-528 539,-516 539,-516 539,-510 545,-504 551,-504 551,-504 625,-504 625,-504 631,-504 637,-510 637,-516 637,-516 637,-528 637,-528 637,-534 631,-540 625,-540"/>
<text text-anchor="middle" x="588" y="-519.5" font-family="sans" font-size="10.00">trimmomatic_pe</text>
</g>
<!-- 2&#45;&gt;0 -->
<g id="edge5" class="edge">
<title>2&#45;&gt;0</title>
<path fill="none" stroke="grey" stroke-width="2" d="M538.1,-517.66C410.44,-507.74 82,-473.09 82,-379 82,-379 82,-379 82,-161 82,-59.42 448.68,-28.63 573.2,-21.11"/>
<polygon fill="grey" stroke="grey" stroke-width="2" points="573.34,-24.6 583.12,-20.53 572.94,-17.61 573.34,-24.6"/>
</g>
<!-- 3 -->
<g id="node4" class="node">
<title>3</title>
<path fill="none" stroke="#56c1d8" stroke-width="2" d="M878.5,-324C878.5,-324 835.5,-324 835.5,-324 829.5,-324 823.5,-318 823.5,-312 823.5,-312 823.5,-300 823.5,-300 823.5,-294 829.5,-288 835.5,-288 835.5,-288 878.5,-288 878.5,-288 884.5,-288 890.5,-294 890.5,-300 890.5,-300 890.5,-312 890.5,-312 890.5,-318 884.5,-324 878.5,-324"/>
<text text-anchor="middle" x="857" y="-303.5" font-family="sans" font-size="10.00">polypolish</text>
</g>
<!-- 2&#45;&gt;3 -->
<g id="edge13" class="edge">
<title>2&#45;&gt;3</title>
<path fill="none" stroke="grey" stroke-width="2" d="M637.78,-510.89C668.28,-502.91 706.9,-489.47 736,-468 784.28,-432.38 780.93,-407.95 817,-360 823.1,-351.89 829.73,-343.1 835.81,-335.04"/>
<polygon fill="grey" stroke="grey" stroke-width="2" points="838.6,-337.16 841.83,-327.07 833.01,-332.94 838.6,-337.16"/>
</g>
<!-- 7 -->
<g id="node8" class="node">
<title>7</title>
<path fill="none" stroke="#ced856" stroke-width="2" d="M875.5,-396C875.5,-396 838.5,-396 838.5,-396 832.5,-396 826.5,-390 826.5,-384 826.5,-384 826.5,-372 826.5,-372 826.5,-366 832.5,-360 838.5,-360 838.5,-360 875.5,-360 875.5,-360 881.5,-360 887.5,-366 887.5,-372 887.5,-372 887.5,-384 887.5,-384 887.5,-390 881.5,-396 875.5,-396"/>
<text text-anchor="middle" x="857" y="-375.5" font-family="sans" font-size="10.00">bwaalign</text>
</g>
<!-- 2&#45;&gt;7 -->
<g id="edge18" class="edge">
<title>2&#45;&gt;7</title>
<path fill="none" stroke="grey" stroke-width="2" d="M637.95,-514.29C677.19,-507.31 732.04,-493.67 774,-468 799.55,-452.37 822.25,-426.77 837.43,-407.02"/>
<polygon fill="grey" stroke="grey" stroke-width="2" points="840.09,-409.3 843.25,-399.18 834.48,-405.12 840.09,-409.3"/>
</g>
<!-- 8 -->
<g id="node9" class="node">
<title>8</title>
<path fill="none" stroke="#d8ac56" stroke-width="2" d="M712,-180C712,-180 682,-180 682,-180 676,-180 670,-174 670,-168 670,-168 670,-156 670,-156 670,-150 676,-144 682,-144 682,-144 712,-144 712,-144 718,-144 724,-150 724,-156 724,-156 724,-168 724,-168 724,-174 718,-180 712,-180"/>
<text text-anchor="middle" x="697" y="-159.5" font-family="sans" font-size="10.00">pilon</text>
</g>
<!-- 2&#45;&gt;8 -->
<g id="edge21" class="edge">
<title>2&#45;&gt;8</title>
<path fill="none" stroke="grey" stroke-width="2" d="M600.59,-503.13C617.64,-477.1 646,-426.67 646,-379 646,-379 646,-379 646,-305 646,-264.55 650.12,-253.61 665,-216 668.26,-207.77 672.73,-199.35 677.3,-191.72"/>
<polygon fill="grey" stroke="grey" stroke-width="2" points="680.16,-193.74 682.54,-183.42 674.24,-190 680.16,-193.74"/>
</g>
<!-- 9 -->
<g id="node10" class="node">
<title>9</title>
<path fill="none" stroke="#d85656" stroke-width="2" d="M778,-252C778,-252 686,-252 686,-252 680,-252 674,-246 674,-240 674,-240 674,-228 674,-228 674,-222 680,-216 686,-216 686,-216 778,-216 778,-216 784,-216 790,-222 790,-228 790,-228 790,-240 790,-240 790,-246 784,-252 778,-252"/>
<text text-anchor="middle" x="732" y="-231.5" font-family="sans" font-size="10.00">bwaalign_polypolish</text>
</g>
<!-- 2&#45;&gt;9 -->
<g id="edge23" class="edge">
<title>2&#45;&gt;9</title>
<path fill="none" stroke="grey" stroke-width="2" d="M621.15,-503.01C634.89,-494.08 649.93,-482.17 660,-468 704.89,-404.85 722.39,-312.92 728.73,-265.63"/>
<polygon fill="grey" stroke="grey" stroke-width="2" points="732.2,-266.09 729.95,-255.73 725.25,-265.23 732.2,-266.09"/>
</g>
<!-- 10 -->
<g id="node11" class="node">
<title>10</title>
<path fill="none" stroke="#56d882" stroke-width="2" d="M467,-324C467,-324 375,-324 375,-324 369,-324 363,-318 363,-312 363,-312 363,-300 363,-300 363,-294 369,-288 375,-288 375,-288 467,-288 467,-288 473,-288 479,-294 479,-300 479,-300 479,-312 479,-312 479,-318 473,-324 467,-324"/>
<text text-anchor="middle" x="421" y="-303.5" font-family="sans" font-size="10.00">polypolish_unicycler</text>
</g>
<!-- 2&#45;&gt;10 -->
<g id="edge26" class="edge">
<title>2&#45;&gt;10</title>
<path fill="none" stroke="grey" stroke-width="2" d="M583.51,-503.03C574.73,-470.95 552.59,-403.18 513,-360 502.49,-348.54 488.91,-338.87 475.43,-331.07"/>
<polygon fill="grey" stroke="grey" stroke-width="2" points="477.32,-328.11 466.86,-326.4 473.97,-334.25 477.32,-328.11"/>
</g>
<!-- 11 -->
<g id="node12" class="node">
<title>11</title>
<path fill="none" stroke="#d88d56" stroke-width="2" d="M460.5,-468C460.5,-468 423.5,-468 423.5,-468 417.5,-468 411.5,-462 411.5,-456 411.5,-456 411.5,-444 411.5,-444 411.5,-438 417.5,-432 423.5,-432 423.5,-432 460.5,-432 460.5,-432 466.5,-432 472.5,-438 472.5,-444 472.5,-444 472.5,-456 472.5,-456 472.5,-462 466.5,-468 460.5,-468"/>
<text text-anchor="middle" x="442" y="-447.5" font-family="sans" font-size="10.00">unicycler</text>
</g>
<!-- 2&#45;&gt;11 -->
<g id="edge28" class="edge">
<title>2&#45;&gt;11</title>
<path fill="none" stroke="grey" stroke-width="2" d="M550.78,-503.15C530.63,-493.49 505.65,-481.52 484.71,-471.48"/>
<polygon fill="grey" stroke="grey" stroke-width="2" points="486.49,-468.45 475.96,-467.28 483.46,-474.76 486.49,-468.45"/>
</g>
<!-- 12 -->
<g id="node13" class="node">
<title>12</title>
<path fill="none" stroke="#56d863" stroke-width="2" d="M492,-396C492,-396 406,-396 406,-396 400,-396 394,-390 394,-384 394,-384 394,-372 394,-372 394,-366 400,-360 406,-360 406,-360 492,-360 492,-360 498,-360 504,-366 504,-372 504,-372 504,-384 504,-384 504,-390 498,-396 492,-396"/>
<text text-anchor="middle" x="449" y="-375.5" font-family="sans" font-size="10.00">bwaalign_unicycler</text>
</g>
<!-- 2&#45;&gt;12 -->
<g id="edge30" class="edge">
<title>2&#45;&gt;12</title>
<path fill="none" stroke="grey" stroke-width="2" d="M565.06,-503.22C552.75,-493.31 537.58,-480.49 525,-468 505.47,-448.62 485.34,-424.83 470.7,-406.73"/>
<polygon fill="grey" stroke="grey" stroke-width="2" points="473.64,-404.8 464.66,-399.17 468.17,-409.17 473.64,-404.8"/>
</g>
<!-- 13 -->
<g id="node14" class="node">
<title>13</title>
<path fill="none" stroke="#d8c356" stroke-width="2" d="M564,-180C564,-180 498,-180 498,-180 492,-180 486,-174 486,-168 486,-168 486,-156 486,-156 486,-150 492,-144 498,-144 498,-144 564,-144 564,-144 570,-144 576,-150 576,-156 576,-156 576,-168 576,-168 576,-174 570,-180 564,-180"/>
<text text-anchor="middle" x="531" y="-159.5" font-family="sans" font-size="10.00">pilon_unicycler</text>
</g>
<!-- 2&#45;&gt;13 -->
<g id="edge33" class="edge">
<title>2&#45;&gt;13</title>
<path fill="none" stroke="grey" stroke-width="2" d="M538.35,-513.73C432.87,-496.88 196,-451.02 196,-379 196,-379 196,-379 196,-305 196,-186.45 376.04,-165.4 472.15,-162.61"/>
<polygon fill="grey" stroke="grey" stroke-width="2" points="472.17,-166.11 482.1,-162.4 472.02,-159.11 472.17,-166.11"/>
</g>
<!-- 14 -->
<g id="node15" class="node">
<title>14</title>
<path fill="none" stroke="#5673d8" stroke-width="2" d="M492,-252C492,-252 350,-252 350,-252 344,-252 338,-246 338,-240 338,-240 338,-228 338,-228 338,-222 344,-216 350,-216 350,-216 492,-216 492,-216 498,-216 504,-222 504,-228 504,-228 504,-240 504,-240 504,-246 498,-252 492,-252"/>
<text text-anchor="middle" x="421" y="-231.5" font-family="sans" font-size="10.00">bwaalign_polypolish_unicycler</text>
</g>
<!-- 2&#45;&gt;14 -->
<g id="edge35" class="edge">
<title>2&#45;&gt;14</title>
<path fill="none" stroke="grey" stroke-width="2" d="M588.55,-503.19C588.61,-484.92 587.34,-455.87 580,-432 557.67,-359.41 540.51,-342.86 488,-288 478.69,-278.28 467.57,-268.79 457.08,-260.59"/>
<polygon fill="grey" stroke="grey" stroke-width="2" points="459.39,-257.94 449.3,-254.69 455.15,-263.52 459.39,-257.94"/>
</g>
<!-- 3&#45;&gt;0 -->
<g id="edge8" class="edge">
<title>3&#45;&gt;0</title>
<path fill="none" stroke="grey" stroke-width="2" d="M891.28,-298.03C916.61,-290.97 949.58,-277.33 967,-252 1012.42,-185.96 1030.43,-132.62 978,-72 936.56,-24.09 740.75,-18.61 654.71,-18.57"/>
<polygon fill="grey" stroke="grey" stroke-width="2" points="654.91,-15.06 644.92,-18.59 654.92,-22.06 654.91,-15.06"/>
</g>
<!-- 3&#45;&gt;8 -->
<g id="edge19" class="edge">
<title>3&#45;&gt;8</title>
<path fill="none" stroke="grey" stroke-width="2" d="M856.53,-287.06C855.08,-267.32 849.87,-235.76 832,-216 807.58,-189 767.67,-175.59 737.57,-169.03"/>
<polygon fill="grey" stroke="grey" stroke-width="2" points="738.39,-165.63 727.9,-167.14 737.04,-172.5 738.39,-165.63"/>
</g>
<!-- 3&#45;&gt;9 -->
<g id="edge22" class="edge">
<title>3&#45;&gt;9</title>
<path fill="none" stroke="grey" stroke-width="2" d="M825.13,-287.15C809.85,-278.6 791.33,-268.22 774.84,-258.99"/>
<polygon fill="grey" stroke="grey" stroke-width="2" points="776.88,-256.12 766.45,-254.29 773.46,-262.23 776.88,-256.12"/>
</g>
<!-- 15 -->
<g id="node16" class="node">
<title>15</title>
<path fill="none" stroke="#56d89a" stroke-width="2" d="M957,-108C957,-108 927,-108 927,-108 921,-108 915,-102 915,-96 915,-96 915,-84 915,-84 915,-78 921,-72 927,-72 927,-72 957,-72 957,-72 963,-72 969,-78 969,-84 969,-84 969,-96 969,-96 969,-102 963,-108 957,-108"/>
<text text-anchor="middle" x="942" y="-87.5" font-family="sans" font-size="10.00">prokka</text>
</g>
<!-- 3&#45;&gt;15 -->
<g id="edge40" class="edge">
<title>3&#45;&gt;15</title>
<path fill="none" stroke="grey" stroke-width="2" d="M891.16,-294.27C910.97,-286.08 934.27,-272.64 946,-252 969.05,-211.44 960.36,-155.36 951.5,-121.22"/>
<polygon fill="grey" stroke="grey" stroke-width="2" points="954.93,-120.47 948.86,-111.79 948.19,-122.36 954.93,-120.47"/>
</g>
<!-- 16 -->
<g id="node17" class="node">
<title>16</title>
<path fill="none" stroke="#56d8d0" stroke-width="2" d="M657,-108C657,-108 627,-108 627,-108 621,-108 615,-102 615,-96 615,-96 615,-84 615,-84 615,-78 621,-72 627,-72 627,-72 657,-72 657,-72 663,-72 669,-78 669,-84 669,-84 669,-96 669,-96 669,-102 663,-108 657,-108"/>
<text text-anchor="middle" x="642" y="-87.5" font-family="sans" font-size="10.00">quast</text>
</g>
<!-- 3&#45;&gt;16 -->
<g id="edge47" class="edge">
<title>3&#45;&gt;16</title>
<path fill="none" stroke="grey" stroke-width="2" d="M861.64,-287.27C865.56,-268.28 868.73,-237.91 856,-216 818.43,-151.31 733.18,-116.83 682.35,-101.37"/>
<polygon fill="grey" stroke="grey" stroke-width="2" points="683.4,-98.03 672.82,-98.6 681.44,-104.75 683.4,-98.03"/>
</g>
<!-- 17 -->
<g id="node18" class="node">
<title>17</title>
<path fill="none" stroke="#d87556" stroke-width="2" d="M454,-108C454,-108 424,-108 424,-108 418,-108 412,-102 412,-96 412,-96 412,-84 412,-84 412,-78 418,-72 424,-72 424,-72 454,-72 454,-72 460,-72 466,-78 466,-84 466,-84 466,-96 466,-96 466,-102 460,-108 454,-108"/>
<text text-anchor="middle" x="439" y="-87.5" font-family="sans" font-size="10.00">busco</text>
</g>
<!-- 3&#45;&gt;17 -->
<g id="edge54" class="edge">
<title>3&#45;&gt;17</title>
<path fill="none" stroke="grey" stroke-width="2" d="M847.81,-287.25C835.3,-263.83 812.9,-224.56 799,-216 676.41,-140.45 592.56,-265.92 477,-180 458.4,-166.17 448.81,-141.4 443.92,-121.49"/>
<polygon fill="grey" stroke="grey" stroke-width="2" points="447.4,-121.01 441.91,-111.94 440.55,-122.45 447.4,-121.01"/>
</g>
<!-- 4 -->
<g id="node5" class="node">
<title>4</title>
<path fill="none" stroke="#61d856" stroke-width="2" d="M970,-468C970,-468 938,-468 938,-468 932,-468 926,-462 926,-456 926,-456 926,-444 926,-444 926,-438 932,-432 938,-432 938,-432 970,-432 970,-432 976,-432 982,-438 982,-444 982,-444 982,-456 982,-456 982,-462 976,-468 970,-468"/>
<text text-anchor="middle" x="954" y="-447.5" font-family="sans" font-size="10.00">medaka</text>
</g>
<!-- 4&#45;&gt;3 -->
<g id="edge11" class="edge">
<title>4&#45;&gt;3</title>
<path fill="none" stroke="grey" stroke-width="2" d="M952.7,-431.15C950.55,-412.06 944.89,-381.62 930,-360 922.6,-349.26 912.3,-339.9 901.76,-332.16"/>
<polygon fill="grey" stroke="grey" stroke-width="2" points="903.97,-329.43 893.74,-326.68 900.02,-335.21 903.97,-329.43"/>
</g>
<!-- 4&#45;&gt;7 -->
<g id="edge17" class="edge">
<title>4&#45;&gt;7</title>
<path fill="none" stroke="grey" stroke-width="2" d="M929.27,-431.15C917.98,-423.01 904.41,-413.22 892.1,-404.33"/>
<polygon fill="grey" stroke="grey" stroke-width="2" points="894.29,-401.6 884.14,-398.58 890.2,-407.27 894.29,-401.6"/>
</g>
<!-- 4&#45;&gt;15 -->
<g id="edge38" class="edge">
<title>4&#45;&gt;15</title>
<path fill="none" stroke="grey" stroke-width="2" d="M979.48,-431.26C1045.85,-382.92 1213.64,-245.7 1136,-144 1117.47,-119.73 1033.73,-103.89 982.52,-96.28"/>
<polygon fill="grey" stroke="grey" stroke-width="2" points="983.03,-92.82 972.63,-94.87 982.04,-99.75 983.03,-92.82"/>
</g>
<!-- 4&#45;&gt;16 -->
<g id="edge45" class="edge">
<title>4&#45;&gt;16</title>
<path fill="none" stroke="grey" stroke-width="2" d="M955.99,-431.27C957.48,-413.06 958.32,-384.07 952,-360 923.37,-250.96 912.03,-207.69 819,-144 777.45,-115.55 720.29,-102.06 682.3,-95.88"/>
<polygon fill="grey" stroke="grey" stroke-width="2" points="683.12,-92.47 672.71,-94.44 682.08,-99.39 683.12,-92.47"/>
</g>
<!-- 4&#45;&gt;17 -->
<g id="edge52" class="edge">
<title>4&#45;&gt;17</title>
<path fill="none" stroke="grey" stroke-width="2" d="M946.47,-431.3C937.23,-411.47 919.8,-379.55 896,-360 875.27,-342.98 464.12,-201.44 448,-180 435.67,-163.6 433.67,-140.42 434.62,-121.83"/>
<polygon fill="grey" stroke="grey" stroke-width="2" points="438.09,-122.27 435.5,-111.99 431.12,-121.64 438.09,-122.27"/>
</g>
<!-- 5 -->
<g id="node6" class="node">
<title>5</title>
<path fill="none" stroke="#56a9d8" stroke-width="2" d="M971,-612C971,-612 881,-612 881,-612 875,-612 869,-606 869,-600 869,-600 869,-588 869,-588 869,-582 875,-576 881,-576 881,-576 971,-576 971,-576 977,-576 983,-582 983,-588 983,-588 983,-600 983,-600 983,-606 977,-612 971,-612"/>
<text text-anchor="middle" x="926" y="-591.5" font-family="sans" font-size="10.00">trim_nano_adaptors</text>
</g>
<!-- 5&#45;&gt;4 -->
<g id="edge14" class="edge">
<title>5&#45;&gt;4</title>
<path fill="none" stroke="grey" stroke-width="2" d="M929.55,-575.02C934.2,-551.44 942.42,-509.73 948.04,-481.25"/>
<polygon fill="grey" stroke="grey" stroke-width="2" points="951.4,-482.3 949.9,-471.81 944.53,-480.94 951.4,-482.3"/>
</g>
<!-- 6 -->
<g id="node7" class="node">
<title>6</title>
<path fill="none" stroke="#568ad8" stroke-width="2" d="M996,-540C996,-540 966,-540 966,-540 960,-540 954,-534 954,-528 954,-528 954,-516 954,-516 954,-510 960,-504 966,-504 966,-504 996,-504 996,-504 1002,-504 1008,-510 1008,-516 1008,-516 1008,-528 1008,-528 1008,-534 1002,-540 996,-540"/>
<text text-anchor="middle" x="981" y="-519.5" font-family="sans" font-size="10.00">flye</text>
</g>
<!-- 5&#45;&gt;6 -->
<g id="edge16" class="edge">
<title>5&#45;&gt;6</title>
<path fill="none" stroke="grey" stroke-width="2" d="M939.88,-575.34C945.7,-567.93 952.6,-559.14 959.08,-550.9"/>
<polygon fill="grey" stroke="grey" stroke-width="2" points="961.64,-553.31 965.06,-543.28 956.13,-548.98 961.64,-553.31"/>
</g>
<!-- 5&#45;&gt;11 -->
<g id="edge27" class="edge">
<title>5&#45;&gt;11</title>
<path fill="none" stroke="grey" stroke-width="2" d="M868.24,-589.85C773.09,-583.9 588.13,-568.95 530,-540 501.97,-526.04 477.61,-499.6 461.68,-479.15"/>
<polygon fill="grey" stroke="grey" stroke-width="2" points="464.54,-477.13 455.74,-471.23 458.94,-481.33 464.54,-477.13"/>
</g>
<!-- 6&#45;&gt;4 -->
<g id="edge15" class="edge">
<title>6&#45;&gt;4</title>
<path fill="none" stroke="grey" stroke-width="2" d="M974.19,-503.34C971.55,-496.51 968.46,-488.5 965.51,-480.83"/>
<polygon fill="grey" stroke="grey" stroke-width="2" points="968.86,-479.8 961.99,-471.73 962.33,-482.32 968.86,-479.8"/>
</g>
<!-- 6&#45;&gt;15 -->
<g id="edge39" class="edge">
<title>6&#45;&gt;15</title>
<path fill="none" stroke="grey" stroke-width="2" d="M1008.92,-516.25C1067.53,-504.52 1198,-468.37 1198,-379 1198,-379 1198,-379 1198,-233 1198,-189.63 1191.32,-171.76 1158,-144 1131.55,-121.97 1037.17,-104.92 982.31,-96.6"/>
<polygon fill="grey" stroke="grey" stroke-width="2" points="983,-93.16 972.6,-95.16 981.98,-100.08 983,-93.16"/>
</g>
<!-- 6&#45;&gt;16 -->
<g id="edge46" class="edge">
<title>6&#45;&gt;16</title>
<path fill="none" stroke="grey" stroke-width="2" d="M1008.86,-508.45C1049.95,-487.82 1122,-442.58 1122,-379 1122,-379 1122,-379 1122,-305 1122,-113.23 798.45,-92.1 682.63,-90.68"/>
<polygon fill="grey" stroke="grey" stroke-width="2" points="682.93,-87.18 672.91,-90.62 682.88,-94.18 682.93,-87.18"/>
</g>
<!-- 6&#45;&gt;17 -->
<g id="edge53" class="edge">
<title>6&#45;&gt;17</title>
<path fill="none" stroke="grey" stroke-width="2" d="M953.14,-519.24C840.6,-512.05 424.56,-484.44 402,-468 305.64,-397.78 288.73,-333.32 310,-216 316.1,-182.37 314.33,-169.58 337,-144 353.52,-125.36 378.17,-112.3 399.11,-103.81"/>
<polygon fill="grey" stroke="grey" stroke-width="2" points="400.29,-107.1 408.4,-100.29 397.81,-100.55 400.29,-107.1"/>
</g>
<!-- 7&#45;&gt;3 -->
<g id="edge12" class="edge">
<title>7&#45;&gt;3</title>
<path fill="none" stroke="grey" stroke-width="2" d="M857,-359.34C857,-352.75 857,-345.08 857,-337.67"/>
<polygon fill="grey" stroke="grey" stroke-width="2" points="860.5,-337.93 857,-327.93 853.5,-337.93 860.5,-337.93"/>
</g>
<!-- 8&#45;&gt;0 -->
<g id="edge9" class="edge">
<title>8&#45;&gt;0</title>
<path fill="none" stroke="grey" stroke-width="2" d="M696.58,-143.02C695.4,-124.08 691.35,-94.03 678,-72 671.4,-61.1 661.73,-51.42 651.91,-43.4"/>
<polygon fill="grey" stroke="grey" stroke-width="2" points="654.22,-40.76 644.14,-37.51 649.99,-46.34 654.22,-40.76"/>
</g>
<!-- 8&#45;&gt;15 -->
<g id="edge41" class="edge">
<title>8&#45;&gt;15</title>
<path fill="none" stroke="grey" stroke-width="2" d="M724.63,-153.11C767.91,-140.74 851.92,-116.74 901.88,-102.46"/>
<polygon fill="grey" stroke="grey" stroke-width="2" points="902.53,-105.92 911.19,-99.8 900.61,-99.19 902.53,-105.92"/>
</g>
<!-- 8&#45;&gt;16 -->
<g id="edge48" class="edge">
<title>8&#45;&gt;16</title>
<path fill="none" stroke="grey" stroke-width="2" d="M683.12,-143.34C677.3,-135.93 670.4,-127.14 663.92,-118.9"/>
<polygon fill="grey" stroke="grey" stroke-width="2" points="666.87,-116.98 657.94,-111.28 661.36,-121.31 666.87,-116.98"/>
</g>
<!-- 8&#45;&gt;17 -->
<g id="edge55" class="edge">
<title>8&#45;&gt;17</title>
<path fill="none" stroke="grey" stroke-width="2" d="M669.39,-153.51C623.63,-141.09 531.91,-116.21 479.04,-101.86"/>
<polygon fill="grey" stroke="grey" stroke-width="2" points="480.29,-98.58 469.72,-99.34 478.46,-105.33 480.29,-98.58"/>
</g>
<!-- 9&#45;&gt;8 -->
<g id="edge20" class="edge">
<title>9&#45;&gt;8</title>
<path fill="none" stroke="grey" stroke-width="2" d="M723.17,-215.34C719.67,-208.34 715.56,-200.12 711.64,-192.28"/>
<polygon fill="grey" stroke="grey" stroke-width="2" points="714.91,-190.99 707.3,-183.61 708.65,-194.12 714.91,-190.99"/>
</g>
<!-- 10&#45;&gt;0 -->
<g id="edge3" class="edge">
<title>10&#45;&gt;0</title>
<path fill="none" stroke="grey" stroke-width="2" d="M362.02,-290.77C341.99,-282.82 321.73,-270.6 310,-252 283.61,-210.15 311.12,-186.17 337,-144 359.7,-107 365.71,-94.22 403,-72 456.51,-40.11 528.66,-27.31 573.21,-22.24"/>
<polygon fill="grey" stroke="grey" stroke-width="2" points="573.51,-25.73 583.09,-21.22 572.78,-18.77 573.51,-25.73"/>
</g>
<!-- 10&#45;&gt;13 -->
<g id="edge31" class="edge">
<title>10&#45;&gt;13</title>
<path fill="none" stroke="grey" stroke-width="2" d="M369.45,-287.23C353.64,-279.07 338.04,-267.64 329,-252 320.99,-238.15 319.23,-228.67 329,-216 346.49,-193.33 419.32,-178.45 472.52,-170.39"/>
<polygon fill="grey" stroke="grey" stroke-width="2" points="472.86,-173.88 482.25,-168.97 471.85,-166.95 472.86,-173.88"/>
</g>
<!-- 10&#45;&gt;14 -->
<g id="edge34" class="edge">
<title>10&#45;&gt;14</title>
<path fill="none" stroke="grey" stroke-width="2" d="M421,-287.34C421,-280.75 421,-273.08 421,-265.67"/>
<polygon fill="grey" stroke="grey" stroke-width="2" points="424.5,-265.93 421,-255.93 417.5,-265.93 424.5,-265.93"/>
</g>
<!-- 10&#45;&gt;15 -->
<g id="edge37" class="edge">
<title>10&#45;&gt;15</title>
<path fill="none" stroke="grey" stroke-width="2" d="M479.63,-301.71C571.63,-295.74 744.97,-280.95 799,-252 856.54,-221.17 902.11,-157.5 925.27,-120.13"/>
<polygon fill="grey" stroke="grey" stroke-width="2" points="928.26,-121.96 930.43,-111.59 922.27,-118.34 928.26,-121.96"/>
</g>
<!-- 10&#45;&gt;16 -->
<g id="edge44" class="edge">
<title>10&#45;&gt;16</title>
<path fill="none" stroke="grey" stroke-width="2" d="M456.89,-287.18C474.49,-277.74 495.59,-265.35 513,-252 548.92,-224.47 556.63,-215.26 585,-180 600.21,-161.09 614.92,-137.97 625.58,-120.03"/>
<polygon fill="grey" stroke="grey" stroke-width="2" points="628.58,-121.83 630.6,-111.43 622.54,-118.31 628.58,-121.83"/>
</g>
<!-- 10&#45;&gt;17 -->
<g id="edge51" class="edge">
<title>10&#45;&gt;17</title>
<path fill="none" stroke="grey" stroke-width="2" d="M362.12,-287.58C345.25,-279.56 328.79,-268.12 319,-252 310.69,-238.32 313.03,-230.84 319,-216 335.7,-174.49 373.5,-139.02 402.25,-116.58"/>
<polygon fill="grey" stroke="grey" stroke-width="2" points="404.1,-119.57 409.96,-110.75 399.87,-113.99 404.1,-119.57"/>
</g>
<!-- 11&#45;&gt;10 -->
<g id="edge25" class="edge">
<title>11&#45;&gt;10</title>
<path fill="none" stroke="grey" stroke-width="2" d="M414.52,-431.21C403.13,-422.18 391.15,-410.12 385,-396 378.61,-381.33 380.3,-375.29 385,-360 387.68,-351.29 392.33,-342.72 397.42,-335.1"/>
<polygon fill="grey" stroke="grey" stroke-width="2" points="400.16,-337.29 403.23,-327.15 394.51,-333.16 400.16,-337.29"/>
</g>
<!-- 11&#45;&gt;12 -->
<g id="edge29" class="edge">
<title>11&#45;&gt;12</title>
<path fill="none" stroke="grey" stroke-width="2" d="M443.77,-431.34C444.42,-424.75 445.19,-417.08 445.93,-409.67"/>
<polygon fill="grey" stroke="grey" stroke-width="2" points="449.4,-410.21 446.91,-399.91 442.43,-409.52 449.4,-410.21"/>
</g>
<!-- 11&#45;&gt;15 -->
<g id="edge36" class="edge">
<title>11&#45;&gt;15</title>
<path fill="none" stroke="grey" stroke-width="2" d="M473.47,-442.71C564.25,-424.22 824.85,-368.49 899,-324 936.74,-301.35 949.05,-292.19 967,-252 986.6,-208.1 985.57,-190.4 973,-144 970.7,-135.53 966.68,-127.02 962.27,-119.38"/>
<polygon fill="grey" stroke="grey" stroke-width="2" points="965.37,-117.73 957.08,-111.13 959.44,-121.46 965.37,-117.73"/>
</g>
<!-- 11&#45;&gt;16 -->
<g id="edge43" class="edge">
<title>11&#45;&gt;16</title>
<path fill="none" stroke="grey" stroke-width="2" d="M472.96,-431.15C486.65,-422.03 502.09,-409.92 513,-396 581.46,-308.66 620.02,-179.63 634.85,-121.43"/>
<polygon fill="grey" stroke="grey" stroke-width="2" points="638.23,-122.35 637.24,-111.8 631.44,-120.67 638.23,-122.35"/>
</g>
<!-- 11&#45;&gt;17 -->
<g id="edge50" class="edge">
<title>11&#45;&gt;17</title>
<path fill="none" stroke="grey" stroke-width="2" d="M410.74,-441.4C327.89,-419.37 111.2,-348.43 144,-216 152.7,-180.88 153.07,-165.73 182,-144 215.75,-118.65 335.31,-102.23 398.76,-95.09"/>
<polygon fill="grey" stroke="grey" stroke-width="2" points="398.83,-98.61 408.39,-94.04 398.07,-91.65 398.83,-98.61"/>
</g>
<!-- 12&#45;&gt;10 -->
<g id="edge24" class="edge">
<title>12&#45;&gt;10</title>
<path fill="none" stroke="grey" stroke-width="2" d="M441.93,-359.34C439.2,-352.51 436,-344.5 432.93,-336.83"/>
<polygon fill="grey" stroke="grey" stroke-width="2" points="436.25,-335.7 429.28,-327.71 429.75,-338.3 436.25,-335.7"/>
</g>
<!-- 13&#45;&gt;0 -->
<g id="edge10" class="edge">
<title>13&#45;&gt;0</title>
<path fill="none" stroke="grey" stroke-width="2" d="M541.51,-143.02C555.54,-119.01 580.56,-76.21 597.21,-47.72"/>
<polygon fill="grey" stroke="grey" stroke-width="2" points="600.02,-49.85 602.05,-39.45 593.98,-46.32 600.02,-49.85"/>
</g>
<!-- 13&#45;&gt;15 -->
<g id="edge42" class="edge">
<title>13&#45;&gt;15</title>
<path fill="none" stroke="grey" stroke-width="2" d="M576.95,-153.17C657.94,-139.38 824.78,-110.96 901.63,-97.88"/>
<polygon fill="grey" stroke="grey" stroke-width="2" points="901.77,-101.4 911.04,-96.27 900.6,-94.5 901.77,-101.4"/>
</g>
<!-- 13&#45;&gt;16 -->
<g id="edge49" class="edge">
<title>13&#45;&gt;16</title>
<path fill="none" stroke="grey" stroke-width="2" d="M559.3,-143.15C572.71,-134.7 588.93,-124.47 603.45,-115.31"/>
<polygon fill="grey" stroke="grey" stroke-width="2" points="604.99,-118.48 611.58,-110.18 601.25,-112.56 604.99,-118.48"/>
</g>
<!-- 13&#45;&gt;17 -->
<g id="edge56" class="edge">
<title>13&#45;&gt;17</title>
<path fill="none" stroke="grey" stroke-width="2" d="M507.78,-143.34C497.19,-135.27 484.43,-125.57 472.8,-116.72"/>
<polygon fill="grey" stroke="grey" stroke-width="2" points="475.01,-114 464.94,-110.73 470.78,-119.58 475.01,-114"/>
</g>
<!-- 14&#45;&gt;13 -->
<g id="edge32" class="edge">
<title>14&#45;&gt;13</title>
<path fill="none" stroke="grey" stroke-width="2" d="M449.04,-215.15C462.1,-206.84 477.85,-196.82 492.04,-187.79"/>
<polygon fill="grey" stroke="grey" stroke-width="2" points="493.9,-190.76 500.46,-182.44 490.14,-184.85 493.9,-190.76"/>
</g>
<!-- 15&#45;&gt;0 -->
<g id="edge4" class="edge">
<title>15&#45;&gt;0</title>
<path fill="none" stroke="grey" stroke-width="2" d="M914.03,-83.03C855.94,-70.63 721.99,-42.05 654.47,-27.64"/>
<polygon fill="grey" stroke="grey" stroke-width="2" points="655.37,-24.25 644.85,-25.58 653.9,-31.09 655.37,-24.25"/>
</g>
<!-- 16&#45;&gt;0 -->
<g id="edge7" class="edge">
<title>16&#45;&gt;0</title>
<path fill="none" stroke="grey" stroke-width="2" d="M634.93,-71.34C632.2,-64.51 629,-56.5 625.93,-48.83"/>
<polygon fill="grey" stroke="grey" stroke-width="2" points="629.25,-47.7 622.28,-39.71 622.75,-50.3 629.25,-47.7"/>
</g>
<!-- 17&#45;&gt;0 -->
<g id="edge1" class="edge">
<title>17&#45;&gt;0</title>
<path fill="none" stroke="grey" stroke-width="2" d="M466.73,-77.91C495.7,-66.32 541.42,-48.03 574.23,-34.91"/>
<polygon fill="grey" stroke="grey" stroke-width="2" points="575.32,-38.24 583.3,-31.28 572.72,-31.74 575.32,-38.24"/>
</g>
<!-- 18 -->
<g id="node19" class="node">
<title>18</title>
<path fill="none" stroke="#b6d856" stroke-width="2" d="M1116,-108C1116,-108 1086,-108 1086,-108 1080,-108 1074,-102 1074,-96 1074,-96 1074,-84 1074,-84 1074,-78 1080,-72 1086,-72 1086,-72 1116,-72 1116,-72 1122,-72 1128,-78 1128,-84 1128,-84 1128,-96 1128,-96 1128,-102 1122,-108 1116,-108"/>
<text text-anchor="middle" x="1101" y="-87.5" font-family="sans" font-size="10.00">multiqc</text>
</g>
<!-- 18&#45;&gt;0 -->
<g id="edge2" class="edge">
<title>18&#45;&gt;0</title>
<path fill="none" stroke="grey" stroke-width="2" d="M1073.12,-76.25C1068.79,-74.62 1064.32,-73.13 1060,-72 913.98,-33.83 733.81,-23.08 654.6,-20.11"/>
<polygon fill="grey" stroke="grey" stroke-width="2" points="655.04,-16.62 644.92,-19.77 654.79,-23.62 655.04,-16.62"/>
</g>
</g>
</svg>
