<?xml version="1.0" encoding="UTF-8" standalone="no"?>
<!DOCTYPE svg PUBLIC "-//W3C//DTD SVG 1.1//EN"
 "http://www.w3.org/Graphics/SVG/1.1/DTD/svg11.dtd">
<!-- Generated by graphviz version 2.40.1 (0)
 -->
<!-- Title: snakemake_dag Pages: 1 -->
<svg width="740pt" height="481pt"
 viewBox="0.00 0.00 740.00 481.00" xmlns="http://www.w3.org/2000/svg" xmlns:xlink="http://www.w3.org/1999/xlink">
<g id="graph0" class="graph" transform="scale(1 1) rotate(0) translate(4 477)">
<title>snakemake_dag</title>
<polygon fill="#ffffff" stroke="transparent" points="-4,4 -4,-477 736,-477 736,4 -4,4"/>
<!-- 0 -->
<g id="node1" class="node">
<title>0</title>
<path fill="none" stroke="#78d856" stroke-width="2" stroke-dasharray="5,2" d="M456,-36C456,-36 426,-36 426,-36 420,-36 414,-30 414,-24 414,-24 414,-12 414,-12 414,-6 420,0 426,0 426,0 456,0 456,0 462,0 468,-6 468,-12 468,-12 468,-24 468,-24 468,-30 462,-36 456,-36"/>
<text text-anchor="middle" x="441" y="-15.5" font-family="sans" font-size="10.00" fill="#000000">all</text>
</g>
<!-- 1 -->
<g id="node2" class="node">
<title>1</title>
<path fill="none" stroke="#d8a456" stroke-width="2" stroke-dasharray="5,2" d="M274,-108C274,-108 12,-108 12,-108 6,-108 0,-102 0,-96 0,-96 0,-84 0,-84 0,-78 6,-72 12,-72 12,-72 274,-72 274,-72 280,-72 286,-78 286,-84 286,-84 286,-96 286,-96 286,-102 280,-108 274,-108"/>
<text text-anchor="middle" x="143" y="-93" font-family="sans" font-size="10.00" fill="#000000">pycoqc</text>
<text text-anchor="middle" x="143" y="-82" font-family="sans" font-size="10.00" fill="#000000">prefix: 20210107_2213_MN35107_FAO13840_83e8e224</text>
</g>
<!-- 1&#45;&gt;0 -->
<g id="edge1" class="edge">
<title>1&#45;&gt;0</title>
<path fill="none" stroke="#c0c0c0" stroke-width="2" d="M217.8133,-71.9243C277.1193,-57.5953 357.4774,-38.18 403.8308,-26.9805"/>
<polygon fill="#c0c0c0" stroke="#c0c0c0" stroke-width="2" points="404.8424,-30.3369 413.7407,-24.5861 403.1984,-23.5326 404.8424,-30.3369"/>
</g>
<!-- 2 -->
<g id="node3" class="node">
<title>2</title>
<path fill="none" stroke="#d87d56" stroke-width="2" stroke-dasharray="5,2" d="M467.5,-401C467.5,-401 378.5,-401 378.5,-401 372.5,-401 366.5,-395 366.5,-389 366.5,-389 366.5,-372 366.5,-372 366.5,-366 372.5,-360 378.5,-360 378.5,-360 467.5,-360 467.5,-360 473.5,-360 479.5,-366 479.5,-372 479.5,-372 479.5,-389 479.5,-389 479.5,-395 473.5,-401 467.5,-401"/>
<text text-anchor="middle" x="423" y="-389" font-family="sans" font-size="10.00" fill="#000000">trimmomatic_pe</text>
<text text-anchor="middle" x="423" y="-378" font-family="sans" font-size="10.00" fill="#000000">barcode: barcode01</text>
<text text-anchor="middle" x="423" y="-367" font-family="sans" font-size="10.00" fill="#000000">sample: 309a</text>
</g>
<!-- 2&#45;&gt;0 -->
<g id="edge2" class="edge">
<title>2&#45;&gt;0</title>
<path fill="none" stroke="#c0c0c0" stroke-width="2" d="M479.6754,-366.0143C568.881,-341.5314 732,-289.2139 732,-234 732,-234 732,-234 732,-162 732,-105.9636 556.4716,-50.1095 478.0642,-27.9552"/>
<polygon fill="#c0c0c0" stroke="#c0c0c0" stroke-width="2" points="478.6881,-24.4956 468.1153,-25.1779 476.806,-31.2378 478.6881,-24.4956"/>
</g>
<!-- 3 -->
<g id="node4" class="node">
<title>3</title>
<path fill="none" stroke="#d8c356" stroke-width="2" stroke-dasharray="5,2" d="M335.5,-180C335.5,-180 292.5,-180 292.5,-180 286.5,-180 280.5,-174 280.5,-168 280.5,-168 280.5,-156 280.5,-156 280.5,-150 286.5,-144 292.5,-144 292.5,-144 335.5,-144 335.5,-144 341.5,-144 347.5,-150 347.5,-156 347.5,-156 347.5,-168 347.5,-168 347.5,-174 341.5,-180 335.5,-180"/>
<text text-anchor="middle" x="314" y="-159.5" font-family="sans" font-size="10.00" fill="#000000">polypolish</text>
</g>
<!-- 2&#45;&gt;3 -->
<g id="edge8" class="edge">
<title>2&#45;&gt;3</title>
<path fill="none" stroke="#c0c0c0" stroke-width="2" d="M412.7455,-359.9441C392.9962,-320.3547 349.6846,-233.5328 327.5724,-189.207"/>
<polygon fill="#c0c0c0" stroke="#c0c0c0" stroke-width="2" points="330.6609,-187.5576 323.065,-180.1716 324.3971,-190.6824 330.6609,-187.5576"/>
</g>
<!-- 7 -->
<g id="node8" class="node">
<title>7</title>
<path fill="none" stroke="#9fd856" stroke-width="2" stroke-dasharray="5,2" d="M297.5,-252C297.5,-252 260.5,-252 260.5,-252 254.5,-252 248.5,-246 248.5,-240 248.5,-240 248.5,-228 248.5,-228 248.5,-222 254.5,-216 260.5,-216 260.5,-216 297.5,-216 297.5,-216 303.5,-216 309.5,-222 309.5,-228 309.5,-228 309.5,-240 309.5,-240 309.5,-246 303.5,-252 297.5,-252"/>
<text text-anchor="middle" x="279" y="-231.5" font-family="sans" font-size="10.00" fill="#000000">bwaalign</text>
</g>
<!-- 2&#45;&gt;7 -->
<g id="edge14" class="edge">
<title>2&#45;&gt;7</title>
<path fill="none" stroke="#c0c0c0" stroke-width="2" d="M374.1971,-359.9422C356.7745,-350.8413 338.0117,-338.8037 324,-324 307.127,-306.1733 295.2197,-280.8031 287.9101,-261.5403"/>
<polygon fill="#c0c0c0" stroke="#c0c0c0" stroke-width="2" points="291.1893,-260.3161 284.5048,-252.0961 284.6043,-262.6905 291.1893,-260.3161"/>
</g>
<!-- 8 -->
<g id="node9" class="node">
<title>8</title>
<path fill="none" stroke="#56c9d8" stroke-width="2" stroke-dasharray="5,2" d="M582,-180C582,-180 490,-180 490,-180 484,-180 478,-174 478,-168 478,-168 478,-156 478,-156 478,-150 484,-144 490,-144 490,-144 582,-144 582,-144 588,-144 594,-150 594,-156 594,-156 594,-168 594,-168 594,-174 588,-180 582,-180"/>
<text text-anchor="middle" x="536" y="-159.5" font-family="sans" font-size="10.00" fill="#000000">polypolish_unicycler</text>
</g>
<!-- 2&#45;&gt;8 -->
<g id="edge16" class="edge">
<title>2&#45;&gt;8</title>
<path fill="none" stroke="#c0c0c0" stroke-width="2" d="M425.094,-359.9108C429.2465,-327.0773 440.8856,-261.8901 471,-216 478.3675,-204.7731 488.776,-194.6711 499.1091,-186.325"/>
<polygon fill="#c0c0c0" stroke="#c0c0c0" stroke-width="2" points="501.5204,-188.8863 507.3204,-180.02 497.2572,-183.3342 501.5204,-188.8863"/>
</g>
<!-- 9 -->
<g id="node10" class="node">
<title>9</title>
<path fill="none" stroke="#56d8c9" stroke-width="2" stroke-dasharray="5,2" d="M553.5,-324C553.5,-324 516.5,-324 516.5,-324 510.5,-324 504.5,-318 504.5,-312 504.5,-312 504.5,-300 504.5,-300 504.5,-294 510.5,-288 516.5,-288 516.5,-288 553.5,-288 553.5,-288 559.5,-288 565.5,-294 565.5,-300 565.5,-300 565.5,-312 565.5,-312 565.5,-318 559.5,-324 553.5,-324"/>
<text text-anchor="middle" x="535" y="-303.5" font-family="sans" font-size="10.00" fill="#000000">unicycler</text>
</g>
<!-- 2&#45;&gt;9 -->
<g id="edge19" class="edge">
<title>2&#45;&gt;9</title>
<path fill="none" stroke="#c0c0c0" stroke-width="2" d="M453.901,-359.9453C467.8422,-350.6719 484.4001,-339.658 498.9084,-330.0074"/>
<polygon fill="#c0c0c0" stroke="#c0c0c0" stroke-width="2" points="501.2475,-332.6551 507.6353,-324.2024 497.3706,-326.8267 501.2475,-332.6551"/>
</g>
<!-- 10 -->
<g id="node11" class="node">
<title>10</title>
<path fill="none" stroke="#59d856" stroke-width="2" stroke-dasharray="5,2" d="M578,-252C578,-252 492,-252 492,-252 486,-252 480,-246 480,-240 480,-240 480,-228 480,-228 480,-222 486,-216 492,-216 492,-216 578,-216 578,-216 584,-216 590,-222 590,-228 590,-228 590,-240 590,-240 590,-246 584,-252 578,-252"/>
<text text-anchor="middle" x="535" y="-231.5" font-family="sans" font-size="10.00" fill="#000000">bwaalign_unicycler</text>
</g>
<!-- 2&#45;&gt;10 -->
<g id="edge21" class="edge">
<title>2&#45;&gt;10</title>
<path fill="none" stroke="#c0c0c0" stroke-width="2" d="M438.8093,-359.8208C458.7003,-333.8027 492.8896,-289.0819 514.6959,-260.5585"/>
<polygon fill="#c0c0c0" stroke="#c0c0c0" stroke-width="2" points="517.7433,-262.3351 521.0363,-252.265 512.1822,-258.0837 517.7433,-262.3351"/>
</g>
<!-- 3&#45;&gt;0 -->
<g id="edge3" class="edge">
<title>3&#45;&gt;0</title>
<path fill="none" stroke="#c0c0c0" stroke-width="2" d="M313.3905,-143.8737C313.6571,-124.2141 316.8946,-92.8546 333,-72 350.4899,-49.3526 380.0335,-35.5041 403.8041,-27.51"/>
<polygon fill="#c0c0c0" stroke="#c0c0c0" stroke-width="2" points="405.0967,-30.7725 413.5861,-24.4338 402.9967,-24.0949 405.0967,-30.7725"/>
</g>
<!-- 11 -->
<g id="node12" class="node">
<title>11</title>
<path fill="none" stroke="#567bd8" stroke-width="2" stroke-dasharray="5,2" d="M384,-108C384,-108 354,-108 354,-108 348,-108 342,-102 342,-96 342,-96 342,-84 342,-84 342,-78 348,-72 354,-72 354,-72 384,-72 384,-72 390,-72 396,-78 396,-84 396,-84 396,-96 396,-96 396,-102 390,-108 384,-108"/>
<text text-anchor="middle" x="369" y="-87.5" font-family="sans" font-size="10.00" fill="#000000">prokka</text>
</g>
<!-- 3&#45;&gt;11 -->
<g id="edge26" class="edge">
<title>3&#45;&gt;11</title>
<path fill="none" stroke="#c0c0c0" stroke-width="2" d="M327.8788,-143.8314C334.2136,-135.5386 341.8384,-125.557 348.7926,-116.4533"/>
<polygon fill="#c0c0c0" stroke="#c0c0c0" stroke-width="2" points="351.6452,-118.4847 354.9343,-108.4133 346.0825,-114.2353 351.6452,-118.4847"/>
</g>
<!-- 12 -->
<g id="node13" class="node">
<title>12</title>
<path fill="none" stroke="#56a2d8" stroke-width="2" stroke-dasharray="5,2" d="M456,-108C456,-108 426,-108 426,-108 420,-108 414,-102 414,-96 414,-96 414,-84 414,-84 414,-78 420,-72 426,-72 426,-72 456,-72 456,-72 462,-72 468,-78 468,-84 468,-84 468,-96 468,-96 468,-102 462,-108 456,-108"/>
<text text-anchor="middle" x="441" y="-87.5" font-family="sans" font-size="10.00" fill="#000000">quast</text>
</g>
<!-- 3&#45;&gt;12 -->
<g id="edge30" class="edge">
<title>3&#45;&gt;12</title>
<path fill="none" stroke="#c0c0c0" stroke-width="2" d="M346.0475,-143.8314C363.9816,-133.664 386.3938,-120.9578 404.9396,-110.4437"/>
<polygon fill="#c0c0c0" stroke="#c0c0c0" stroke-width="2" points="406.7237,-113.4556 413.6968,-105.479 403.2714,-107.3661 406.7237,-113.4556"/>
</g>
<!-- 13 -->
<g id="node14" class="node">
<title>13</title>
<path fill="none" stroke="#56d87b" stroke-width="2" stroke-dasharray="5,2" d="M528,-108C528,-108 498,-108 498,-108 492,-108 486,-102 486,-96 486,-96 486,-84 486,-84 486,-78 492,-72 498,-72 498,-72 528,-72 528,-72 534,-72 540,-78 540,-84 540,-84 540,-96 540,-96 540,-102 534,-108 528,-108"/>
<text text-anchor="middle" x="513" y="-87.5" font-family="sans" font-size="10.00" fill="#000000">busco</text>
</g>
<!-- 3&#45;&gt;13 -->
<g id="edge34" class="edge">
<title>3&#45;&gt;13</title>
<path fill="none" stroke="#c0c0c0" stroke-width="2" d="M347.744,-149.0782C352.5152,-147.3295 357.3708,-145.5912 362,-144 409.7797,-127.5768 425.5547,-127.9363 476.1806,-108.0329"/>
<polygon fill="#c0c0c0" stroke="#c0c0c0" stroke-width="2" points="477.7112,-111.1902 485.6909,-104.2207 475.1066,-104.6927 477.7112,-111.1902"/>
</g>
<!-- 4 -->
<g id="node5" class="node">
<title>4</title>
<path fill="none" stroke="#56d8a2" stroke-width="2" stroke-dasharray="5,2" d="M248,-324C248,-324 216,-324 216,-324 210,-324 204,-318 204,-312 204,-312 204,-300 204,-300 204,-294 210,-288 216,-288 216,-288 248,-288 248,-288 254,-288 260,-294 260,-300 260,-300 260,-312 260,-312 260,-318 254,-324 248,-324"/>
<text text-anchor="middle" x="232" y="-303.5" font-family="sans" font-size="10.00" fill="#000000">medaka</text>
</g>
<!-- 4&#45;&gt;3 -->
<g id="edge9" class="edge">
<title>4&#45;&gt;3</title>
<path fill="none" stroke="#c0c0c0" stroke-width="2" d="M229.1434,-287.8131C227.0657,-268.6656 226.4802,-238.2674 239,-216 246.539,-202.5912 258.9506,-191.6519 271.5276,-183.2132"/>
<polygon fill="#c0c0c0" stroke="#c0c0c0" stroke-width="2" points="273.5921,-186.0498 280.2034,-177.7708 269.8722,-180.12 273.5921,-186.0498"/>
</g>
<!-- 4&#45;&gt;7 -->
<g id="edge15" class="edge">
<title>4&#45;&gt;7</title>
<path fill="none" stroke="#c0c0c0" stroke-width="2" d="M243.8601,-287.8314C249.1629,-279.7079 255.5237,-269.9637 261.3673,-261.0118"/>
<polygon fill="#c0c0c0" stroke="#c0c0c0" stroke-width="2" points="264.4448,-262.7003 266.9802,-252.4133 258.5831,-258.8739 264.4448,-262.7003"/>
</g>
<!-- 4&#45;&gt;11 -->
<g id="edge24" class="edge">
<title>4&#45;&gt;11</title>
<path fill="none" stroke="#c0c0c0" stroke-width="2" d="M203.8947,-290.3238C190.3592,-281.1026 175.4737,-268.0846 168,-252 147.7736,-208.4697 138.792,-182.0906 168,-144 170.5473,-140.678 274.7947,-113.8534 332.124,-99.3046"/>
<polygon fill="#c0c0c0" stroke="#c0c0c0" stroke-width="2" points="333.0771,-102.6738 341.9109,-96.8246 331.3575,-95.8883 333.0771,-102.6738"/>
</g>
<!-- 4&#45;&gt;12 -->
<g id="edge28" class="edge">
<title>4&#45;&gt;12</title>
<path fill="none" stroke="#c0c0c0" stroke-width="2" d="M226.8184,-287.6776C222.4601,-269.2081 217.9676,-240.0692 225,-216 235.6496,-179.5506 240.3695,-166.4443 271,-144 318.314,-109.3309 344.6986,-127.8576 404.2908,-107.7549"/>
<polygon fill="#c0c0c0" stroke="#c0c0c0" stroke-width="2" points="405.5227,-111.0313 413.7381,-104.3412 403.1438,-104.4479 405.5227,-111.0313"/>
</g>
<!-- 4&#45;&gt;13 -->
<g id="edge32" class="edge">
<title>4&#45;&gt;13</title>
<path fill="none" stroke="#c0c0c0" stroke-width="2" d="M260.1112,-289.6404C277.2159,-279.3721 299.2972,-265.5495 318,-252 380.1304,-206.989 448.0617,-148.1637 485.0869,-115.2067"/>
<polygon fill="#c0c0c0" stroke="#c0c0c0" stroke-width="2" points="487.8154,-117.4624 492.9413,-108.1901 483.1519,-112.2421 487.8154,-117.4624"/>
</g>
<!-- 5 -->
<g id="node6" class="node">
<title>5</title>
<path fill="none" stroke="#d85656" stroke-width="2" stroke-dasharray="5,2" d="M302,-398.5C302,-398.5 272,-398.5 272,-398.5 266,-398.5 260,-392.5 260,-386.5 260,-386.5 260,-374.5 260,-374.5 260,-368.5 266,-362.5 272,-362.5 272,-362.5 302,-362.5 302,-362.5 308,-362.5 314,-368.5 314,-374.5 314,-374.5 314,-386.5 314,-386.5 314,-392.5 308,-398.5 302,-398.5"/>
<text text-anchor="middle" x="287" y="-378" font-family="sans" font-size="10.00" fill="#000000">flye</text>
</g>
<!-- 5&#45;&gt;4 -->
<g id="edge11" class="edge">
<title>5&#45;&gt;4</title>
<path fill="none" stroke="#c0c0c0" stroke-width="2" d="M273.686,-362.4656C266.98,-353.3819 258.724,-342.1989 251.3335,-332.1881"/>
<polygon fill="#c0c0c0" stroke="#c0c0c0" stroke-width="2" points="254.1372,-330.0929 245.382,-324.1265 248.5056,-334.2504 254.1372,-330.0929"/>
</g>
<!-- 6 -->
<g id="node7" class="node">
<title>6</title>
<path fill="none" stroke="#c6d856" stroke-width="2" stroke-dasharray="5,2" d="M332,-473C332,-473 242,-473 242,-473 236,-473 230,-467 230,-461 230,-461 230,-449 230,-449 230,-443 236,-437 242,-437 242,-437 332,-437 332,-437 338,-437 344,-443 344,-449 344,-449 344,-461 344,-461 344,-467 338,-473 332,-473"/>
<text text-anchor="middle" x="287" y="-458" font-family="sans" font-size="10.00" fill="#000000">trim_nano_adaptors</text>
<text text-anchor="middle" x="287" y="-447" font-family="sans" font-size="10.00" fill="#000000">barcode: barcode01</text>
</g>
<!-- 6&#45;&gt;4 -->
<g id="edge12" class="edge">
<title>6&#45;&gt;4</title>
<path fill="none" stroke="#c0c0c0" stroke-width="2" d="M272.0592,-436.5417C264.683,-426.5591 256.2604,-413.6998 251,-401 242.0933,-379.4974 237.264,-353.4842 234.7065,-334.1189"/>
<polygon fill="#c0c0c0" stroke="#c0c0c0" stroke-width="2" points="238.1728,-333.6279 233.5079,-324.1153 231.2225,-334.4607 238.1728,-333.6279"/>
</g>
<!-- 6&#45;&gt;5 -->
<g id="edge13" class="edge">
<title>6&#45;&gt;5</title>
<path fill="none" stroke="#c0c0c0" stroke-width="2" d="M287,-436.9656C287,-428.5178 287,-418.2542 287,-408.8064"/>
<polygon fill="#c0c0c0" stroke="#c0c0c0" stroke-width="2" points="290.5001,-408.6265 287,-398.6265 283.5001,-408.6265 290.5001,-408.6265"/>
</g>
<!-- 6&#45;&gt;9 -->
<g id="edge20" class="edge">
<title>6&#45;&gt;9</title>
<path fill="none" stroke="#c0c0c0" stroke-width="2" d="M344.0903,-445.089C395.4383,-435.2224 466.0683,-418.9875 488,-401 508.7861,-383.9521 521.1545,-355.4229 527.9433,-334.0687"/>
<polygon fill="#c0c0c0" stroke="#c0c0c0" stroke-width="2" points="531.3691,-334.8255 530.8402,-324.2439 524.6549,-332.8457 531.3691,-334.8255"/>
</g>
<!-- 7&#45;&gt;3 -->
<g id="edge10" class="edge">
<title>7&#45;&gt;3</title>
<path fill="none" stroke="#c0c0c0" stroke-width="2" d="M287.832,-215.8314C291.6986,-207.8771 296.3206,-198.369 300.5968,-189.5723"/>
<polygon fill="#c0c0c0" stroke="#c0c0c0" stroke-width="2" points="303.8249,-190.9371 305.0491,-180.4133 297.5293,-187.8768 303.8249,-190.9371"/>
</g>
<!-- 8&#45;&gt;0 -->
<g id="edge4" class="edge">
<title>8&#45;&gt;0</title>
<path fill="none" stroke="#c0c0c0" stroke-width="2" d="M545.2567,-143.6637C553.5591,-124.3913 562.5287,-93.8899 549,-72 533.5986,-47.08 502.8292,-33.2755 478.0595,-25.8768"/>
<polygon fill="#c0c0c0" stroke="#c0c0c0" stroke-width="2" points="478.789,-22.4475 468.2189,-23.1711 476.9332,-29.197 478.789,-22.4475"/>
</g>
<!-- 8&#45;&gt;11 -->
<g id="edge25" class="edge">
<title>8&#45;&gt;11</title>
<path fill="none" stroke="#c0c0c0" stroke-width="2" d="M489.8774,-143.94C466.7888,-134.6819 438.2809,-122.9253 405.411,-108.0538"/>
<polygon fill="#c0c0c0" stroke="#c0c0c0" stroke-width="2" points="406.5763,-104.7385 396.0252,-103.7761 403.6732,-111.1082 406.5763,-104.7385"/>
</g>
<!-- 8&#45;&gt;12 -->
<g id="edge29" class="edge">
<title>8&#45;&gt;12</title>
<path fill="none" stroke="#c0c0c0" stroke-width="2" d="M512.0275,-143.8314C500.2139,-134.8779 485.8028,-123.9558 473.0565,-114.2955"/>
<polygon fill="#c0c0c0" stroke="#c0c0c0" stroke-width="2" points="475.0486,-111.4137 464.9648,-108.1628 470.8205,-116.9925 475.0486,-111.4137"/>
</g>
<!-- 8&#45;&gt;13 -->
<g id="edge33" class="edge">
<title>8&#45;&gt;13</title>
<path fill="none" stroke="#c0c0c0" stroke-width="2" d="M530.1961,-143.8314C527.7092,-136.0463 524.7469,-126.7729 521.9875,-118.1347"/>
<polygon fill="#c0c0c0" stroke="#c0c0c0" stroke-width="2" points="525.2591,-116.874 518.882,-108.4133 518.591,-119.0041 525.2591,-116.874"/>
</g>
<!-- 9&#45;&gt;8 -->
<g id="edge17" class="edge">
<title>9&#45;&gt;8</title>
<path fill="none" stroke="#c0c0c0" stroke-width="2" d="M565.7829,-288.461C578.5611,-279.3821 592.0164,-267.0298 599,-252 605.7421,-237.4899 605.6857,-230.5362 599,-216 593.733,-204.5483 584.7065,-194.6164 575.1058,-186.5032"/>
<polygon fill="#c0c0c0" stroke="#c0c0c0" stroke-width="2" points="577.0034,-183.5433 566.9761,-180.1224 572.6815,-189.0498 577.0034,-183.5433"/>
</g>
<!-- 9&#45;&gt;10 -->
<g id="edge22" class="edge">
<title>9&#45;&gt;10</title>
<path fill="none" stroke="#c0c0c0" stroke-width="2" d="M535,-287.8314C535,-280.131 535,-270.9743 535,-262.4166"/>
<polygon fill="#c0c0c0" stroke="#c0c0c0" stroke-width="2" points="538.5001,-262.4132 535,-252.4133 531.5001,-262.4133 538.5001,-262.4132"/>
</g>
<!-- 9&#45;&gt;11 -->
<g id="edge23" class="edge">
<title>9&#45;&gt;11</title>
<path fill="none" stroke="#c0c0c0" stroke-width="2" d="M510.0094,-287.8598C497.4744,-278.0615 482.5452,-265.2719 471,-252 433.6756,-209.0933 400.6773,-151.1699 382.8969,-117.4727"/>
<polygon fill="#c0c0c0" stroke="#c0c0c0" stroke-width="2" points="385.8111,-115.4912 378.0867,-108.2397 379.603,-118.7254 385.8111,-115.4912"/>
</g>
<!-- 9&#45;&gt;12 -->
<g id="edge27" class="edge">
<title>9&#45;&gt;12</title>
<path fill="none" stroke="#c0c0c0" stroke-width="2" d="M565.8189,-294.0127C583.6739,-285.2783 604.619,-271.5317 615,-252 626.8613,-229.6831 608.4194,-150.0701 603,-144 566.2575,-102.8458 534.7687,-126.3018 478.001,-107.794"/>
<polygon fill="#c0c0c0" stroke="#c0c0c0" stroke-width="2" points="478.8743,-104.3885 468.2799,-104.2944 476.5032,-110.9747 478.8743,-104.3885"/>
</g>
<!-- 9&#45;&gt;13 -->
<g id="edge31" class="edge">
<title>9&#45;&gt;13</title>
<path fill="none" stroke="#c0c0c0" stroke-width="2" d="M565.7819,-303.3724C597.9144,-298.8009 646.7908,-286.2807 670,-252 696.9102,-212.2528 697.8804,-183.0728 670,-144 655.8477,-124.1664 591.917,-106.9783 550.1265,-97.5914"/>
<polygon fill="#c0c0c0" stroke="#c0c0c0" stroke-width="2" points="550.7989,-94.1558 540.2812,-95.4315 549.2988,-100.9931 550.7989,-94.1558"/>
</g>
<!-- 10&#45;&gt;8 -->
<g id="edge18" class="edge">
<title>10&#45;&gt;8</title>
<path fill="none" stroke="#c0c0c0" stroke-width="2" d="M535.2523,-215.8314C535.3593,-208.131 535.4865,-198.9743 535.6053,-190.4166"/>
<polygon fill="#c0c0c0" stroke="#c0c0c0" stroke-width="2" points="539.1049,-190.4609 535.7443,-180.4133 532.1056,-190.3637 539.1049,-190.4609"/>
</g>
<!-- 11&#45;&gt;0 -->
<g id="edge5" class="edge">
<title>11&#45;&gt;0</title>
<path fill="none" stroke="#c0c0c0" stroke-width="2" d="M387.1686,-71.8314C395.7152,-63.2848 406.0557,-52.9443 415.3802,-43.6198"/>
<polygon fill="#c0c0c0" stroke="#c0c0c0" stroke-width="2" points="417.9905,-45.9592 422.5867,-36.4133 413.0408,-41.0095 417.9905,-45.9592"/>
</g>
<!-- 12&#45;&gt;0 -->
<g id="edge6" class="edge">
<title>12&#45;&gt;0</title>
<path fill="none" stroke="#c0c0c0" stroke-width="2" d="M441,-71.8314C441,-64.131 441,-54.9743 441,-46.4166"/>
<polygon fill="#c0c0c0" stroke="#c0c0c0" stroke-width="2" points="444.5001,-46.4132 441,-36.4133 437.5001,-46.4133 444.5001,-46.4132"/>
</g>
<!-- 13&#45;&gt;0 -->
<g id="edge7" class="edge">
<title>13&#45;&gt;0</title>
<path fill="none" stroke="#c0c0c0" stroke-width="2" d="M494.8314,-71.8314C486.2848,-63.2848 475.9443,-52.9443 466.6198,-43.6198"/>
<polygon fill="#c0c0c0" stroke="#c0c0c0" stroke-width="2" points="468.9592,-41.0095 459.4133,-36.4133 464.0095,-45.9592 468.9592,-41.0095"/>
</g>
</g>
</svg>
