<?xml version="1.0" encoding="UTF-8" standalone="no"?>
<!DOCTYPE svg PUBLIC "-//W3C//DTD SVG 1.1//EN"
 "http://www.w3.org/Graphics/SVG/1.1/DTD/svg11.dtd">
<!-- Generated by graphviz version 2.40.1 (0)
 -->
<!-- Title: snakemake_dag Pages: 1 -->
<svg width="748pt" height="548pt"
 viewBox="0.00 0.00 748.00 548.00" xmlns="http://www.w3.org/2000/svg" xmlns:xlink="http://www.w3.org/1999/xlink">
<g id="graph0" class="graph" transform="scale(1 1) rotate(0) translate(4 544)">
<title>snakemake_dag</title>
<polygon fill="#ffffff" stroke="transparent" points="-4,4 -4,-544 744,-544 744,4 -4,4"/>
<!-- 0 -->
<g id="node1" class="node">
<title>0</title>
<path fill="none" stroke="#d8b456" stroke-width="2" d="M196,-36C196,-36 166,-36 166,-36 160,-36 154,-30 154,-24 154,-24 154,-12 154,-12 154,-6 160,0 166,0 166,0 196,0 196,0 202,0 208,-6 208,-12 208,-12 208,-24 208,-24 208,-30 202,-36 196,-36"/>
<text text-anchor="middle" x="181" y="-15.5" font-family="sans" font-size="10.00" fill="#000000">all</text>
</g>
<!-- 1 -->
<g id="node2" class="node">
<title>1</title>
<path fill="none" stroke="#56d0d8" stroke-width="2" d="M250.5,-540C250.5,-540 173.5,-540 173.5,-540 167.5,-540 161.5,-534 161.5,-528 161.5,-528 161.5,-516 161.5,-516 161.5,-510 167.5,-504 173.5,-504 173.5,-504 250.5,-504 250.5,-504 256.5,-504 262.5,-510 262.5,-516 262.5,-516 262.5,-528 262.5,-528 262.5,-534 256.5,-540 250.5,-540"/>
<text text-anchor="middle" x="212" y="-519.5" font-family="sans" font-size="10.00" fill="#000000">nanopore_filtlong</text>
</g>
<!-- 1&#45;&gt;0 -->
<g id="edge8" class="edge">
<title>1&#45;&gt;0</title>
<path fill="none" stroke="#c0c0c0" stroke-width="2" d="M161.4901,-511.1877C98.7848,-494.4534 0,-455.7519 0,-378 0,-378 0,-378 0,-162 0,-115.8034 17.3197,-102.5189 52,-72 78.3785,-48.7868 116.1608,-34.5614 144.0221,-26.5806"/>
<polygon fill="#c0c0c0" stroke="#c0c0c0" stroke-width="2" points="145.0697,-29.9229 153.7984,-23.9178 143.2301,-23.1689 145.0697,-29.9229"/>
</g>
<!-- 2 -->
<g id="node3" class="node">
<title>2</title>
<path fill="none" stroke="#56d8a2" stroke-width="2" d="M114.5,-468C114.5,-468 79.5,-468 79.5,-468 73.5,-468 67.5,-462 67.5,-456 67.5,-456 67.5,-444 67.5,-444 67.5,-438 73.5,-432 79.5,-432 79.5,-432 114.5,-432 114.5,-432 120.5,-432 126.5,-438 126.5,-444 126.5,-444 126.5,-456 126.5,-456 126.5,-462 120.5,-468 114.5,-468"/>
<text text-anchor="middle" x="97" y="-447.5" font-family="sans" font-size="10.00" fill="#000000">nanoplot</text>
</g>
<!-- 1&#45;&gt;2 -->
<g id="edge11" class="edge">
<title>1&#45;&gt;2</title>
<path fill="none" stroke="#c0c0c0" stroke-width="2" d="M182.9806,-503.8314C168.2714,-494.6221 150.2356,-483.3301 134.4878,-473.4706"/>
<polygon fill="#c0c0c0" stroke="#c0c0c0" stroke-width="2" points="136.3433,-470.5029 126.0101,-468.1628 132.6286,-476.436 136.3433,-470.5029"/>
</g>
<!-- 3 -->
<g id="node4" class="node">
<title>3</title>
<path fill="none" stroke="#d8d356" stroke-width="2" d="M227,-468C227,-468 197,-468 197,-468 191,-468 185,-462 185,-456 185,-456 185,-444 185,-444 185,-438 191,-432 197,-432 197,-432 227,-432 227,-432 233,-432 239,-438 239,-444 239,-444 239,-456 239,-456 239,-462 233,-468 227,-468"/>
<text text-anchor="middle" x="212" y="-447.5" font-family="sans" font-size="10.00" fill="#000000">flye</text>
</g>
<!-- 1&#45;&gt;3 -->
<g id="edge12" class="edge">
<title>1&#45;&gt;3</title>
<path fill="none" stroke="#c0c0c0" stroke-width="2" d="M212,-503.8314C212,-496.131 212,-486.9743 212,-478.4166"/>
<polygon fill="#c0c0c0" stroke="#c0c0c0" stroke-width="2" points="215.5001,-478.4132 212,-468.4133 208.5001,-478.4133 215.5001,-478.4132"/>
</g>
<!-- 5 -->
<g id="node6" class="node">
<title>5</title>
<path fill="none" stroke="#bed856" stroke-width="2" d="M262,-324C262,-324 230,-324 230,-324 224,-324 218,-318 218,-312 218,-312 218,-300 218,-300 218,-294 224,-288 230,-288 230,-288 262,-288 262,-288 268,-288 274,-294 274,-300 274,-300 274,-312 274,-312 274,-318 268,-324 262,-324"/>
<text text-anchor="middle" x="246" y="-303.5" font-family="sans" font-size="10.00" fill="#000000">medaka</text>
</g>
<!-- 1&#45;&gt;5 -->
<g id="edge14" class="edge">
<title>1&#45;&gt;5</title>
<path fill="none" stroke="#c0c0c0" stroke-width="2" d="M227.9905,-503.9169C235.6538,-494.0371 244.0166,-481.1563 248,-468 261.6208,-423.0137 256.6068,-367.7291 251.4826,-334.7602"/>
<polygon fill="#c0c0c0" stroke="#c0c0c0" stroke-width="2" points="254.8658,-333.7695 249.7674,-324.482 247.9613,-334.9217 254.8658,-333.7695"/>
</g>
<!-- 10 -->
<g id="node11" class="node">
<title>10</title>
<path fill="none" stroke="#88d856" stroke-width="2" d="M644.5,-324C644.5,-324 607.5,-324 607.5,-324 601.5,-324 595.5,-318 595.5,-312 595.5,-312 595.5,-300 595.5,-300 595.5,-294 601.5,-288 607.5,-288 607.5,-288 644.5,-288 644.5,-288 650.5,-288 656.5,-294 656.5,-300 656.5,-300 656.5,-312 656.5,-312 656.5,-318 650.5,-324 644.5,-324"/>
<text text-anchor="middle" x="626" y="-303.5" font-family="sans" font-size="10.00" fill="#000000">unicycler</text>
</g>
<!-- 1&#45;&gt;10 -->
<g id="edge24" class="edge">
<title>1&#45;&gt;10</title>
<path fill="none" stroke="#c0c0c0" stroke-width="2" d="M260.2576,-503.9719C318.0596,-481.635 417.0931,-440.982 497,-396 532.0625,-376.2622 569.4977,-349.4307 594.9592,-330.2097"/>
<polygon fill="#c0c0c0" stroke="#c0c0c0" stroke-width="2" points="597.2756,-332.8452 603.1142,-324.0043 593.0367,-327.2745 597.2756,-332.8452"/>
</g>
<!-- 2&#45;&gt;0 -->
<g id="edge6" class="edge">
<title>2&#45;&gt;0</title>
<path fill="none" stroke="#c0c0c0" stroke-width="2" d="M84.1979,-431.8796C66.8455,-405.4944 38,-354.3605 38,-306 38,-306 38,-306 38,-162 38,-101.4392 102.4682,-57.2848 144.8321,-34.8075"/>
<polygon fill="#c0c0c0" stroke="#c0c0c0" stroke-width="2" points="146.4747,-37.8985 153.7662,-30.2119 143.2727,-31.6738 146.4747,-37.8985"/>
</g>
<!-- 3&#45;&gt;0 -->
<g id="edge1" class="edge">
<title>3&#45;&gt;0</title>
<path fill="none" stroke="#c0c0c0" stroke-width="2" d="M184.8998,-444.8437C157.944,-438.258 117.4577,-424.1597 95,-396 69.5099,-364.0381 76,-346.8816 76,-306 76,-306 76,-306 76,-162 76,-112.4381 117.1108,-68.5199 147.8843,-42.5876"/>
<polygon fill="#c0c0c0" stroke="#c0c0c0" stroke-width="2" points="150.3233,-45.1145 155.8499,-36.0752 145.8926,-39.6951 150.3233,-45.1145"/>
</g>
<!-- 4 -->
<g id="node5" class="node">
<title>4</title>
<path fill="none" stroke="#56b1d8" stroke-width="2" d="M172,-396C172,-396 116,-396 116,-396 110,-396 104,-390 104,-384 104,-384 104,-372 104,-372 104,-366 110,-360 116,-360 116,-360 172,-360 172,-360 178,-360 184,-366 184,-372 184,-372 184,-384 184,-384 184,-390 178,-396 172,-396"/>
<text text-anchor="middle" x="144" y="-375.5" font-family="sans" font-size="10.00" fill="#000000">flye_add_circ</text>
</g>
<!-- 3&#45;&gt;4 -->
<g id="edge13" class="edge">
<title>3&#45;&gt;4</title>
<path fill="none" stroke="#c0c0c0" stroke-width="2" d="M194.8407,-431.8314C186.8489,-423.3694 177.1962,-413.1489 168.4584,-403.8971"/>
<polygon fill="#c0c0c0" stroke="#c0c0c0" stroke-width="2" points="170.8011,-401.2802 161.3903,-396.4133 165.712,-406.0866 170.8011,-401.2802"/>
</g>
<!-- 12 -->
<g id="node13" class="node">
<title>12</title>
<path fill="none" stroke="#5692d8" stroke-width="2" d="M314,-108C314,-108 284,-108 284,-108 278,-108 272,-102 272,-96 272,-96 272,-84 272,-84 272,-78 278,-72 284,-72 284,-72 314,-72 314,-72 320,-72 326,-78 326,-84 326,-84 326,-96 326,-96 326,-102 320,-108 314,-108"/>
<text text-anchor="middle" x="299" y="-87.5" font-family="sans" font-size="10.00" fill="#000000">prokka</text>
</g>
<!-- 3&#45;&gt;12 -->
<g id="edge28" class="edge">
<title>3&#45;&gt;12</title>
<path fill="none" stroke="#c0c0c0" stroke-width="2" d="M209.6062,-431.8769C206.0888,-401.7767 200.7808,-339.6719 209,-288 219.5758,-221.5132 224.0799,-203.2744 256,-144 261.2533,-134.2448 268.3205,-124.4927 275.2063,-116.0138"/>
<polygon fill="#c0c0c0" stroke="#c0c0c0" stroke-width="2" points="277.9241,-118.22 281.6874,-108.3161 272.5693,-113.7115 277.9241,-118.22"/>
</g>
<!-- 13 -->
<g id="node14" class="node">
<title>13</title>
<path fill="none" stroke="#56d882" stroke-width="2" d="M558,-108C558,-108 528,-108 528,-108 522,-108 516,-102 516,-96 516,-96 516,-84 516,-84 516,-78 522,-72 528,-72 528,-72 558,-72 558,-72 564,-72 570,-78 570,-84 570,-84 570,-96 570,-96 570,-102 564,-108 558,-108"/>
<text text-anchor="middle" x="543" y="-87.5" font-family="sans" font-size="10.00" fill="#000000">quast</text>
</g>
<!-- 3&#45;&gt;13 -->
<g id="edge32" class="edge">
<title>3&#45;&gt;13</title>
<path fill="none" stroke="#c0c0c0" stroke-width="2" d="M239.2757,-448.5263C347.3954,-441.9549 740,-410.8724 740,-306 740,-306 740,-306 740,-234 740,-190.0449 731.5101,-173.5828 699,-144 665.8622,-113.8461 615.0234,-100.3829 580.4592,-94.4702"/>
<polygon fill="#c0c0c0" stroke="#c0c0c0" stroke-width="2" points="580.7155,-90.9675 570.2925,-92.8675 579.6255,-97.8821 580.7155,-90.9675"/>
</g>
<!-- 14 -->
<g id="node15" class="node">
<title>14</title>
<path fill="none" stroke="#9fd856" stroke-width="2" d="M399,-108C399,-108 369,-108 369,-108 363,-108 357,-102 357,-96 357,-96 357,-84 357,-84 357,-78 363,-72 369,-72 369,-72 399,-72 399,-72 405,-72 411,-78 411,-84 411,-84 411,-96 411,-96 411,-102 405,-108 399,-108"/>
<text text-anchor="middle" x="384" y="-87.5" font-family="sans" font-size="10.00" fill="#000000">busco</text>
</g>
<!-- 3&#45;&gt;14 -->
<g id="edge36" class="edge">
<title>3&#45;&gt;14</title>
<path fill="none" stroke="#c0c0c0" stroke-width="2" d="M223.9925,-431.7564C246.1443,-397.5379 294.1205,-320.9459 326,-252 347.0425,-206.4914 365.4234,-151.0231 375.5881,-118.2151"/>
<polygon fill="#c0c0c0" stroke="#c0c0c0" stroke-width="2" points="379.012,-118.9873 378.5926,-108.4008 372.3186,-116.9382 379.012,-118.9873"/>
</g>
<!-- 4&#45;&gt;0 -->
<g id="edge9" class="edge">
<title>4&#45;&gt;0</title>
<path fill="none" stroke="#c0c0c0" stroke-width="2" d="M137.6378,-359.615C128.8315,-332.4838 114,-279.9662 114,-234 114,-234 114,-234 114,-162 114,-117.7121 140.3742,-72.3128 160.0276,-44.6304"/>
<polygon fill="#c0c0c0" stroke="#c0c0c0" stroke-width="2" points="163.0504,-46.4263 166.1305,-36.2891 157.401,-42.293 163.0504,-46.4263"/>
</g>
<!-- 4&#45;&gt;5 -->
<g id="edge15" class="edge">
<title>4&#45;&gt;5</title>
<path fill="none" stroke="#c0c0c0" stroke-width="2" d="M169.7389,-359.8314C182.5437,-350.7927 198.1909,-339.7476 211.9719,-330.0198"/>
<polygon fill="#c0c0c0" stroke="#c0c0c0" stroke-width="2" points="214.118,-332.7891 220.2693,-324.1628 210.0812,-327.0703 214.118,-332.7891"/>
</g>
<!-- 5&#45;&gt;0 -->
<g id="edge3" class="edge">
<title>5&#45;&gt;0</title>
<path fill="none" stroke="#c0c0c0" stroke-width="2" d="M241.934,-287.9843C230.9448,-239.2939 200.5894,-104.7961 187.3324,-46.0573"/>
<polygon fill="#c0c0c0" stroke="#c0c0c0" stroke-width="2" points="190.6803,-44.993 185.0645,-36.0089 183.852,-46.5341 190.6803,-44.993"/>
</g>
<!-- 6 -->
<g id="node7" class="node">
<title>6</title>
<path fill="none" stroke="#68d856" stroke-width="2" d="M320.5,-180C320.5,-180 277.5,-180 277.5,-180 271.5,-180 265.5,-174 265.5,-168 265.5,-168 265.5,-156 265.5,-156 265.5,-150 271.5,-144 277.5,-144 277.5,-144 320.5,-144 320.5,-144 326.5,-144 332.5,-150 332.5,-156 332.5,-156 332.5,-168 332.5,-168 332.5,-174 326.5,-180 320.5,-180"/>
<text text-anchor="middle" x="299" y="-159.5" font-family="sans" font-size="10.00" fill="#000000">polypolish</text>
</g>
<!-- 5&#45;&gt;6 -->
<g id="edge17" class="edge">
<title>5&#45;&gt;6</title>
<path fill="none" stroke="#c0c0c0" stroke-width="2" d="M242.4239,-287.9828C239.5521,-269.243 237.4035,-239.4245 247,-216 251.4198,-205.2116 259.1133,-195.3615 267.2485,-187.1139"/>
<polygon fill="#c0c0c0" stroke="#c0c0c0" stroke-width="2" points="269.9009,-189.4229 274.7624,-180.0092 265.0915,-184.3365 269.9009,-189.4229"/>
</g>
<!-- 8 -->
<g id="node9" class="node">
<title>8</title>
<path fill="none" stroke="#d87556" stroke-width="2" d="M305.5,-252C305.5,-252 268.5,-252 268.5,-252 262.5,-252 256.5,-246 256.5,-240 256.5,-240 256.5,-228 256.5,-228 256.5,-222 262.5,-216 268.5,-216 268.5,-216 305.5,-216 305.5,-216 311.5,-216 317.5,-222 317.5,-228 317.5,-228 317.5,-240 317.5,-240 317.5,-246 311.5,-252 305.5,-252"/>
<text text-anchor="middle" x="287" y="-231.5" font-family="sans" font-size="10.00" fill="#000000">bwaalign</text>
</g>
<!-- 5&#45;&gt;8 -->
<g id="edge19" class="edge">
<title>5&#45;&gt;8</title>
<path fill="none" stroke="#c0c0c0" stroke-width="2" d="M256.346,-287.8314C260.9237,-279.7925 266.4052,-270.1666 271.4588,-261.2918"/>
<polygon fill="#c0c0c0" stroke="#c0c0c0" stroke-width="2" points="274.6077,-262.8351 276.5147,-252.4133 268.5248,-259.3712 274.6077,-262.8351"/>
</g>
<!-- 6&#45;&gt;0 -->
<g id="edge4" class="edge">
<title>6&#45;&gt;0</title>
<path fill="none" stroke="#c0c0c0" stroke-width="2" d="M284.0552,-143.7623C263.3967,-118.5518 225.996,-72.9103 202.3835,-44.0952"/>
<polygon fill="#c0c0c0" stroke="#c0c0c0" stroke-width="2" points="204.8689,-41.606 195.8234,-36.0896 199.4545,-46.0428 204.8689,-41.606"/>
</g>
<!-- 6&#45;&gt;12 -->
<g id="edge30" class="edge">
<title>6&#45;&gt;12</title>
<path fill="none" stroke="#c0c0c0" stroke-width="2" d="M299,-143.8314C299,-136.131 299,-126.9743 299,-118.4166"/>
<polygon fill="#c0c0c0" stroke="#c0c0c0" stroke-width="2" points="302.5001,-118.4132 299,-108.4133 295.5001,-118.4133 302.5001,-118.4132"/>
</g>
<!-- 6&#45;&gt;13 -->
<g id="edge34" class="edge">
<title>6&#45;&gt;13</title>
<path fill="none" stroke="#c0c0c0" stroke-width="2" d="M332.671,-152.0643C378.1012,-138.6587 458.7519,-114.8601 505.8862,-100.9516"/>
<polygon fill="#c0c0c0" stroke="#c0c0c0" stroke-width="2" points="507.0926,-104.2449 515.6932,-98.0577 505.1115,-97.5311 507.0926,-104.2449"/>
</g>
<!-- 6&#45;&gt;14 -->
<g id="edge38" class="edge">
<title>6&#45;&gt;14</title>
<path fill="none" stroke="#c0c0c0" stroke-width="2" d="M320.4491,-143.8314C330.8178,-135.0485 343.4229,-124.3712 354.6646,-114.8489"/>
<polygon fill="#c0c0c0" stroke="#c0c0c0" stroke-width="2" points="357.1895,-117.297 362.5578,-108.1628 352.6651,-111.9556 357.1895,-117.297"/>
</g>
<!-- 7 -->
<g id="node8" class="node">
<title>7</title>
<path fill="none" stroke="#56d863" stroke-width="2" d="M476,-396C476,-396 402,-396 402,-396 396,-396 390,-390 390,-384 390,-384 390,-372 390,-372 390,-366 396,-360 402,-360 402,-360 476,-360 476,-360 482,-360 488,-366 488,-372 488,-372 488,-384 488,-384 488,-390 482,-396 476,-396"/>
<text text-anchor="middle" x="439" y="-375.5" font-family="sans" font-size="10.00" fill="#000000">trimmomatic_pe</text>
</g>
<!-- 7&#45;&gt;6 -->
<g id="edge18" class="edge">
<title>7&#45;&gt;6</title>
<path fill="none" stroke="#c0c0c0" stroke-width="2" d="M427.3045,-359.9555C402.6501,-321.9173 345.2409,-233.3431 316.3138,-188.7127"/>
<polygon fill="#c0c0c0" stroke="#c0c0c0" stroke-width="2" points="319.1367,-186.633 310.7607,-180.1451 313.2626,-190.4403 319.1367,-186.633"/>
</g>
<!-- 7&#45;&gt;8 -->
<g id="edge20" class="edge">
<title>7&#45;&gt;8</title>
<path fill="none" stroke="#c0c0c0" stroke-width="2" d="M410.7082,-359.9941C396.117,-350.1353 378.4082,-337.2502 364,-324 342.6052,-304.3247 321.3615,-278.9383 306.6248,-260.1461"/>
<polygon fill="#c0c0c0" stroke="#c0c0c0" stroke-width="2" points="309.2235,-257.7853 300.3346,-252.0201 303.6881,-262.0702 309.2235,-257.7853"/>
</g>
<!-- 9 -->
<g id="node10" class="node">
<title>9</title>
<path fill="none" stroke="#56d8c1" stroke-width="2" d="M589,-180C589,-180 497,-180 497,-180 491,-180 485,-174 485,-168 485,-168 485,-156 485,-156 485,-150 491,-144 497,-144 497,-144 589,-144 589,-144 595,-144 601,-150 601,-156 601,-156 601,-168 601,-168 601,-174 595,-180 589,-180"/>
<text text-anchor="middle" x="543" y="-159.5" font-family="sans" font-size="10.00" fill="#000000">polypolish_unicycler</text>
</g>
<!-- 7&#45;&gt;9 -->
<g id="edge22" class="edge">
<title>7&#45;&gt;9</title>
<path fill="none" stroke="#c0c0c0" stroke-width="2" d="M439.8829,-359.5734C442.1567,-327.9429 450.2545,-262.2592 479,-216 485.9627,-204.7952 496.0305,-194.749 506.1274,-186.4479"/>
<polygon fill="#c0c0c0" stroke="#c0c0c0" stroke-width="2" points="508.4378,-189.0846 514.1723,-180.1759 504.1338,-183.5641 508.4378,-189.0846"/>
</g>
<!-- 7&#45;&gt;10 -->
<g id="edge25" class="edge">
<title>7&#45;&gt;10</title>
<path fill="none" stroke="#c0c0c0" stroke-width="2" d="M486.188,-359.8314C516.906,-348.0041 556.5462,-332.7416 585.7687,-321.4901"/>
<polygon fill="#c0c0c0" stroke="#c0c0c0" stroke-width="2" points="587.1771,-324.6984 595.2517,-317.8389 584.6619,-318.1659 587.1771,-324.6984"/>
</g>
<!-- 11 -->
<g id="node12" class="node">
<title>11</title>
<path fill="none" stroke="#5673d8" stroke-width="2" d="M586,-252C586,-252 500,-252 500,-252 494,-252 488,-246 488,-240 488,-240 488,-228 488,-228 488,-222 494,-216 500,-216 500,-216 586,-216 586,-216 592,-216 598,-222 598,-228 598,-228 598,-240 598,-240 598,-246 592,-252 586,-252"/>
<text text-anchor="middle" x="543" y="-231.5" font-family="sans" font-size="10.00" fill="#000000">bwaalign_unicycler</text>
</g>
<!-- 7&#45;&gt;11 -->
<g id="edge27" class="edge">
<title>7&#45;&gt;11</title>
<path fill="none" stroke="#c0c0c0" stroke-width="2" d="M452.1717,-359.7623C470.3011,-334.66 503.0599,-289.3017 523.8849,-260.4671"/>
<polygon fill="#c0c0c0" stroke="#c0c0c0" stroke-width="2" points="526.9177,-262.2457 529.9353,-252.0896 521.2429,-258.1472 526.9177,-262.2457"/>
</g>
<!-- 8&#45;&gt;6 -->
<g id="edge16" class="edge">
<title>8&#45;&gt;6</title>
<path fill="none" stroke="#c0c0c0" stroke-width="2" d="M290.0281,-215.8314C291.3115,-208.131 292.8376,-198.9743 294.2639,-190.4166"/>
<polygon fill="#c0c0c0" stroke="#c0c0c0" stroke-width="2" points="297.7394,-190.8526 295.9311,-180.4133 290.8347,-189.7018 297.7394,-190.8526"/>
</g>
<!-- 9&#45;&gt;0 -->
<g id="edge7" class="edge">
<title>9&#45;&gt;0</title>
<path fill="none" stroke="#c0c0c0" stroke-width="2" d="M523.7334,-143.9326C500.7898,-123.4152 460.4627,-90.4079 420,-72 352.723,-41.3933 266.6735,-27.4577 218.3253,-21.6625"/>
<polygon fill="#c0c0c0" stroke="#c0c0c0" stroke-width="2" points="218.6474,-18.1766 208.3139,-20.5149 217.8502,-25.1311 218.6474,-18.1766"/>
</g>
<!-- 9&#45;&gt;12 -->
<g id="edge29" class="edge">
<title>9&#45;&gt;12</title>
<path fill="none" stroke="#c0c0c0" stroke-width="2" d="M484.609,-147.1678C445.6728,-136.9502 393.4812,-122.624 348,-108 343.9719,-106.7048 339.7833,-105.2834 335.6268,-103.8248"/>
<polygon fill="#c0c0c0" stroke="#c0c0c0" stroke-width="2" points="336.6712,-100.4811 326.0767,-100.396 334.3058,-107.0693 336.6712,-100.4811"/>
</g>
<!-- 9&#45;&gt;13 -->
<g id="edge33" class="edge">
<title>9&#45;&gt;13</title>
<path fill="none" stroke="#c0c0c0" stroke-width="2" d="M543,-143.8314C543,-136.131 543,-126.9743 543,-118.4166"/>
<polygon fill="#c0c0c0" stroke="#c0c0c0" stroke-width="2" points="546.5001,-118.4132 543,-108.4133 539.5001,-118.4133 546.5001,-118.4132"/>
</g>
<!-- 9&#45;&gt;14 -->
<g id="edge37" class="edge">
<title>9&#45;&gt;14</title>
<path fill="none" stroke="#c0c0c0" stroke-width="2" d="M502.8776,-143.8314C477.5382,-132.3569 445.0584,-117.6491 420.454,-106.5075"/>
<polygon fill="#c0c0c0" stroke="#c0c0c0" stroke-width="2" points="421.6607,-103.2118 411.1073,-102.275 418.7731,-109.5885 421.6607,-103.2118"/>
</g>
<!-- 10&#45;&gt;9 -->
<g id="edge21" class="edge">
<title>10&#45;&gt;9</title>
<path fill="none" stroke="#c0c0c0" stroke-width="2" d="M625.5891,-287.8417C624.4102,-268.7181 620.3607,-238.3396 607,-216 600.2289,-204.6784 590.2168,-194.5982 580.1121,-186.3019"/>
<polygon fill="#c0c0c0" stroke="#c0c0c0" stroke-width="2" points="582.0938,-183.4094 572.0487,-180.0412 577.8009,-188.9385 582.0938,-183.4094"/>
</g>
<!-- 10&#45;&gt;11 -->
<g id="edge26" class="edge">
<title>10&#45;&gt;11</title>
<path fill="none" stroke="#c0c0c0" stroke-width="2" d="M605.0556,-287.8314C594.9309,-279.0485 582.6223,-268.3712 571.6452,-258.8489"/>
<polygon fill="#c0c0c0" stroke="#c0c0c0" stroke-width="2" points="573.7851,-256.0718 563.9377,-252.1628 569.1981,-261.3595 573.7851,-256.0718"/>
</g>
<!-- 10&#45;&gt;12 -->
<g id="edge31" class="edge">
<title>10&#45;&gt;12</title>
<path fill="none" stroke="#c0c0c0" stroke-width="2" d="M595.4947,-298.4668C564.6654,-290.0326 516.3734,-274.5263 479,-252 415.0611,-213.4616 353.2195,-150.4436 321.3285,-115.4476"/>
<polygon fill="#c0c0c0" stroke="#c0c0c0" stroke-width="2" points="323.9163,-113.0909 314.6187,-108.0109 318.719,-117.7801 323.9163,-113.0909"/>
</g>
<!-- 10&#45;&gt;13 -->
<g id="edge35" class="edge">
<title>10&#45;&gt;13</title>
<path fill="none" stroke="#c0c0c0" stroke-width="2" d="M650.5801,-287.7772C661.1482,-278.4022 672.3543,-266.0021 678,-252 695.9497,-207.4825 704.9102,-183.7472 678,-144 656.3216,-111.9802 612.2499,-98.9453 580.346,-93.6398"/>
<polygon fill="#c0c0c0" stroke="#c0c0c0" stroke-width="2" points="580.4464,-90.1169 570.0428,-92.1207 579.4252,-97.042 580.4464,-90.1169"/>
</g>
<!-- 10&#45;&gt;14 -->
<g id="edge39" class="edge">
<title>10&#45;&gt;14</title>
<path fill="none" stroke="#c0c0c0" stroke-width="2" d="M630.6847,-287.8914C638.1591,-254.3354 648.3182,-182.4209 610,-144 596.6701,-130.6344 482.0204,-107.9465 421.3345,-96.7129"/>
<polygon fill="#c0c0c0" stroke="#c0c0c0" stroke-width="2" points="421.8421,-93.2476 411.3741,-94.8823 420.5767,-100.1323 421.8421,-93.2476"/>
</g>
<!-- 11&#45;&gt;9 -->
<g id="edge23" class="edge">
<title>11&#45;&gt;9</title>
<path fill="none" stroke="#c0c0c0" stroke-width="2" d="M543,-215.8314C543,-208.131 543,-198.9743 543,-190.4166"/>
<polygon fill="#c0c0c0" stroke="#c0c0c0" stroke-width="2" points="546.5001,-190.4132 543,-180.4133 539.5001,-190.4133 546.5001,-190.4132"/>
</g>
<!-- 12&#45;&gt;0 -->
<g id="edge10" class="edge">
<title>12&#45;&gt;0</title>
<path fill="none" stroke="#c0c0c0" stroke-width="2" d="M271.9284,-73.4817C255.7046,-63.5825 234.8715,-50.8707 217.2407,-40.113"/>
<polygon fill="#c0c0c0" stroke="#c0c0c0" stroke-width="2" points="218.7137,-36.9117 208.3542,-34.6907 215.0676,-42.8872 218.7137,-36.9117"/>
</g>
<!-- 13&#45;&gt;0 -->
<g id="edge5" class="edge">
<title>13&#45;&gt;0</title>
<path fill="none" stroke="#c0c0c0" stroke-width="2" d="M515.9412,-81.9182C504.3224,-78.6012 490.5557,-74.8737 478,-72 385.1796,-50.7554 274.5097,-32.4659 218.0825,-23.6381"/>
<polygon fill="#c0c0c0" stroke="#c0c0c0" stroke-width="2" points="218.613,-20.1786 208.1941,-22.1013 217.5379,-27.0956 218.613,-20.1786"/>
</g>
<!-- 14&#45;&gt;0 -->
<g id="edge2" class="edge">
<title>14&#45;&gt;0</title>
<path fill="none" stroke="#c0c0c0" stroke-width="2" d="M356.8119,-79.9313C349.7195,-77.3271 342.0798,-74.5415 335,-72 294.9369,-57.6183 248.8567,-41.5183 217.6207,-30.6702"/>
<polygon fill="#c0c0c0" stroke="#c0c0c0" stroke-width="2" points="218.622,-27.313 208.0272,-27.3415 216.3273,-33.9262 218.622,-27.313"/>
</g>
</g>
</svg>
