<?xml version="1.0" encoding="UTF-8" standalone="no"?>
<!DOCTYPE svg PUBLIC "-//W3C//DTD SVG 1.1//EN"
 "http://www.w3.org/Graphics/SVG/1.1/DTD/svg11.dtd">
<!-- Generated by graphviz version 2.40.1 (0)
 -->
<!-- Title: snakemake_dag Pages: 1 -->
<svg width="621pt" height="409pt"
 viewBox="0.00 0.00 621.00 409.00" xmlns="http://www.w3.org/2000/svg" xmlns:xlink="http://www.w3.org/1999/xlink">
<g id="graph0" class="graph" transform="scale(1 1) rotate(0) translate(4 405)">
<title>snakemake_dag</title>
<polygon fill="#ffffff" stroke="transparent" points="-4,4 -4,-405 617,-405 617,4 -4,4"/>
<!-- 0 -->
<g id="node1" class="node">
<title>0</title>
<path fill="none" stroke="#56d89a" stroke-width="2" d="M432,-36C432,-36 402,-36 402,-36 396,-36 390,-30 390,-24 390,-24 390,-12 390,-12 390,-6 396,0 402,0 402,0 432,0 432,0 438,0 444,-6 444,-12 444,-12 444,-24 444,-24 444,-30 438,-36 432,-36"/>
<text text-anchor="middle" x="417" y="-15.5" font-family="sans" font-size="10.00" fill="#000000">all</text>
</g>
<!-- 1 -->
<g id="node2" class="node">
<title>1</title>
<path fill="none" stroke="#d88556" stroke-width="2" d="M274,-108C274,-108 12,-108 12,-108 6,-108 0,-102 0,-96 0,-96 0,-84 0,-84 0,-78 6,-72 12,-72 12,-72 274,-72 274,-72 280,-72 286,-78 286,-84 286,-84 286,-96 286,-96 286,-102 280,-108 274,-108"/>
<text text-anchor="middle" x="143" y="-93" font-family="sans" font-size="10.00" fill="#000000">pycoqc</text>
<text text-anchor="middle" x="143" y="-82" font-family="sans" font-size="10.00" fill="#000000">prefix: 20210107_2213_MN35107_FAO13840_83e8e224</text>
</g>
<!-- 1&#45;&gt;0 -->
<g id="edge1" class="edge">
<title>1&#45;&gt;0</title>
<path fill="none" stroke="#c0c0c0" stroke-width="2" d="M211.7881,-71.9243C265.2081,-57.8869 337.2049,-38.9681 380.184,-27.6743"/>
<polygon fill="#c0c0c0" stroke="#c0c0c0" stroke-width="2" points="381.1546,-31.0381 389.9367,-25.1115 379.3755,-24.268 381.1546,-31.0381"/>
</g>
<!-- 2 -->
<g id="node3" class="node">
<title>2</title>
<path fill="none" stroke="#9fd856" stroke-width="2" d="M441.5,-329C441.5,-329 352.5,-329 352.5,-329 346.5,-329 340.5,-323 340.5,-317 340.5,-317 340.5,-300 340.5,-300 340.5,-294 346.5,-288 352.5,-288 352.5,-288 441.5,-288 441.5,-288 447.5,-288 453.5,-294 453.5,-300 453.5,-300 453.5,-317 453.5,-317 453.5,-323 447.5,-329 441.5,-329"/>
<text text-anchor="middle" x="397" y="-317" font-family="sans" font-size="10.00" fill="#000000">trimmomatic_pe</text>
<text text-anchor="middle" x="397" y="-306" font-family="sans" font-size="10.00" fill="#000000">barcode: barcode01</text>
<text text-anchor="middle" x="397" y="-295" font-family="sans" font-size="10.00" fill="#000000">sample: 309a</text>
</g>
<!-- 2&#45;&gt;0 -->
<g id="edge2" class="edge">
<title>2&#45;&gt;0</title>
<path fill="none" stroke="#c0c0c0" stroke-width="2" d="M426.0645,-287.8259C455.0728,-265.1891 497.7419,-225.9316 515,-180 531.8829,-135.0671 539.4139,-113.3275 515,-72 501.805,-49.6637 475.7074,-35.9363 453.7597,-27.9143"/>
<polygon fill="#c0c0c0" stroke="#c0c0c0" stroke-width="2" points="454.6233,-24.5115 444.029,-24.6195 452.3783,-31.1418 454.6233,-24.5115"/>
</g>
<!-- 3 -->
<g id="node4" class="node">
<title>3</title>
<path fill="none" stroke="#d85656" stroke-width="2" d="M493.5,-108C493.5,-108 450.5,-108 450.5,-108 444.5,-108 438.5,-102 438.5,-96 438.5,-96 438.5,-84 438.5,-84 438.5,-78 444.5,-72 450.5,-72 450.5,-72 493.5,-72 493.5,-72 499.5,-72 505.5,-78 505.5,-84 505.5,-84 505.5,-96 505.5,-96 505.5,-102 499.5,-108 493.5,-108"/>
<text text-anchor="middle" x="472" y="-87.5" font-family="sans" font-size="10.00" fill="#000000">polypolish</text>
</g>
<!-- 2&#45;&gt;3 -->
<g id="edge5" class="edge">
<title>2&#45;&gt;3</title>
<path fill="none" stroke="#c0c0c0" stroke-width="2" d="M399.5136,-287.7528C403.9082,-255.805 414.6292,-193.1172 436,-144 440.1371,-134.4916 445.9522,-124.8408 451.7042,-116.3788"/>
<polygon fill="#c0c0c0" stroke="#c0c0c0" stroke-width="2" points="454.6813,-118.2309 457.6026,-108.0468 448.968,-114.1864 454.6813,-118.2309"/>
</g>
<!-- 7 -->
<g id="node8" class="node">
<title>7</title>
<path fill="none" stroke="#70d856" stroke-width="2" d="M493.5,-180C493.5,-180 456.5,-180 456.5,-180 450.5,-180 444.5,-174 444.5,-168 444.5,-168 444.5,-156 444.5,-156 444.5,-150 450.5,-144 456.5,-144 456.5,-144 493.5,-144 493.5,-144 499.5,-144 505.5,-150 505.5,-156 505.5,-156 505.5,-168 505.5,-168 505.5,-174 499.5,-180 493.5,-180"/>
<text text-anchor="middle" x="475" y="-159.5" font-family="sans" font-size="10.00" fill="#000000">bwaalign</text>
</g>
<!-- 2&#45;&gt;7 -->
<g id="edge11" class="edge">
<title>2&#45;&gt;7</title>
<path fill="none" stroke="#c0c0c0" stroke-width="2" d="M409.5507,-287.755C415.8544,-277.1517 423.511,-263.9879 430,-252 441.2265,-231.26 453.1267,-207.366 461.868,-189.4121"/>
<polygon fill="#c0c0c0" stroke="#c0c0c0" stroke-width="2" points="465.1659,-190.6322 466.375,-180.1065 458.8659,-187.5809 465.1659,-190.6322"/>
</g>
<!-- 8 -->
<g id="node9" class="node">
<title>8</title>
<path fill="none" stroke="#ced856" stroke-width="2" d="M408,-108C408,-108 316,-108 316,-108 310,-108 304,-102 304,-96 304,-96 304,-84 304,-84 304,-78 310,-72 316,-72 316,-72 408,-72 408,-72 414,-72 420,-78 420,-84 420,-84 420,-96 420,-96 420,-102 414,-108 408,-108"/>
<text text-anchor="middle" x="362" y="-87.5" font-family="sans" font-size="10.00" fill="#000000">polypolish_unicycler</text>
</g>
<!-- 2&#45;&gt;8 -->
<g id="edge13" class="edge">
<title>2&#45;&gt;8</title>
<path fill="none" stroke="#c0c0c0" stroke-width="2" d="M393.7073,-287.9441C387.4056,-248.6037 373.633,-162.6231 366.4929,-118.0484"/>
<polygon fill="#c0c0c0" stroke="#c0c0c0" stroke-width="2" points="369.9485,-117.4921 364.9108,-108.1716 363.0366,-118.5993 369.9485,-117.4921"/>
</g>
<!-- 9 -->
<g id="node10" class="node">
<title>9</title>
<path fill="none" stroke="#d8b456" stroke-width="2" d="M299.5,-252C299.5,-252 262.5,-252 262.5,-252 256.5,-252 250.5,-246 250.5,-240 250.5,-240 250.5,-228 250.5,-228 250.5,-222 256.5,-216 262.5,-216 262.5,-216 299.5,-216 299.5,-216 305.5,-216 311.5,-222 311.5,-228 311.5,-228 311.5,-240 311.5,-240 311.5,-246 305.5,-252 299.5,-252"/>
<text text-anchor="middle" x="281" y="-231.5" font-family="sans" font-size="10.00" fill="#000000">unicycler</text>
</g>
<!-- 2&#45;&gt;9 -->
<g id="edge16" class="edge">
<title>2&#45;&gt;9</title>
<path fill="none" stroke="#c0c0c0" stroke-width="2" d="M364.9954,-287.9453C350.4201,-278.5845 333.0832,-267.45 317.9559,-257.7346"/>
<polygon fill="#c0c0c0" stroke="#c0c0c0" stroke-width="2" points="319.6475,-254.6614 309.342,-252.2024 315.8648,-260.5513 319.6475,-254.6614"/>
</g>
<!-- 10 -->
<g id="node11" class="node">
<title>10</title>
<path fill="none" stroke="#56d8c9" stroke-width="2" d="M338,-180C338,-180 252,-180 252,-180 246,-180 240,-174 240,-168 240,-168 240,-156 240,-156 240,-150 246,-144 252,-144 252,-144 338,-144 338,-144 344,-144 350,-150 350,-156 350,-156 350,-168 350,-168 350,-174 344,-180 338,-180"/>
<text text-anchor="middle" x="295" y="-159.5" font-family="sans" font-size="10.00" fill="#000000">bwaalign_unicycler</text>
</g>
<!-- 2&#45;&gt;10 -->
<g id="edge18" class="edge">
<title>2&#45;&gt;10</title>
<path fill="none" stroke="#c0c0c0" stroke-width="2" d="M382.6022,-287.8208C364.4872,-261.8027 333.3505,-217.0819 313.4912,-188.5585"/>
<polygon fill="#c0c0c0" stroke="#c0c0c0" stroke-width="2" points="316.3033,-186.4719 307.717,-180.265 310.5585,-190.4717 316.3033,-186.4719"/>
</g>
<!-- 3&#45;&gt;0 -->
<g id="edge3" class="edge">
<title>3&#45;&gt;0</title>
<path fill="none" stroke="#c0c0c0" stroke-width="2" d="M458.1212,-71.8314C451.7864,-63.5386 444.1616,-53.557 437.2074,-44.4533"/>
<polygon fill="#c0c0c0" stroke="#c0c0c0" stroke-width="2" points="439.9175,-42.2353 431.0657,-36.4133 434.3548,-46.4847 439.9175,-42.2353"/>
</g>
<!-- 4 -->
<g id="node5" class="node">
<title>4</title>
<path fill="none" stroke="#5682d8" stroke-width="2" d="M601,-252C601,-252 569,-252 569,-252 563,-252 557,-246 557,-240 557,-240 557,-228 557,-228 557,-222 563,-216 569,-216 569,-216 601,-216 601,-216 607,-216 613,-222 613,-228 613,-228 613,-240 613,-240 613,-246 607,-252 601,-252"/>
<text text-anchor="middle" x="585" y="-231.5" font-family="sans" font-size="10.00" fill="#000000">medaka</text>
</g>
<!-- 4&#45;&gt;3 -->
<g id="edge6" class="edge">
<title>4&#45;&gt;3</title>
<path fill="none" stroke="#c0c0c0" stroke-width="2" d="M570.8499,-215.6807C556.7536,-197.461 534.4646,-168.7329 515,-144 507.9231,-135.0077 500.1433,-125.211 493.1694,-116.461"/>
<polygon fill="#c0c0c0" stroke="#c0c0c0" stroke-width="2" points="495.7524,-114.0864 486.7794,-108.4529 490.2808,-118.4524 495.7524,-114.0864"/>
</g>
<!-- 4&#45;&gt;7 -->
<g id="edge12" class="edge">
<title>4&#45;&gt;7</title>
<path fill="none" stroke="#c0c0c0" stroke-width="2" d="M557.2424,-215.8314C543.303,-206.7074 526.2402,-195.539 511.2769,-185.7449"/>
<polygon fill="#c0c0c0" stroke="#c0c0c0" stroke-width="2" points="513.0326,-182.711 502.7488,-180.1628 509.199,-188.5679 513.0326,-182.711"/>
</g>
<!-- 5 -->
<g id="node6" class="node">
<title>5</title>
<path fill="none" stroke="#56b1d8" stroke-width="2" d="M600,-326.5C600,-326.5 570,-326.5 570,-326.5 564,-326.5 558,-320.5 558,-314.5 558,-314.5 558,-302.5 558,-302.5 558,-296.5 564,-290.5 570,-290.5 570,-290.5 600,-290.5 600,-290.5 606,-290.5 612,-296.5 612,-302.5 612,-302.5 612,-314.5 612,-314.5 612,-320.5 606,-326.5 600,-326.5"/>
<text text-anchor="middle" x="585" y="-306" font-family="sans" font-size="10.00" fill="#000000">flye</text>
</g>
<!-- 5&#45;&gt;4 -->
<g id="edge8" class="edge">
<title>5&#45;&gt;4</title>
<path fill="none" stroke="#c0c0c0" stroke-width="2" d="M585,-290.4656C585,-282.0178 585,-271.7542 585,-262.3064"/>
<polygon fill="#c0c0c0" stroke="#c0c0c0" stroke-width="2" points="588.5001,-262.1265 585,-252.1265 581.5001,-262.1265 588.5001,-262.1265"/>
</g>
<!-- 6 -->
<g id="node7" class="node">
<title>6</title>
<path fill="none" stroke="#56d86b" stroke-width="2" d="M575,-401C575,-401 485,-401 485,-401 479,-401 473,-395 473,-389 473,-389 473,-377 473,-377 473,-371 479,-365 485,-365 485,-365 575,-365 575,-365 581,-365 587,-371 587,-377 587,-377 587,-389 587,-389 587,-395 581,-401 575,-401"/>
<text text-anchor="middle" x="530" y="-386" font-family="sans" font-size="10.00" fill="#000000">trim_nano_adaptors</text>
<text text-anchor="middle" x="530" y="-375" font-family="sans" font-size="10.00" fill="#000000">barcode: barcode01</text>
</g>
<!-- 6&#45;&gt;4 -->
<g id="edge9" class="edge">
<title>6&#45;&gt;4</title>
<path fill="none" stroke="#c0c0c0" stroke-width="2" d="M531.5079,-364.8847C533.6152,-345.3051 538.444,-313.4846 549,-288 552.9042,-278.5744 558.5503,-269.0609 564.2176,-260.7008"/>
<polygon fill="#c0c0c0" stroke="#c0c0c0" stroke-width="2" points="567.1325,-262.6409 570.0592,-252.4583 561.4213,-258.5933 567.1325,-262.6409"/>
</g>
<!-- 6&#45;&gt;5 -->
<g id="edge10" class="edge">
<title>6&#45;&gt;5</title>
<path fill="none" stroke="#c0c0c0" stroke-width="2" d="M543.314,-364.9656C550.02,-355.8819 558.276,-344.6989 565.6665,-334.6881"/>
<polygon fill="#c0c0c0" stroke="#c0c0c0" stroke-width="2" points="568.4944,-336.7504 571.618,-326.6265 562.8628,-332.5929 568.4944,-336.7504"/>
</g>
<!-- 6&#45;&gt;9 -->
<g id="edge17" class="edge">
<title>6&#45;&gt;9</title>
<path fill="none" stroke="#c0c0c0" stroke-width="2" d="M472.9208,-372.64C422.514,-362.5724 353.7461,-346.3058 332,-329 310.5039,-311.8932 296.8934,-283.1792 289.1917,-261.7881"/>
<polygon fill="#c0c0c0" stroke="#c0c0c0" stroke-width="2" points="292.4863,-260.6046 285.9693,-252.2512 285.8546,-262.8454 292.4863,-260.6046"/>
</g>
<!-- 7&#45;&gt;3 -->
<g id="edge7" class="edge">
<title>7&#45;&gt;3</title>
<path fill="none" stroke="#c0c0c0" stroke-width="2" d="M474.243,-143.8314C473.9221,-136.131 473.5406,-126.9743 473.184,-118.4166"/>
<polygon fill="#c0c0c0" stroke="#c0c0c0" stroke-width="2" points="476.6806,-118.2589 472.7672,-108.4133 469.6867,-118.5503 476.6806,-118.2589"/>
</g>
<!-- 8&#45;&gt;0 -->
<g id="edge4" class="edge">
<title>8&#45;&gt;0</title>
<path fill="none" stroke="#c0c0c0" stroke-width="2" d="M375.8788,-71.8314C382.2136,-63.5386 389.8384,-53.557 396.7926,-44.4533"/>
<polygon fill="#c0c0c0" stroke="#c0c0c0" stroke-width="2" points="399.6452,-46.4847 402.9343,-36.4133 394.0825,-42.2353 399.6452,-46.4847"/>
</g>
<!-- 9&#45;&gt;8 -->
<g id="edge14" class="edge">
<title>9&#45;&gt;8</title>
<path fill="none" stroke="#c0c0c0" stroke-width="2" d="M258.8402,-215.8965C238.8949,-197.3458 214.9915,-167.9141 231,-144 238.8954,-132.2055 266.2901,-120.072 294.0009,-110.3016"/>
<polygon fill="#c0c0c0" stroke="#c0c0c0" stroke-width="2" points="295.4592,-113.5017 303.7843,-106.9487 293.1897,-106.8798 295.4592,-113.5017"/>
</g>
<!-- 9&#45;&gt;10 -->
<g id="edge19" class="edge">
<title>9&#45;&gt;10</title>
<path fill="none" stroke="#c0c0c0" stroke-width="2" d="M284.5328,-215.8314C286.0301,-208.131 287.8105,-198.9743 289.4745,-190.4166"/>
<polygon fill="#c0c0c0" stroke="#c0c0c0" stroke-width="2" points="292.9465,-190.8975 291.4196,-180.4133 286.0752,-189.5614 292.9465,-190.8975"/>
</g>
<!-- 10&#45;&gt;8 -->
<g id="edge15" class="edge">
<title>10&#45;&gt;8</title>
<path fill="none" stroke="#c0c0c0" stroke-width="2" d="M311.9069,-143.8314C319.7813,-135.3694 329.292,-125.1489 337.9013,-115.8971"/>
<polygon fill="#c0c0c0" stroke="#c0c0c0" stroke-width="2" points="340.6153,-118.1183 344.8654,-108.4133 335.4908,-113.3497 340.6153,-118.1183"/>
</g>
</g>
</svg>
