<?xml version="1.0" encoding="UTF-8" standalone="no"?>
<!DOCTYPE svg PUBLIC "-//W3C//DTD SVG 1.1//EN"
 "http://www.w3.org/Graphics/SVG/1.1/DTD/svg11.dtd">
<!-- Generated by graphviz version 7.1.0 (20230122.1345)
 -->
<!-- Title: snakemake_dag Pages: 1 -->
<svg width="1890pt" height="508pt"
 viewBox="0.00 0.00 1890.00 508.00" xmlns="http://www.w3.org/2000/svg" xmlns:xlink="http://www.w3.org/1999/xlink">
<g id="graph0" class="graph" transform="scale(1 1) rotate(0) translate(4 504)">
<title>snakemake_dag</title>
<polygon fill="white" stroke="none" points="-4,4 -4,-504 1886,-504 1886,4 -4,4"/>
<!-- 0 -->
<g id="node1" class="node">
<title>0</title>
<path fill="none" stroke="#ced856" stroke-width="2" d="M1024.5,-36C1024.5,-36 994.5,-36 994.5,-36 988.5,-36 982.5,-30 982.5,-24 982.5,-24 982.5,-12 982.5,-12 982.5,-6 988.5,0 994.5,0 994.5,0 1024.5,0 1024.5,0 1030.5,0 1036.5,-6 1036.5,-12 1036.5,-12 1036.5,-24 1036.5,-24 1036.5,-30 1030.5,-36 1024.5,-36"/>
<text text-anchor="middle" x="1009.5" y="-15.5" font-family="sans" font-size="10.00">all</text>
</g>
<!-- 1 -->
<g id="node2" class="node">
<title>1</title>
<path fill="none" stroke="#afd856" stroke-width="2" d="M275,-108C275,-108 12,-108 12,-108 6,-108 0,-102 0,-96 0,-96 0,-84 0,-84 0,-78 6,-72 12,-72 12,-72 275,-72 275,-72 281,-72 287,-78 287,-84 287,-84 287,-96 287,-96 287,-102 281,-108 275,-108"/>
<text text-anchor="middle" x="143.5" y="-93" font-family="sans" font-size="10.00">pycoqc</text>
<text text-anchor="middle" x="143.5" y="-82" font-family="sans" font-size="10.00">prefix: 20210107_2213_MN35107_FAO13840_83e8e224</text>
</g>
<!-- 1&#45;&gt;0 -->
<g id="edge1" class="edge">
<title>1&#45;&gt;0</title>
<path fill="none" stroke="grey" stroke-width="2" d="M287.71,-73.29C292.36,-72.84 296.97,-72.41 301.5,-72 555.18,-48.86 860.68,-28.54 969.01,-21.57"/>
<polygon fill="grey" stroke="grey" stroke-width="2" points="969.03,-25.07 978.79,-20.94 968.58,-18.09 969.03,-25.07"/>
</g>
<!-- 2 -->
<g id="node3" class="node">
<title>2</title>
<path fill="none" stroke="#d89c56" stroke-width="2" d="M728,-412C728,-412 465,-412 465,-412 459,-412 453,-406 453,-400 453,-400 453,-372 453,-372 453,-366 459,-360 465,-360 465,-360 728,-360 728,-360 734,-360 740,-366 740,-372 740,-372 740,-400 740,-400 740,-406 734,-412 728,-412"/>
<text text-anchor="middle" x="596.5" y="-400" font-family="sans" font-size="10.00">trimmomatic_pe</text>
<text text-anchor="middle" x="596.5" y="-389" font-family="sans" font-size="10.00">barcode: barcode01</text>
<text text-anchor="middle" x="596.5" y="-378" font-family="sans" font-size="10.00">prefix: 20210107_2213_MN35107_FAO13840_83e8e224</text>
<text text-anchor="middle" x="596.5" y="-367" font-family="sans" font-size="10.00">sample: 309a</text>
</g>
<!-- 2&#45;&gt;0 -->
<g id="edge2" class="edge">
<title>2&#45;&gt;0</title>
<path fill="none" stroke="grey" stroke-width="2" d="M452.3,-362.03C383.3,-341.96 315.5,-304.54 315.5,-235 315.5,-235 315.5,-235 315.5,-161 315.5,-26.68 820.75,-18.2 969.05,-18.6"/>
<polygon fill="grey" stroke="grey" stroke-width="2" points="968.82,-22.1 978.84,-18.64 968.86,-15.1 968.82,-22.1"/>
</g>
<!-- 4 -->
<g id="node5" class="node">
<title>4</title>
<path fill="none" stroke="#88d856" stroke-width="2" d="M863,-180C863,-180 820,-180 820,-180 814,-180 808,-174 808,-168 808,-168 808,-156 808,-156 808,-150 814,-144 820,-144 820,-144 863,-144 863,-144 869,-144 875,-150 875,-156 875,-156 875,-168 875,-168 875,-174 869,-180 863,-180"/>
<text text-anchor="middle" x="841.5" y="-159.5" font-family="sans" font-size="10.00">polypolish</text>
</g>
<!-- 2&#45;&gt;4 -->
<g id="edge15" class="edge">
<title>2&#45;&gt;4</title>
<path fill="none" stroke="grey" stroke-width="2" d="M621.37,-359.34C640.88,-339.47 668.92,-311.47 694.5,-288 733.03,-252.64 779.23,-213.93 809.41,-189.1"/>
<polygon fill="grey" stroke="grey" stroke-width="2" points="811.53,-191.89 817.05,-182.84 807.09,-186.48 811.53,-191.89"/>
</g>
<!-- 8 -->
<g id="node9" class="node">
<title>8</title>
<path fill="none" stroke="#56d8d0" stroke-width="2" d="M863,-252C863,-252 826,-252 826,-252 820,-252 814,-246 814,-240 814,-240 814,-228 814,-228 814,-222 820,-216 826,-216 826,-216 863,-216 863,-216 869,-216 875,-222 875,-228 875,-228 875,-240 875,-240 875,-246 869,-252 863,-252"/>
<text text-anchor="middle" x="844.5" y="-231.5" font-family="sans" font-size="10.00">bwaalign</text>
</g>
<!-- 2&#45;&gt;8 -->
<g id="edge21" class="edge">
<title>2&#45;&gt;8</title>
<path fill="none" stroke="grey" stroke-width="2" d="M639.42,-359.04C685.68,-331.06 758.76,-286.86 804.05,-259.47"/>
<polygon fill="grey" stroke="grey" stroke-width="2" points="805.59,-262.62 812.34,-254.45 801.97,-256.63 805.59,-262.62"/>
</g>
<!-- 14 -->
<g id="node15" class="node">
<title>14</title>
<path fill="none" stroke="#569ad8" stroke-width="2" d="M631.5,-180C631.5,-180 539.5,-180 539.5,-180 533.5,-180 527.5,-174 527.5,-168 527.5,-168 527.5,-156 527.5,-156 527.5,-150 533.5,-144 539.5,-144 539.5,-144 631.5,-144 631.5,-144 637.5,-144 643.5,-150 643.5,-156 643.5,-156 643.5,-168 643.5,-168 643.5,-174 637.5,-180 631.5,-180"/>
<text text-anchor="middle" x="585.5" y="-159.5" font-family="sans" font-size="10.00">polypolish_unicycler</text>
</g>
<!-- 2&#45;&gt;14 -->
<g id="edge31" class="edge">
<title>2&#45;&gt;14</title>
<path fill="none" stroke="grey" stroke-width="2" d="M595.22,-359.1C593.18,-317.92 589.2,-237.69 587.02,-193.69"/>
<polygon fill="grey" stroke="grey" stroke-width="2" points="590.52,-193.61 586.53,-183.79 583.53,-193.96 590.52,-193.61"/>
</g>
<!-- 15 -->
<g id="node16" class="node">
<title>15</title>
<path fill="none" stroke="#68d856" stroke-width="2" d="M448,-324C448,-324 411,-324 411,-324 405,-324 399,-318 399,-312 399,-312 399,-300 399,-300 399,-294 405,-288 411,-288 411,-288 448,-288 448,-288 454,-288 460,-294 460,-300 460,-300 460,-312 460,-312 460,-318 454,-324 448,-324"/>
<text text-anchor="middle" x="429.5" y="-303.5" font-family="sans" font-size="10.00">unicycler</text>
</g>
<!-- 2&#45;&gt;15 -->
<g id="edge34" class="edge">
<title>2&#45;&gt;15</title>
<path fill="none" stroke="grey" stroke-width="2" d="M540.89,-359.03C518.52,-348.58 493.14,-336.72 472.26,-326.97"/>
<polygon fill="grey" stroke="grey" stroke-width="2" points="473.83,-323.84 463.28,-322.78 470.86,-330.18 473.83,-323.84"/>
</g>
<!-- 16 -->
<g id="node17" class="node">
<title>16</title>
<path fill="none" stroke="#d87556" stroke-width="2" d="M555.5,-252C555.5,-252 469.5,-252 469.5,-252 463.5,-252 457.5,-246 457.5,-240 457.5,-240 457.5,-228 457.5,-228 457.5,-222 463.5,-216 469.5,-216 469.5,-216 555.5,-216 555.5,-216 561.5,-216 567.5,-222 567.5,-228 567.5,-228 567.5,-240 567.5,-240 567.5,-246 561.5,-252 555.5,-252"/>
<text text-anchor="middle" x="512.5" y="-231.5" font-family="sans" font-size="10.00">bwaalign_unicycler</text>
</g>
<!-- 2&#45;&gt;16 -->
<g id="edge36" class="edge">
<title>2&#45;&gt;16</title>
<path fill="none" stroke="grey" stroke-width="2" d="M582.06,-359.21C567.27,-332.8 544.31,-291.81 528.86,-264.21"/>
<polygon fill="grey" stroke="grey" stroke-width="2" points="531.96,-262.59 524.02,-255.57 525.85,-266.01 531.96,-262.59"/>
</g>
<!-- 3 -->
<g id="node4" class="node">
<title>3</title>
<path fill="none" stroke="#d89c56" stroke-width="2" d="M1468,-412C1468,-412 1205,-412 1205,-412 1199,-412 1193,-406 1193,-400 1193,-400 1193,-372 1193,-372 1193,-366 1199,-360 1205,-360 1205,-360 1468,-360 1468,-360 1474,-360 1480,-366 1480,-372 1480,-372 1480,-400 1480,-400 1480,-406 1474,-412 1468,-412"/>
<text text-anchor="middle" x="1336.5" y="-400" font-family="sans" font-size="10.00">trimmomatic_pe</text>
<text text-anchor="middle" x="1336.5" y="-389" font-family="sans" font-size="10.00">barcode: barcode02</text>
<text text-anchor="middle" x="1336.5" y="-378" font-family="sans" font-size="10.00">prefix: 20210107_2213_MN35107_FAO13840_83e8e224</text>
<text text-anchor="middle" x="1336.5" y="-367" font-family="sans" font-size="10.00">sample: 311b</text>
</g>
<!-- 3&#45;&gt;0 -->
<g id="edge3" class="edge">
<title>3&#45;&gt;0</title>
<path fill="none" stroke="grey" stroke-width="2" d="M1192.3,-362.03C1123.3,-341.96 1055.5,-304.54 1055.5,-235 1055.5,-235 1055.5,-235 1055.5,-161 1055.5,-120.37 1038.24,-76.24 1024.87,-48.14"/>
<polygon fill="grey" stroke="grey" stroke-width="2" points="1028.17,-46.91 1020.6,-39.5 1021.89,-50.01 1028.17,-46.91"/>
</g>
<!-- 9 -->
<g id="node10" class="node">
<title>9</title>
<path fill="none" stroke="#88d856" stroke-width="2" d="M1571,-180C1571,-180 1528,-180 1528,-180 1522,-180 1516,-174 1516,-168 1516,-168 1516,-156 1516,-156 1516,-150 1522,-144 1528,-144 1528,-144 1571,-144 1571,-144 1577,-144 1583,-150 1583,-156 1583,-156 1583,-168 1583,-168 1583,-174 1577,-180 1571,-180"/>
<text text-anchor="middle" x="1549.5" y="-159.5" font-family="sans" font-size="10.00">polypolish</text>
</g>
<!-- 3&#45;&gt;9 -->
<g id="edge23" class="edge">
<title>3&#45;&gt;9</title>
<path fill="none" stroke="grey" stroke-width="2" d="M1361.35,-359.1C1401.97,-316.76 1482.2,-233.14 1523.54,-190.06"/>
<polygon fill="grey" stroke="grey" stroke-width="2" points="1525.96,-192.59 1530.35,-182.96 1520.91,-187.75 1525.96,-192.59"/>
</g>
<!-- 13 -->
<g id="node14" class="node">
<title>13</title>
<path fill="none" stroke="#56d8d0" stroke-width="2" d="M1603,-252C1603,-252 1566,-252 1566,-252 1560,-252 1554,-246 1554,-240 1554,-240 1554,-228 1554,-228 1554,-222 1560,-216 1566,-216 1566,-216 1603,-216 1603,-216 1609,-216 1615,-222 1615,-228 1615,-228 1615,-240 1615,-240 1615,-246 1609,-252 1603,-252"/>
<text text-anchor="middle" x="1584.5" y="-231.5" font-family="sans" font-size="10.00">bwaalign</text>
</g>
<!-- 3&#45;&gt;13 -->
<g id="edge29" class="edge">
<title>3&#45;&gt;13</title>
<path fill="none" stroke="grey" stroke-width="2" d="M1379.42,-359.04C1425.68,-331.06 1498.76,-286.86 1544.05,-259.47"/>
<polygon fill="grey" stroke="grey" stroke-width="2" points="1545.59,-262.62 1552.34,-254.45 1541.97,-256.63 1545.59,-262.62"/>
</g>
<!-- 17 -->
<g id="node18" class="node">
<title>17</title>
<path fill="none" stroke="#569ad8" stroke-width="2" d="M1371.5,-180C1371.5,-180 1279.5,-180 1279.5,-180 1273.5,-180 1267.5,-174 1267.5,-168 1267.5,-168 1267.5,-156 1267.5,-156 1267.5,-150 1273.5,-144 1279.5,-144 1279.5,-144 1371.5,-144 1371.5,-144 1377.5,-144 1383.5,-150 1383.5,-156 1383.5,-156 1383.5,-168 1383.5,-168 1383.5,-174 1377.5,-180 1371.5,-180"/>
<text text-anchor="middle" x="1325.5" y="-159.5" font-family="sans" font-size="10.00">polypolish_unicycler</text>
</g>
<!-- 3&#45;&gt;17 -->
<g id="edge38" class="edge">
<title>3&#45;&gt;17</title>
<path fill="none" stroke="grey" stroke-width="2" d="M1335.22,-359.1C1333.18,-317.92 1329.2,-237.69 1327.02,-193.69"/>
<polygon fill="grey" stroke="grey" stroke-width="2" points="1330.52,-193.61 1326.53,-183.79 1323.53,-193.96 1330.52,-193.61"/>
</g>
<!-- 18 -->
<g id="node19" class="node">
<title>18</title>
<path fill="none" stroke="#68d856" stroke-width="2" d="M1188,-324C1188,-324 1151,-324 1151,-324 1145,-324 1139,-318 1139,-312 1139,-312 1139,-300 1139,-300 1139,-294 1145,-288 1151,-288 1151,-288 1188,-288 1188,-288 1194,-288 1200,-294 1200,-300 1200,-300 1200,-312 1200,-312 1200,-318 1194,-324 1188,-324"/>
<text text-anchor="middle" x="1169.5" y="-303.5" font-family="sans" font-size="10.00">unicycler</text>
</g>
<!-- 3&#45;&gt;18 -->
<g id="edge41" class="edge">
<title>3&#45;&gt;18</title>
<path fill="none" stroke="grey" stroke-width="2" d="M1280.89,-359.03C1258.52,-348.58 1233.14,-336.72 1212.26,-326.97"/>
<polygon fill="grey" stroke="grey" stroke-width="2" points="1213.83,-323.84 1203.28,-322.78 1210.86,-330.18 1213.83,-323.84"/>
</g>
<!-- 19 -->
<g id="node20" class="node">
<title>19</title>
<path fill="none" stroke="#d87556" stroke-width="2" d="M1295.5,-252C1295.5,-252 1209.5,-252 1209.5,-252 1203.5,-252 1197.5,-246 1197.5,-240 1197.5,-240 1197.5,-228 1197.5,-228 1197.5,-222 1203.5,-216 1209.5,-216 1209.5,-216 1295.5,-216 1295.5,-216 1301.5,-216 1307.5,-222 1307.5,-228 1307.5,-228 1307.5,-240 1307.5,-240 1307.5,-246 1301.5,-252 1295.5,-252"/>
<text text-anchor="middle" x="1252.5" y="-231.5" font-family="sans" font-size="10.00">bwaalign_unicycler</text>
</g>
<!-- 3&#45;&gt;19 -->
<g id="edge43" class="edge">
<title>3&#45;&gt;19</title>
<path fill="none" stroke="grey" stroke-width="2" d="M1322.06,-359.21C1307.27,-332.8 1284.31,-291.81 1268.86,-264.21"/>
<polygon fill="grey" stroke="grey" stroke-width="2" points="1271.96,-262.59 1264.02,-255.57 1265.85,-266.01 1271.96,-262.59"/>
</g>
<!-- 4&#45;&gt;0 -->
<g id="edge4" class="edge">
<title>4&#45;&gt;0</title>
<path fill="none" stroke="grey" stroke-width="2" d="M848.99,-143.19C858.01,-123.56 874.83,-92.11 897.5,-72 918.28,-53.57 946.58,-40.25 969.53,-31.57"/>
<polygon fill="grey" stroke="grey" stroke-width="2" points="970.57,-34.92 978.81,-28.25 968.21,-28.33 970.57,-34.92"/>
</g>
<!-- 20 -->
<g id="node21" class="node">
<title>20</title>
<path fill="none" stroke="#d85656" stroke-width="2" d="M733.5,-108C733.5,-108 703.5,-108 703.5,-108 697.5,-108 691.5,-102 691.5,-96 691.5,-96 691.5,-84 691.5,-84 691.5,-78 697.5,-72 703.5,-72 703.5,-72 733.5,-72 733.5,-72 739.5,-72 745.5,-78 745.5,-84 745.5,-84 745.5,-96 745.5,-96 745.5,-102 739.5,-108 733.5,-108"/>
<text text-anchor="middle" x="718.5" y="-87.5" font-family="sans" font-size="10.00">prokka</text>
</g>
<!-- 4&#45;&gt;20 -->
<g id="edge47" class="edge">
<title>4&#45;&gt;20</title>
<path fill="none" stroke="grey" stroke-width="2" d="M810.14,-143.15C794.18,-134.07 774.62,-122.94 757.68,-113.3"/>
<polygon fill="grey" stroke="grey" stroke-width="2" points="759.5,-110.3 749.07,-108.4 756.03,-116.39 759.5,-110.3"/>
</g>
<!-- 22 -->
<g id="node23" class="node">
<title>22</title>
<path fill="none" stroke="#56d8a9" stroke-width="2" d="M948.5,-108C948.5,-108 918.5,-108 918.5,-108 912.5,-108 906.5,-102 906.5,-96 906.5,-96 906.5,-84 906.5,-84 906.5,-78 912.5,-72 918.5,-72 918.5,-72 948.5,-72 948.5,-72 954.5,-72 960.5,-78 960.5,-84 960.5,-84 960.5,-96 960.5,-96 960.5,-102 954.5,-108 948.5,-108"/>
<text text-anchor="middle" x="933.5" y="-87.5" font-family="sans" font-size="10.00">quast</text>
</g>
<!-- 4&#45;&gt;22 -->
<g id="edge57" class="edge">
<title>4&#45;&gt;22</title>
<path fill="none" stroke="grey" stroke-width="2" d="M864.72,-143.34C875.31,-135.27 888.07,-125.57 899.7,-116.72"/>
<polygon fill="grey" stroke="grey" stroke-width="2" points="901.72,-119.58 907.56,-110.73 897.49,-114 901.72,-119.58"/>
</g>
<!-- 24 -->
<g id="node25" class="node">
<title>24</title>
<path fill="none" stroke="#d8bc56" stroke-width="2" d="M825.5,-108C825.5,-108 795.5,-108 795.5,-108 789.5,-108 783.5,-102 783.5,-96 783.5,-96 783.5,-84 783.5,-84 783.5,-78 789.5,-72 795.5,-72 795.5,-72 825.5,-72 825.5,-72 831.5,-72 837.5,-78 837.5,-84 837.5,-84 837.5,-96 837.5,-96 837.5,-102 831.5,-108 825.5,-108"/>
<text text-anchor="middle" x="810.5" y="-87.5" font-family="sans" font-size="10.00">busco</text>
</g>
<!-- 4&#45;&gt;24 -->
<g id="edge67" class="edge">
<title>4&#45;&gt;24</title>
<path fill="none" stroke="grey" stroke-width="2" d="M833.68,-143.34C830.62,-136.43 827.02,-128.31 823.59,-120.56"/>
<polygon fill="grey" stroke="grey" stroke-width="2" points="826.9,-119.4 819.65,-111.67 820.5,-122.23 826.9,-119.4"/>
</g>
<!-- 5 -->
<g id="node6" class="node">
<title>5</title>
<path fill="none" stroke="#567bd8" stroke-width="2" d="M860.5,-324C860.5,-324 828.5,-324 828.5,-324 822.5,-324 816.5,-318 816.5,-312 816.5,-312 816.5,-300 816.5,-300 816.5,-294 822.5,-288 828.5,-288 828.5,-288 860.5,-288 860.5,-288 866.5,-288 872.5,-294 872.5,-300 872.5,-300 872.5,-312 872.5,-312 872.5,-318 866.5,-324 860.5,-324"/>
<text text-anchor="middle" x="844.5" y="-303.5" font-family="sans" font-size="10.00">medaka</text>
</g>
<!-- 5&#45;&gt;4 -->
<g id="edge16" class="edge">
<title>5&#45;&gt;4</title>
<path fill="none" stroke="grey" stroke-width="2" d="M862.21,-287.05C870.39,-277.48 879.22,-265.03 883.5,-252 888.49,-236.8 888.76,-231.11 883.5,-216 880.32,-206.85 874.82,-198.1 868.84,-190.43"/>
<polygon fill="grey" stroke="grey" stroke-width="2" points="871.66,-188.35 862.51,-183.02 866.34,-192.9 871.66,-188.35"/>
</g>
<!-- 5&#45;&gt;8 -->
<g id="edge22" class="edge">
<title>5&#45;&gt;8</title>
<path fill="none" stroke="grey" stroke-width="2" d="M844.5,-287.34C844.5,-280.75 844.5,-273.08 844.5,-265.67"/>
<polygon fill="grey" stroke="grey" stroke-width="2" points="848,-265.93 844.5,-255.93 841,-265.93 848,-265.93"/>
</g>
<!-- 5&#45;&gt;20 -->
<g id="edge48" class="edge">
<title>5&#45;&gt;20</title>
<path fill="none" stroke="grey" stroke-width="2" d="M830.08,-287.35C822.13,-277.27 812.32,-264.24 804.5,-252 776.21,-207.72 748.49,-153.26 732.47,-120.38"/>
<polygon fill="grey" stroke="grey" stroke-width="2" points="735.74,-119.11 728.24,-111.63 729.44,-122.15 735.74,-119.11"/>
</g>
<!-- 5&#45;&gt;22 -->
<g id="edge58" class="edge">
<title>5&#45;&gt;22</title>
<path fill="none" stroke="grey" stroke-width="2" d="M873.38,-290.89C888.51,-281.92 905.86,-268.82 915.5,-252 938.73,-211.47 939.39,-155.75 936.99,-121.62"/>
<polygon fill="grey" stroke="grey" stroke-width="2" points="940.5,-121.51 936.14,-111.85 933.52,-122.12 940.5,-121.51"/>
</g>
<!-- 5&#45;&gt;24 -->
<g id="edge68" class="edge">
<title>5&#45;&gt;24</title>
<path fill="none" stroke="grey" stroke-width="2" d="M871.03,-287.01C882.03,-277.94 893.59,-265.91 899.5,-252 905.76,-237.28 901.25,-231.9 899.5,-216 895.92,-183.42 901.48,-171.41 883.5,-144 874.93,-130.94 861.95,-120 849.3,-111.53"/>
<polygon fill="grey" stroke="grey" stroke-width="2" points="851.29,-108.65 840.96,-106.32 847.59,-114.58 851.29,-108.65"/>
</g>
<!-- 6 -->
<g id="node7" class="node">
<title>6</title>
<path fill="none" stroke="#56c1d8" stroke-width="2" d="M919,-500C919,-500 656,-500 656,-500 650,-500 644,-494 644,-488 644,-488 644,-460 644,-460 644,-454 650,-448 656,-448 656,-448 919,-448 919,-448 925,-448 931,-454 931,-460 931,-460 931,-488 931,-488 931,-494 925,-500 919,-500"/>
<text text-anchor="middle" x="787.5" y="-488" font-family="sans" font-size="10.00">trim_nano_adaptors</text>
<text text-anchor="middle" x="787.5" y="-477" font-family="sans" font-size="10.00">barcode: barcode01</text>
<text text-anchor="middle" x="787.5" y="-466" font-family="sans" font-size="10.00">prefix: 20210107_2213_MN35107_FAO13840_83e8e224</text>
<text text-anchor="middle" x="787.5" y="-455" font-family="sans" font-size="10.00">sample: 309a</text>
</g>
<!-- 6&#45;&gt;5 -->
<g id="edge18" class="edge">
<title>6&#45;&gt;5</title>
<path fill="none" stroke="grey" stroke-width="2" d="M805.3,-447.25C811.87,-436.73 818.84,-424.17 823.5,-412 832.71,-387.93 838.1,-359.14 841.11,-337.79"/>
<polygon fill="grey" stroke="grey" stroke-width="2" points="844.57,-338.34 842.37,-327.97 837.63,-337.44 844.57,-338.34"/>
</g>
<!-- 7 -->
<g id="node8" class="node">
<title>7</title>
<path fill="none" stroke="#56d88a" stroke-width="2" d="M802.5,-404C802.5,-404 772.5,-404 772.5,-404 766.5,-404 760.5,-398 760.5,-392 760.5,-392 760.5,-380 760.5,-380 760.5,-374 766.5,-368 772.5,-368 772.5,-368 802.5,-368 802.5,-368 808.5,-368 814.5,-374 814.5,-380 814.5,-380 814.5,-392 814.5,-392 814.5,-398 808.5,-404 802.5,-404"/>
<text text-anchor="middle" x="787.5" y="-383.5" font-family="sans" font-size="10.00">flye</text>
</g>
<!-- 6&#45;&gt;7 -->
<g id="edge20" class="edge">
<title>6&#45;&gt;7</title>
<path fill="none" stroke="grey" stroke-width="2" d="M787.5,-447.2C787.5,-437.92 787.5,-427.35 787.5,-417.7"/>
<polygon fill="grey" stroke="grey" stroke-width="2" points="791,-417.9 787.5,-407.9 784,-417.9 791,-417.9"/>
</g>
<!-- 6&#45;&gt;15 -->
<g id="edge35" class="edge">
<title>6&#45;&gt;15</title>
<path fill="none" stroke="grey" stroke-width="2" d="M643.05,-464.28C561.79,-456.22 471.19,-440.91 443.5,-412 424.89,-392.57 422.98,-361.06 424.76,-337.62"/>
<polygon fill="grey" stroke="grey" stroke-width="2" points="428.21,-338.23 425.81,-327.91 421.25,-337.48 428.21,-338.23"/>
</g>
<!-- 7&#45;&gt;5 -->
<g id="edge19" class="edge">
<title>7&#45;&gt;5</title>
<path fill="none" stroke="grey" stroke-width="2" d="M800.43,-367.3C807.38,-357.79 816.11,-345.85 823.96,-335.11"/>
<polygon fill="grey" stroke="grey" stroke-width="2" points="826.56,-337.48 829.63,-327.34 820.91,-333.35 826.56,-337.48"/>
</g>
<!-- 7&#45;&gt;20 -->
<g id="edge49" class="edge">
<title>7&#45;&gt;20</title>
<path fill="none" stroke="grey" stroke-width="2" d="M783.29,-367.05C771.81,-318.14 739.88,-182.1 725.58,-121.18"/>
<polygon fill="grey" stroke="grey" stroke-width="2" points="729.04,-120.6 723.35,-111.66 722.23,-122.2 729.04,-120.6"/>
</g>
<!-- 7&#45;&gt;22 -->
<g id="edge59" class="edge">
<title>7&#45;&gt;22</title>
<path fill="none" stroke="grey" stroke-width="2" d="M815.13,-370.36C834.83,-359.17 861.29,-342.55 881.5,-324 911.36,-296.58 920.73,-288.91 937.5,-252 957.53,-207.94 959.39,-191.75 951.5,-144 950.24,-136.36 948.01,-128.33 945.55,-120.91"/>
<polygon fill="grey" stroke="grey" stroke-width="2" points="948.89,-119.84 942.2,-111.62 942.31,-122.22 948.89,-119.84"/>
</g>
<!-- 7&#45;&gt;24 -->
<g id="edge69" class="edge">
<title>7&#45;&gt;24</title>
<path fill="none" stroke="grey" stroke-width="2" d="M787.24,-367.07C786.89,-326.91 787.33,-226.81 798.5,-144 799.51,-136.52 801.06,-128.54 802.71,-121.1"/>
<polygon fill="grey" stroke="grey" stroke-width="2" points="806.1,-122.01 805.01,-111.47 799.29,-120.39 806.1,-122.01"/>
</g>
<!-- 8&#45;&gt;4 -->
<g id="edge17" class="edge">
<title>8&#45;&gt;4</title>
<path fill="none" stroke="grey" stroke-width="2" d="M843.74,-215.34C843.46,-208.75 843.13,-201.08 842.81,-193.67"/>
<polygon fill="grey" stroke="grey" stroke-width="2" points="846.32,-193.77 842.4,-183.93 839.33,-194.07 846.32,-193.77"/>
</g>
<!-- 9&#45;&gt;0 -->
<g id="edge5" class="edge">
<title>9&#45;&gt;0</title>
<path fill="none" stroke="grey" stroke-width="2" d="M1537.43,-143.1C1522.21,-122.13 1493.93,-88.2 1460.5,-72 1388.49,-37.11 1147.13,-24.23 1050.25,-20.39"/>
<polygon fill="grey" stroke="grey" stroke-width="2" points="1050.46,-16.89 1040.33,-20.01 1050.19,-23.89 1050.46,-16.89"/>
</g>
<!-- 21 -->
<g id="node22" class="node">
<title>21</title>
<path fill="none" stroke="#d85656" stroke-width="2" d="M1439.5,-108C1439.5,-108 1409.5,-108 1409.5,-108 1403.5,-108 1397.5,-102 1397.5,-96 1397.5,-96 1397.5,-84 1397.5,-84 1397.5,-78 1403.5,-72 1409.5,-72 1409.5,-72 1439.5,-72 1439.5,-72 1445.5,-72 1451.5,-78 1451.5,-84 1451.5,-84 1451.5,-96 1451.5,-96 1451.5,-102 1445.5,-108 1439.5,-108"/>
<text text-anchor="middle" x="1424.5" y="-87.5" font-family="sans" font-size="10.00">prokka</text>
</g>
<!-- 9&#45;&gt;21 -->
<g id="edge52" class="edge">
<title>9&#45;&gt;21</title>
<path fill="none" stroke="grey" stroke-width="2" d="M1517.63,-143.15C1501.14,-133.92 1480.86,-122.56 1463.44,-112.81"/>
<polygon fill="grey" stroke="grey" stroke-width="2" points="1465.55,-109.98 1455.12,-108.15 1462.13,-116.09 1465.55,-109.98"/>
</g>
<!-- 23 -->
<g id="node24" class="node">
<title>23</title>
<path fill="none" stroke="#56d8a9" stroke-width="2" d="M1564.5,-108C1564.5,-108 1534.5,-108 1534.5,-108 1528.5,-108 1522.5,-102 1522.5,-96 1522.5,-96 1522.5,-84 1522.5,-84 1522.5,-78 1528.5,-72 1534.5,-72 1534.5,-72 1564.5,-72 1564.5,-72 1570.5,-72 1576.5,-78 1576.5,-84 1576.5,-84 1576.5,-96 1576.5,-96 1576.5,-102 1570.5,-108 1564.5,-108"/>
<text text-anchor="middle" x="1549.5" y="-87.5" font-family="sans" font-size="10.00">quast</text>
</g>
<!-- 9&#45;&gt;23 -->
<g id="edge62" class="edge">
<title>9&#45;&gt;23</title>
<path fill="none" stroke="grey" stroke-width="2" d="M1549.5,-143.34C1549.5,-136.75 1549.5,-129.08 1549.5,-121.67"/>
<polygon fill="grey" stroke="grey" stroke-width="2" points="1553,-121.93 1549.5,-111.93 1546,-121.93 1553,-121.93"/>
</g>
<!-- 25 -->
<g id="node26" class="node">
<title>25</title>
<path fill="none" stroke="#d8bc56" stroke-width="2" d="M1346.5,-108C1346.5,-108 1316.5,-108 1316.5,-108 1310.5,-108 1304.5,-102 1304.5,-96 1304.5,-96 1304.5,-84 1304.5,-84 1304.5,-78 1310.5,-72 1316.5,-72 1316.5,-72 1346.5,-72 1346.5,-72 1352.5,-72 1358.5,-78 1358.5,-84 1358.5,-84 1358.5,-96 1358.5,-96 1358.5,-102 1352.5,-108 1346.5,-108"/>
<text text-anchor="middle" x="1331.5" y="-87.5" font-family="sans" font-size="10.00">busco</text>
</g>
<!-- 9&#45;&gt;25 -->
<g id="edge72" class="edge">
<title>9&#45;&gt;25</title>
<path fill="none" stroke="grey" stroke-width="2" d="M1515.21,-148.68C1510.61,-147.08 1505.95,-145.48 1501.5,-144 1457.28,-129.28 1406.2,-113.52 1371.66,-103.05"/>
<polygon fill="grey" stroke="grey" stroke-width="2" points="1372.77,-99.73 1362.18,-100.18 1370.74,-106.43 1372.77,-99.73"/>
</g>
<!-- 10 -->
<g id="node11" class="node">
<title>10</title>
<path fill="none" stroke="#567bd8" stroke-width="2" d="M1600.5,-324C1600.5,-324 1568.5,-324 1568.5,-324 1562.5,-324 1556.5,-318 1556.5,-312 1556.5,-312 1556.5,-300 1556.5,-300 1556.5,-294 1562.5,-288 1568.5,-288 1568.5,-288 1600.5,-288 1600.5,-288 1606.5,-288 1612.5,-294 1612.5,-300 1612.5,-300 1612.5,-312 1612.5,-312 1612.5,-318 1606.5,-324 1600.5,-324"/>
<text text-anchor="middle" x="1584.5" y="-303.5" font-family="sans" font-size="10.00">medaka</text>
</g>
<!-- 10&#45;&gt;9 -->
<g id="edge24" class="edge">
<title>10&#45;&gt;9</title>
<path fill="none" stroke="grey" stroke-width="2" d="M1601.75,-287.31C1617.29,-269.13 1635.91,-240.16 1623.5,-216 1617.03,-203.41 1606.03,-193.14 1594.46,-185.11"/>
<polygon fill="grey" stroke="grey" stroke-width="2" points="1596.67,-182.37 1586.34,-179.98 1592.93,-188.28 1596.67,-182.37"/>
</g>
<!-- 10&#45;&gt;13 -->
<g id="edge30" class="edge">
<title>10&#45;&gt;13</title>
<path fill="none" stroke="grey" stroke-width="2" d="M1584.5,-287.34C1584.5,-280.75 1584.5,-273.08 1584.5,-265.67"/>
<polygon fill="grey" stroke="grey" stroke-width="2" points="1588,-265.93 1584.5,-255.93 1581,-265.93 1588,-265.93"/>
</g>
<!-- 10&#45;&gt;21 -->
<g id="edge53" class="edge">
<title>10&#45;&gt;21</title>
<path fill="none" stroke="grey" stroke-width="2" d="M1611.51,-287.11C1622.7,-278.06 1634.47,-266.02 1640.5,-252 1661.34,-203.59 1633.77,-175.49 1591.5,-144 1571.33,-128.97 1507.52,-111.24 1464.87,-100.57"/>
<polygon fill="grey" stroke="grey" stroke-width="2" points="1465.88,-97.21 1455.33,-98.22 1464.2,-104.01 1465.88,-97.21"/>
</g>
<!-- 10&#45;&gt;23 -->
<g id="edge63" class="edge">
<title>10&#45;&gt;23</title>
<path fill="none" stroke="grey" stroke-width="2" d="M1613.44,-300.07C1639.92,-293.87 1677.62,-280.36 1695.5,-252 1721.11,-211.4 1723.67,-182.86 1695.5,-144 1667.55,-105.44 1638.04,-123.72 1589.35,-108.8"/>
<polygon fill="grey" stroke="grey" stroke-width="2" points="1590.71,-105.57 1580.11,-105.54 1588.37,-112.17 1590.71,-105.57"/>
</g>
<!-- 10&#45;&gt;25 -->
<g id="edge73" class="edge">
<title>10&#45;&gt;25</title>
<path fill="none" stroke="grey" stroke-width="2" d="M1570.07,-287.45C1543.66,-256.05 1484.81,-189.32 1425.5,-144 1408.69,-131.15 1388.42,-119.33 1371.01,-110.12"/>
<polygon fill="grey" stroke="grey" stroke-width="2" points="1372.67,-107.04 1362.18,-105.57 1369.47,-113.26 1372.67,-107.04"/>
</g>
<!-- 11 -->
<g id="node12" class="node">
<title>11</title>
<path fill="none" stroke="#56c1d8" stroke-width="2" d="M1659,-500C1659,-500 1396,-500 1396,-500 1390,-500 1384,-494 1384,-488 1384,-488 1384,-460 1384,-460 1384,-454 1390,-448 1396,-448 1396,-448 1659,-448 1659,-448 1665,-448 1671,-454 1671,-460 1671,-460 1671,-488 1671,-488 1671,-494 1665,-500 1659,-500"/>
<text text-anchor="middle" x="1527.5" y="-488" font-family="sans" font-size="10.00">trim_nano_adaptors</text>
<text text-anchor="middle" x="1527.5" y="-477" font-family="sans" font-size="10.00">barcode: barcode02</text>
<text text-anchor="middle" x="1527.5" y="-466" font-family="sans" font-size="10.00">prefix: 20210107_2213_MN35107_FAO13840_83e8e224</text>
<text text-anchor="middle" x="1527.5" y="-455" font-family="sans" font-size="10.00">sample: 311b</text>
</g>
<!-- 11&#45;&gt;10 -->
<g id="edge26" class="edge">
<title>11&#45;&gt;10</title>
<path fill="none" stroke="grey" stroke-width="2" d="M1545.3,-447.25C1551.87,-436.73 1558.84,-424.17 1563.5,-412 1572.71,-387.93 1578.1,-359.14 1581.11,-337.79"/>
<polygon fill="grey" stroke="grey" stroke-width="2" points="1584.57,-338.34 1582.37,-327.97 1577.63,-337.44 1584.57,-338.34"/>
</g>
<!-- 12 -->
<g id="node13" class="node">
<title>12</title>
<path fill="none" stroke="#56d88a" stroke-width="2" d="M1542.5,-404C1542.5,-404 1512.5,-404 1512.5,-404 1506.5,-404 1500.5,-398 1500.5,-392 1500.5,-392 1500.5,-380 1500.5,-380 1500.5,-374 1506.5,-368 1512.5,-368 1512.5,-368 1542.5,-368 1542.5,-368 1548.5,-368 1554.5,-374 1554.5,-380 1554.5,-380 1554.5,-392 1554.5,-392 1554.5,-398 1548.5,-404 1542.5,-404"/>
<text text-anchor="middle" x="1527.5" y="-383.5" font-family="sans" font-size="10.00">flye</text>
</g>
<!-- 11&#45;&gt;12 -->
<g id="edge28" class="edge">
<title>11&#45;&gt;12</title>
<path fill="none" stroke="grey" stroke-width="2" d="M1527.5,-447.2C1527.5,-437.92 1527.5,-427.35 1527.5,-417.7"/>
<polygon fill="grey" stroke="grey" stroke-width="2" points="1531,-417.9 1527.5,-407.9 1524,-417.9 1531,-417.9"/>
</g>
<!-- 11&#45;&gt;18 -->
<g id="edge42" class="edge">
<title>11&#45;&gt;18</title>
<path fill="none" stroke="grey" stroke-width="2" d="M1383.05,-464.28C1301.79,-456.22 1211.19,-440.91 1183.5,-412 1164.89,-392.57 1162.98,-361.06 1164.76,-337.62"/>
<polygon fill="grey" stroke="grey" stroke-width="2" points="1168.21,-338.23 1165.81,-327.91 1161.25,-337.48 1168.21,-338.23"/>
</g>
<!-- 12&#45;&gt;10 -->
<g id="edge27" class="edge">
<title>12&#45;&gt;10</title>
<path fill="none" stroke="grey" stroke-width="2" d="M1540.43,-367.3C1547.38,-357.79 1556.11,-345.85 1563.96,-335.11"/>
<polygon fill="grey" stroke="grey" stroke-width="2" points="1566.56,-337.48 1569.63,-327.34 1560.91,-333.35 1566.56,-337.48"/>
</g>
<!-- 12&#45;&gt;21 -->
<g id="edge54" class="edge">
<title>12&#45;&gt;21</title>
<path fill="none" stroke="grey" stroke-width="2" d="M1521.21,-367.05C1504.04,-318.04 1456.22,-181.53 1434.94,-120.79"/>
<polygon fill="grey" stroke="grey" stroke-width="2" points="1438.32,-119.85 1431.71,-111.57 1431.71,-122.17 1438.32,-119.85"/>
</g>
<!-- 12&#45;&gt;23 -->
<g id="edge64" class="edge">
<title>12&#45;&gt;23</title>
<path fill="none" stroke="grey" stroke-width="2" d="M1555.21,-375.48C1599.4,-358.58 1684.35,-318.72 1718.5,-252 1740.37,-209.27 1748.71,-182.09 1719.5,-144 1684.32,-98.12 1648.21,-125.3 1589.29,-108.63"/>
<polygon fill="grey" stroke="grey" stroke-width="2" points="1590.67,-105.4 1580.08,-105.62 1588.49,-112.05 1590.67,-105.4"/>
</g>
<!-- 12&#45;&gt;25 -->
<g id="edge74" class="edge">
<title>12&#45;&gt;25</title>
<path fill="none" stroke="grey" stroke-width="2" d="M1516.8,-367.2C1509.57,-355.08 1499.84,-338.64 1491.5,-324 1446.29,-244.68 1449.85,-215.04 1392.5,-144 1384.73,-134.38 1375.09,-125.1 1365.77,-117.07"/>
<polygon fill="grey" stroke="grey" stroke-width="2" points="1368.17,-114.51 1358.23,-110.82 1363.7,-119.9 1368.17,-114.51"/>
</g>
<!-- 13&#45;&gt;9 -->
<g id="edge25" class="edge">
<title>13&#45;&gt;9</title>
<path fill="none" stroke="grey" stroke-width="2" d="M1575.67,-215.34C1572.17,-208.34 1568.06,-200.12 1564.14,-192.28"/>
<polygon fill="grey" stroke="grey" stroke-width="2" points="1567.41,-190.99 1559.8,-183.61 1561.15,-194.12 1567.41,-190.99"/>
</g>
<!-- 14&#45;&gt;0 -->
<g id="edge6" class="edge">
<title>14&#45;&gt;0</title>
<path fill="none" stroke="grey" stroke-width="2" d="M599.15,-143.36C616.24,-122.64 647.54,-88.95 682.5,-72 777.67,-25.84 904.87,-18.65 968.96,-18.26"/>
<polygon fill="grey" stroke="grey" stroke-width="2" points="968.61,-21.76 978.62,-18.27 968.62,-14.76 968.61,-21.76"/>
</g>
<!-- 14&#45;&gt;20 -->
<g id="edge45" class="edge">
<title>14&#45;&gt;20</title>
<path fill="none" stroke="grey" stroke-width="2" d="M619.41,-143.15C637.76,-133.49 660.52,-121.52 679.59,-111.48"/>
<polygon fill="grey" stroke="grey" stroke-width="2" points="681.02,-114.68 688.24,-106.92 677.76,-108.48 681.02,-114.68"/>
</g>
<!-- 14&#45;&gt;22 -->
<g id="edge55" class="edge">
<title>14&#45;&gt;22</title>
<path fill="none" stroke="grey" stroke-width="2" d="M644.14,-149.2C714.88,-134.97 831.93,-111.43 893.23,-99.1"/>
<polygon fill="grey" stroke="grey" stroke-width="2" points="893.7,-102.58 902.81,-97.17 892.32,-95.71 893.7,-102.58"/>
</g>
<!-- 14&#45;&gt;24 -->
<g id="edge65" class="edge">
<title>14&#45;&gt;24</title>
<path fill="none" stroke="grey" stroke-width="2" d="M643.15,-143.06C683.04,-130.65 735.11,-114.45 770.51,-103.44"/>
<polygon fill="grey" stroke="grey" stroke-width="2" points="771.34,-106.85 779.85,-100.54 769.26,-100.17 771.34,-106.85"/>
</g>
<!-- 15&#45;&gt;14 -->
<g id="edge32" class="edge">
<title>15&#45;&gt;14</title>
<path fill="none" stroke="grey" stroke-width="2" d="M428.58,-287.13C428.55,-267.45 431.48,-235.96 448.5,-216 465.27,-196.33 490.23,-183.93 514.27,-176.13"/>
<polygon fill="grey" stroke="grey" stroke-width="2" points="515.2,-179.5 523.8,-173.31 513.22,-172.79 515.2,-179.5"/>
</g>
<!-- 15&#45;&gt;16 -->
<g id="edge37" class="edge">
<title>15&#45;&gt;16</title>
<path fill="none" stroke="grey" stroke-width="2" d="M450.44,-287.34C459.81,-279.44 471.04,-269.96 481.36,-261.26"/>
<polygon fill="grey" stroke="grey" stroke-width="2" points="483.57,-263.98 488.96,-254.85 479.06,-258.62 483.57,-263.98"/>
</g>
<!-- 15&#45;&gt;20 -->
<g id="edge46" class="edge">
<title>15&#45;&gt;20</title>
<path fill="none" stroke="grey" stroke-width="2" d="M404.93,-287.2C394.36,-278.02 383.16,-265.84 377.5,-252 359.34,-207.57 346.27,-180.45 377.5,-144 415.72,-99.38 595.51,-92.02 677.53,-91.02"/>
<polygon fill="grey" stroke="grey" stroke-width="2" points="677.51,-94.52 687.48,-90.93 677.45,-87.52 677.51,-94.52"/>
</g>
<!-- 15&#45;&gt;22 -->
<g id="edge56" class="edge">
<title>15&#45;&gt;22</title>
<path fill="none" stroke="grey" stroke-width="2" d="M460.72,-297.87C557.69,-275.54 849.21,-206.82 883.5,-180 902.74,-164.95 915.75,-140.31 923.67,-120.77"/>
<polygon fill="grey" stroke="grey" stroke-width="2" points="926.86,-122.24 927.09,-111.65 920.3,-119.79 926.86,-122.24"/>
</g>
<!-- 15&#45;&gt;24 -->
<g id="edge66" class="edge">
<title>15&#45;&gt;24</title>
<path fill="none" stroke="grey" stroke-width="2" d="M424.88,-287.29C420.98,-268.58 417.59,-238.7 428.5,-216 450.69,-169.83 471.58,-164.56 518.5,-144 615.68,-101.41 651.03,-131.47 754.5,-108 759.68,-106.82 765.09,-105.42 770.4,-103.93"/>
<polygon fill="grey" stroke="grey" stroke-width="2" points="771,-107.4 779.61,-101.21 769.02,-100.69 771,-107.4"/>
</g>
<!-- 16&#45;&gt;14 -->
<g id="edge33" class="edge">
<title>16&#45;&gt;14</title>
<path fill="none" stroke="grey" stroke-width="2" d="M530.92,-215.34C538.99,-207.6 548.63,-198.36 557.54,-189.81"/>
<polygon fill="grey" stroke="grey" stroke-width="2" points="559.85,-192.44 564.65,-183 555.01,-187.39 559.85,-192.44"/>
</g>
<!-- 17&#45;&gt;0 -->
<g id="edge7" class="edge">
<title>17&#45;&gt;0</title>
<path fill="none" stroke="grey" stroke-width="2" d="M1285.48,-143.02C1224.57,-115.65 1109.33,-63.86 1048.83,-36.67"/>
<polygon fill="grey" stroke="grey" stroke-width="2" points="1050.46,-33.57 1039.91,-32.66 1047.59,-39.95 1050.46,-33.57"/>
</g>
<!-- 17&#45;&gt;21 -->
<g id="edge50" class="edge">
<title>17&#45;&gt;21</title>
<path fill="none" stroke="grey" stroke-width="2" d="M1350.74,-143.15C1362.26,-135.01 1376.11,-125.22 1388.68,-116.33"/>
<polygon fill="grey" stroke="grey" stroke-width="2" points="1390.69,-119.19 1396.84,-110.56 1386.65,-113.48 1390.69,-119.19"/>
</g>
<!-- 17&#45;&gt;23 -->
<g id="edge60" class="edge">
<title>17&#45;&gt;23</title>
<path fill="none" stroke="grey" stroke-width="2" d="M1382.89,-143.06C1422.49,-130.69 1474.15,-114.55 1509.38,-103.54"/>
<polygon fill="grey" stroke="grey" stroke-width="2" points="1510.17,-106.96 1518.67,-100.63 1508.08,-100.28 1510.17,-106.96"/>
</g>
<!-- 17&#45;&gt;25 -->
<g id="edge70" class="edge">
<title>17&#45;&gt;25</title>
<path fill="none" stroke="grey" stroke-width="2" d="M1327.01,-143.34C1327.58,-136.75 1328.24,-129.08 1328.87,-121.67"/>
<polygon fill="grey" stroke="grey" stroke-width="2" points="1332.34,-122.18 1329.71,-111.92 1325.37,-121.58 1332.34,-122.18"/>
</g>
<!-- 18&#45;&gt;17 -->
<g id="edge39" class="edge">
<title>18&#45;&gt;17</title>
<path fill="none" stroke="grey" stroke-width="2" d="M1168.58,-287.13C1168.55,-267.45 1171.48,-235.96 1188.5,-216 1205.27,-196.33 1230.23,-183.93 1254.27,-176.13"/>
<polygon fill="grey" stroke="grey" stroke-width="2" points="1255.2,-179.5 1263.8,-173.31 1253.22,-172.79 1255.2,-179.5"/>
</g>
<!-- 18&#45;&gt;19 -->
<g id="edge44" class="edge">
<title>18&#45;&gt;19</title>
<path fill="none" stroke="grey" stroke-width="2" d="M1190.44,-287.34C1199.81,-279.44 1211.04,-269.96 1221.36,-261.26"/>
<polygon fill="grey" stroke="grey" stroke-width="2" points="1223.57,-263.98 1228.96,-254.85 1219.06,-258.62 1223.57,-263.98"/>
</g>
<!-- 18&#45;&gt;21 -->
<g id="edge51" class="edge">
<title>18&#45;&gt;21</title>
<path fill="none" stroke="grey" stroke-width="2" d="M1164.88,-287.29C1160.98,-268.58 1157.59,-238.7 1168.5,-216 1190.69,-169.83 1213.35,-168.19 1258.5,-144 1269.81,-137.94 1339.03,-116.64 1384.44,-102.95"/>
<polygon fill="grey" stroke="grey" stroke-width="2" points="1385.37,-106.33 1393.94,-100.1 1383.35,-99.63 1385.37,-106.33"/>
</g>
<!-- 18&#45;&gt;23 -->
<g id="edge61" class="edge">
<title>18&#45;&gt;23</title>
<path fill="none" stroke="grey" stroke-width="2" d="M1200.83,-300.57C1290.28,-287.22 1543.5,-244.29 1591.5,-180 1605.56,-161.17 1592.39,-136.89 1577.19,-118.44"/>
<polygon fill="grey" stroke="grey" stroke-width="2" points="1579.96,-116.29 1570.71,-111.13 1574.72,-120.94 1579.96,-116.29"/>
</g>
<!-- 18&#45;&gt;25 -->
<g id="edge71" class="edge">
<title>18&#45;&gt;25</title>
<path fill="none" stroke="grey" stroke-width="2" d="M1144.93,-287.2C1134.36,-278.02 1123.16,-265.84 1117.5,-252 1099.34,-207.57 1087.92,-181.8 1117.5,-144 1138.63,-117 1234.98,-101.84 1290.93,-95.16"/>
<polygon fill="grey" stroke="grey" stroke-width="2" points="1291,-98.68 1300.54,-94.06 1290.2,-91.72 1291,-98.68"/>
</g>
<!-- 19&#45;&gt;17 -->
<g id="edge40" class="edge">
<title>19&#45;&gt;17</title>
<path fill="none" stroke="grey" stroke-width="2" d="M1270.92,-215.34C1278.99,-207.6 1288.63,-198.36 1297.54,-189.81"/>
<polygon fill="grey" stroke="grey" stroke-width="2" points="1299.85,-192.44 1304.65,-183 1295.01,-187.39 1299.85,-192.44"/>
</g>
<!-- 20&#45;&gt;0 -->
<g id="edge8" class="edge">
<title>20&#45;&gt;0</title>
<path fill="none" stroke="grey" stroke-width="2" d="M746.3,-80.12C755.26,-77.38 765.27,-74.44 774.5,-72 842.36,-54.07 922.25,-36.87 969.22,-27.15"/>
<polygon fill="grey" stroke="grey" stroke-width="2" points="969.79,-30.61 978.88,-25.16 968.38,-23.75 969.79,-30.61"/>
</g>
<!-- 21&#45;&gt;0 -->
<g id="edge9" class="edge">
<title>21&#45;&gt;0</title>
<path fill="none" stroke="grey" stroke-width="2" d="M1396.59,-79.81C1387.4,-77.01 1377.08,-74.13 1367.5,-72 1253.59,-46.72 1116.56,-30.23 1049.89,-23.08"/>
<polygon fill="grey" stroke="grey" stroke-width="2" points="1050.46,-19.62 1040.15,-22.05 1049.73,-26.58 1050.46,-19.62"/>
</g>
<!-- 22&#45;&gt;0 -->
<g id="edge10" class="edge">
<title>22&#45;&gt;0</title>
<path fill="none" stroke="grey" stroke-width="2" d="M952.68,-71.34C961.16,-63.52 971.32,-54.16 980.69,-45.53"/>
<polygon fill="grey" stroke="grey" stroke-width="2" points="982.85,-48.3 987.84,-38.95 978.11,-43.15 982.85,-48.3"/>
</g>
<!-- 23&#45;&gt;0 -->
<g id="edge11" class="edge">
<title>23&#45;&gt;0</title>
<path fill="none" stroke="grey" stroke-width="2" d="M1521.62,-77.45C1515.72,-75.36 1509.47,-73.4 1503.5,-72 1338.47,-33.28 1135.69,-22.78 1050.38,-19.98"/>
<polygon fill="grey" stroke="grey" stroke-width="2" points="1050.61,-16.49 1040.51,-19.68 1050.4,-23.49 1050.61,-16.49"/>
</g>
<!-- 24&#45;&gt;0 -->
<g id="edge12" class="edge">
<title>24&#45;&gt;0</title>
<path fill="none" stroke="grey" stroke-width="2" d="M838.17,-79.27C872.31,-67.26 930.6,-46.76 969.58,-33.04"/>
<polygon fill="grey" stroke="grey" stroke-width="2" points="970.62,-36.39 978.89,-29.77 968.29,-29.78 970.62,-36.39"/>
</g>
<!-- 25&#45;&gt;0 -->
<g id="edge13" class="edge">
<title>25&#45;&gt;0</title>
<path fill="none" stroke="grey" stroke-width="2" d="M1303.77,-82.97C1246.7,-70.57 1115.95,-42.14 1049.64,-27.73"/>
<polygon fill="grey" stroke="grey" stroke-width="2" points="1050.75,-24.39 1040.24,-25.68 1049.27,-31.23 1050.75,-24.39"/>
</g>
<!-- 26 -->
<g id="node27" class="node">
<title>26</title>
<path fill="none" stroke="#56d86b" stroke-width="2" d="M1870,-108C1870,-108 1607,-108 1607,-108 1601,-108 1595,-102 1595,-96 1595,-96 1595,-84 1595,-84 1595,-78 1601,-72 1607,-72 1607,-72 1870,-72 1870,-72 1876,-72 1882,-78 1882,-84 1882,-84 1882,-96 1882,-96 1882,-102 1876,-108 1870,-108"/>
<text text-anchor="middle" x="1738.5" y="-93" font-family="sans" font-size="10.00">multiqc</text>
<text text-anchor="middle" x="1738.5" y="-82" font-family="sans" font-size="10.00">prefix: 20210107_2213_MN35107_FAO13840_83e8e224</text>
</g>
<!-- 26&#45;&gt;0 -->
<g id="edge14" class="edge">
<title>26&#45;&gt;0</title>
<path fill="none" stroke="grey" stroke-width="2" d="M1594.36,-72.91C1591.38,-72.6 1588.42,-72.3 1585.5,-72 1384.81,-51.62 1144.43,-30.59 1050.21,-22.48"/>
<polygon fill="grey" stroke="grey" stroke-width="2" points="1050.67,-19.01 1040.41,-21.64 1050.07,-25.98 1050.67,-19.01"/>
</g>
</g>
</svg>
