<?xml version="1.0" encoding="UTF-8" standalone="no"?>
<!DOCTYPE svg PUBLIC "-//W3C//DTD SVG 1.1//EN"
 "http://www.w3.org/Graphics/SVG/1.1/DTD/svg11.dtd">
<!-- Generated by graphviz version 2.40.1 (0)
 -->
<!-- Title: snakemake_dag Pages: 1 -->
<svg width="1314pt" height="692pt"
 viewBox="0.00 0.00 1314.00 692.00" xmlns="http://www.w3.org/2000/svg" xmlns:xlink="http://www.w3.org/1999/xlink">
<g id="graph0" class="graph" transform="scale(1 1) rotate(0) translate(4 688)">
<title>snakemake_dag</title>
<polygon fill="#ffffff" stroke="transparent" points="-4,4 -4,-688 1310,-688 1310,4 -4,4"/>
<!-- 0 -->
<g id="node1" class="node">
<title>0</title>
<path fill="none" stroke="#d8b456" stroke-width="2" d="M433,-36C433,-36 403,-36 403,-36 397,-36 391,-30 391,-24 391,-24 391,-12 391,-12 391,-6 397,0 403,0 403,0 433,0 433,0 439,0 445,-6 445,-12 445,-12 445,-24 445,-24 445,-30 439,-36 433,-36"/>
<text text-anchor="middle" x="418" y="-15.5" font-family="sans" font-size="10.00" fill="#000000">all</text>
</g>
<!-- 1 -->
<g id="node2" class="node">
<title>1</title>
<path fill="none" stroke="#d6d856" stroke-width="2" d="M302.5,-684C302.5,-684 225.5,-684 225.5,-684 219.5,-684 213.5,-678 213.5,-672 213.5,-672 213.5,-660 213.5,-660 213.5,-654 219.5,-648 225.5,-648 225.5,-648 302.5,-648 302.5,-648 308.5,-648 314.5,-654 314.5,-660 314.5,-660 314.5,-672 314.5,-672 314.5,-678 308.5,-684 302.5,-684"/>
<text text-anchor="middle" x="264" y="-663.5" font-family="sans" font-size="10.00" fill="#000000">nanopore_filtlong</text>
</g>
<!-- 1&#45;&gt;0 -->
<g id="edge11" class="edge">
<title>1&#45;&gt;0</title>
<path fill="none" stroke="#c0c0c0" stroke-width="2" d="M213.4981,-658.7815C156.6579,-649.7894 68.8633,-633.0161 43,-612 8.5955,-584.0435 0,-566.331 0,-522 0,-522 0,-522 0,-162 0,-114.6526 17.3272,-97.8427 57,-72 109.9137,-37.5323 299.2395,-24.0031 380.5068,-19.701"/>
<polygon fill="#c0c0c0" stroke="#c0c0c0" stroke-width="2" points="380.969,-23.182 390.7774,-19.1763 380.6118,-16.1912 380.969,-23.182"/>
</g>
<!-- 2 -->
<g id="node3" class="node">
<title>2</title>
<path fill="none" stroke="#d85656" stroke-width="2" d="M99.5,-612C99.5,-612 64.5,-612 64.5,-612 58.5,-612 52.5,-606 52.5,-600 52.5,-600 52.5,-588 52.5,-588 52.5,-582 58.5,-576 64.5,-576 64.5,-576 99.5,-576 99.5,-576 105.5,-576 111.5,-582 111.5,-588 111.5,-588 111.5,-600 111.5,-600 111.5,-606 105.5,-612 99.5,-612"/>
<text text-anchor="middle" x="82" y="-591.5" font-family="sans" font-size="10.00" fill="#000000">nanoplot</text>
</g>
<!-- 1&#45;&gt;2 -->
<g id="edge14" class="edge">
<title>1&#45;&gt;2</title>
<path fill="none" stroke="#c0c0c0" stroke-width="2" d="M218.0737,-647.8314C188.2128,-636.0183 149.6891,-620.7781 121.2577,-609.5305"/>
<polygon fill="#c0c0c0" stroke="#c0c0c0" stroke-width="2" points="122.2392,-606.1549 111.6529,-605.7308 119.6641,-612.6641 122.2392,-606.1549"/>
</g>
<!-- 3 -->
<g id="node4" class="node">
<title>3</title>
<path fill="none" stroke="#bed856" stroke-width="2" d="M226,-612C226,-612 196,-612 196,-612 190,-612 184,-606 184,-600 184,-600 184,-588 184,-588 184,-582 190,-576 196,-576 196,-576 226,-576 226,-576 232,-576 238,-582 238,-588 238,-588 238,-600 238,-600 238,-606 232,-612 226,-612"/>
<text text-anchor="middle" x="211" y="-591.5" font-family="sans" font-size="10.00" fill="#000000">flye</text>
</g>
<!-- 1&#45;&gt;3 -->
<g id="edge15" class="edge">
<title>1&#45;&gt;3</title>
<path fill="none" stroke="#c0c0c0" stroke-width="2" d="M250.6259,-647.8314C244.5838,-639.6232 237.3237,-629.7606 230.6779,-620.7323"/>
<polygon fill="#c0c0c0" stroke="#c0c0c0" stroke-width="2" points="233.3011,-618.3918 224.5542,-612.4133 227.6637,-622.5415 233.3011,-618.3918"/>
</g>
<!-- 5 -->
<g id="node6" class="node">
<title>5</title>
<path fill="none" stroke="#a7d856" stroke-width="2" d="M326,-468C326,-468 294,-468 294,-468 288,-468 282,-462 282,-456 282,-456 282,-444 282,-444 282,-438 288,-432 294,-432 294,-432 326,-432 326,-432 332,-432 338,-438 338,-444 338,-444 338,-456 338,-456 338,-462 332,-468 326,-468"/>
<text text-anchor="middle" x="310" y="-447.5" font-family="sans" font-size="10.00" fill="#000000">medaka</text>
</g>
<!-- 1&#45;&gt;5 -->
<g id="edge17" class="edge">
<title>1&#45;&gt;5</title>
<path fill="none" stroke="#c0c0c0" stroke-width="2" d="M267.8428,-647.9555C275.859,-610.3144 294.4139,-523.1867 304.0105,-478.1246"/>
<polygon fill="#c0c0c0" stroke="#c0c0c0" stroke-width="2" points="307.476,-478.6548 306.1358,-468.1451 300.6295,-477.1967 307.476,-478.6548"/>
</g>
<!-- 12 -->
<g id="node13" class="node">
<title>12</title>
<path fill="none" stroke="#56d8b9" stroke-width="2" d="M1013.5,-468C1013.5,-468 976.5,-468 976.5,-468 970.5,-468 964.5,-462 964.5,-456 964.5,-456 964.5,-444 964.5,-444 964.5,-438 970.5,-432 976.5,-432 976.5,-432 1013.5,-432 1013.5,-432 1019.5,-432 1025.5,-438 1025.5,-444 1025.5,-444 1025.5,-456 1025.5,-456 1025.5,-462 1019.5,-468 1013.5,-468"/>
<text text-anchor="middle" x="995" y="-447.5" font-family="sans" font-size="10.00" fill="#000000">unicycler</text>
</g>
<!-- 1&#45;&gt;12 -->
<g id="edge32" class="edge">
<title>1&#45;&gt;12</title>
<path fill="none" stroke="#c0c0c0" stroke-width="2" d="M314.6817,-660.7218C417.805,-648.7647 658.1771,-614.6466 846,-540 888.6308,-523.0572 933.0932,-494.5633 962.2262,-474.174"/>
<polygon fill="#c0c0c0" stroke="#c0c0c0" stroke-width="2" points="964.6216,-476.7662 970.7563,-468.1282 960.5738,-471.0552 964.6216,-476.7662"/>
</g>
<!-- 16 -->
<g id="node17" class="node">
<title>16</title>
<path fill="none" stroke="#d86e56" stroke-width="2" d="M839,-108C839,-108 803,-108 803,-108 797,-108 791,-102 791,-96 791,-96 791,-84 791,-84 791,-78 797,-72 803,-72 803,-72 839,-72 839,-72 845,-72 851,-78 851,-84 851,-84 851,-96 851,-96 851,-102 845,-108 839,-108"/>
<text text-anchor="middle" x="821" y="-87.5" font-family="sans" font-size="10.00" fill="#000000">minimap</text>
</g>
<!-- 1&#45;&gt;16 -->
<g id="edge42" class="edge">
<title>1&#45;&gt;16</title>
<path fill="none" stroke="#c0c0c0" stroke-width="2" d="M314.61,-664.4058C523.2834,-657.1744 1306,-623.2982 1306,-522 1306,-522 1306,-522 1306,-234 1306,-141.5848 978.2974,-103.802 861.6319,-93.2791"/>
<polygon fill="#c0c0c0" stroke="#c0c0c0" stroke-width="2" points="861.6075,-89.7635 851.3389,-92.3725 860.9932,-96.7365 861.6075,-89.7635"/>
</g>
<!-- 2&#45;&gt;0 -->
<g id="edge2" class="edge">
<title>2&#45;&gt;0</title>
<path fill="none" stroke="#c0c0c0" stroke-width="2" d="M72.6687,-575.9025C59.7529,-549.1296 38,-497.0538 38,-450 38,-450 38,-450 38,-162 38,-107.2846 73.9868,-98.2395 122,-72 166.1452,-47.8743 311.4251,-29.4835 380.6635,-21.8552"/>
<polygon fill="#c0c0c0" stroke="#c0c0c0" stroke-width="2" points="381.1373,-25.3245 390.7014,-20.7662 380.3822,-18.3653 381.1373,-25.3245"/>
</g>
<!-- 3&#45;&gt;0 -->
<g id="edge12" class="edge">
<title>3&#45;&gt;0</title>
<path fill="none" stroke="#c0c0c0" stroke-width="2" d="M183.6482,-581.4581C165.3498,-572.036 141.6608,-557.7293 125,-540 93.811,-506.8108 76,-495.5442 76,-450 76,-450 76,-450 76,-162 76,-96.3894 292.5038,-44.0249 380.9908,-25.363"/>
<polygon fill="#c0c0c0" stroke="#c0c0c0" stroke-width="2" points="381.8005,-28.7696 390.878,-23.3061 380.3747,-21.9163 381.8005,-28.7696"/>
</g>
<!-- 4 -->
<g id="node5" class="node">
<title>4</title>
<path fill="none" stroke="#56c9d8" stroke-width="2" d="M210,-540C210,-540 154,-540 154,-540 148,-540 142,-534 142,-528 142,-528 142,-516 142,-516 142,-510 148,-504 154,-504 154,-504 210,-504 210,-504 216,-504 222,-510 222,-516 222,-516 222,-528 222,-528 222,-534 216,-540 210,-540"/>
<text text-anchor="middle" x="182" y="-519.5" font-family="sans" font-size="10.00" fill="#000000">flye_add_circ</text>
</g>
<!-- 3&#45;&gt;4 -->
<g id="edge16" class="edge">
<title>3&#45;&gt;4</title>
<path fill="none" stroke="#c0c0c0" stroke-width="2" d="M203.6821,-575.8314C200.5124,-567.9617 196.73,-558.5712 193.2187,-549.8533"/>
<polygon fill="#c0c0c0" stroke="#c0c0c0" stroke-width="2" points="196.3992,-548.3815 189.4165,-540.4133 189.9061,-550.9968 196.3992,-548.3815"/>
</g>
<!-- 17 -->
<g id="node18" class="node">
<title>17</title>
<path fill="none" stroke="#d89c56" stroke-width="2" d="M433,-108C433,-108 403,-108 403,-108 397,-108 391,-102 391,-96 391,-96 391,-84 391,-84 391,-78 397,-72 403,-72 403,-72 433,-72 433,-72 439,-72 445,-78 445,-84 445,-84 445,-96 445,-96 445,-102 439,-108 433,-108"/>
<text text-anchor="middle" x="418" y="-87.5" font-family="sans" font-size="10.00" fill="#000000">prokka</text>
</g>
<!-- 3&#45;&gt;17 -->
<g id="edge49" class="edge">
<title>3&#45;&gt;17</title>
<path fill="none" stroke="#c0c0c0" stroke-width="2" d="M183.673,-583.1792C165.7075,-574.456 143.6251,-560.2787 133,-540 125.5743,-525.8275 130.012,-519.7185 133,-504 165.1206,-335.0288 149.509,-261.6224 275,-144 310.7642,-110.4783 335.92,-126.846 381.4057,-110.0543"/>
<polygon fill="#c0c0c0" stroke="#c0c0c0" stroke-width="2" points="382.8457,-113.247 390.7831,-106.2293 380.2018,-106.7655 382.8457,-113.247"/>
</g>
<!-- 18 -->
<g id="node19" class="node">
<title>18</title>
<path fill="none" stroke="#d8c356" stroke-width="2" d="M759,-108C759,-108 729,-108 729,-108 723,-108 717,-102 717,-96 717,-96 717,-84 717,-84 717,-78 723,-72 729,-72 729,-72 759,-72 759,-72 765,-72 771,-78 771,-84 771,-84 771,-96 771,-96 771,-102 765,-108 759,-108"/>
<text text-anchor="middle" x="744" y="-87.5" font-family="sans" font-size="10.00" fill="#000000">quast</text>
</g>
<!-- 3&#45;&gt;18 -->
<g id="edge56" class="edge">
<title>3&#45;&gt;18</title>
<path fill="none" stroke="#c0c0c0" stroke-width="2" d="M238.1493,-582.9539C310.6534,-552.2292 511.2273,-459.0446 628,-324 678.965,-265.0604 698.2708,-252.0242 728,-180 736.1493,-160.257 740.1522,-136.3979 742.1161,-118.2073"/>
<polygon fill="#c0c0c0" stroke="#c0c0c0" stroke-width="2" points="745.603,-118.5092 743.0527,-108.2259 738.6336,-117.8552 745.603,-118.5092"/>
</g>
<!-- 19 -->
<g id="node20" class="node">
<title>19</title>
<path fill="none" stroke="#56d8a2" stroke-width="2" d="M547,-108C547,-108 517,-108 517,-108 511,-108 505,-102 505,-96 505,-96 505,-84 505,-84 505,-78 511,-72 517,-72 517,-72 547,-72 547,-72 553,-72 559,-78 559,-84 559,-84 559,-96 559,-96 559,-102 553,-108 547,-108"/>
<text text-anchor="middle" x="532" y="-87.5" font-family="sans" font-size="10.00" fill="#000000">busco</text>
</g>
<!-- 3&#45;&gt;19 -->
<g id="edge63" class="edge">
<title>3&#45;&gt;19</title>
<path fill="none" stroke="#c0c0c0" stroke-width="2" d="M217.8715,-575.7095C233.2765,-534.7514 269.5037,-438.71 273,-432 344.4299,-294.9128 364.6204,-258.925 468,-144 477.4521,-133.4923 488.9551,-123.1776 499.5881,-114.4248"/>
<polygon fill="#c0c0c0" stroke="#c0c0c0" stroke-width="2" points="501.9037,-117.054 507.5013,-108.0585 497.5158,-111.5999 501.9037,-117.054"/>
</g>
<!-- 4&#45;&gt;0 -->
<g id="edge5" class="edge">
<title>4&#45;&gt;0</title>
<path fill="none" stroke="#c0c0c0" stroke-width="2" d="M184.3929,-503.731C188.6317,-473.421 198.5016,-411.0213 214,-360 244.2276,-260.4897 260.1975,-238.3257 304,-144 319.1532,-111.3687 317.3593,-99.1208 341,-72 352.639,-58.6476 368.2411,-46.9146 382.3573,-37.8263"/>
<polygon fill="#c0c0c0" stroke="#c0c0c0" stroke-width="2" points="384.2566,-40.7669 390.906,-32.5185 380.5641,-34.82 384.2566,-40.7669"/>
</g>
<!-- 4&#45;&gt;5 -->
<g id="edge18" class="edge">
<title>4&#45;&gt;5</title>
<path fill="none" stroke="#c0c0c0" stroke-width="2" d="M214.2998,-503.8314C232.1206,-493.8072 254.3284,-481.3153 272.8636,-470.8892"/>
<polygon fill="#c0c0c0" stroke="#c0c0c0" stroke-width="2" points="274.6325,-473.91 281.6324,-465.9568 271.2007,-467.8089 274.6325,-473.91"/>
</g>
<!-- 5&#45;&gt;0 -->
<g id="edge13" class="edge">
<title>5&#45;&gt;0</title>
<path fill="none" stroke="#c0c0c0" stroke-width="2" d="M301.6046,-431.5348C288.9989,-401.4604 267.7014,-340.0271 278,-288 298.1615,-186.1464 310.6351,-159.1988 367,-72 373.6054,-61.7811 382.2703,-51.759 390.579,-43.177"/>
<polygon fill="#c0c0c0" stroke="#c0c0c0" stroke-width="2" points="393.1257,-45.5801 397.7282,-36.0371 388.1792,-40.6271 393.1257,-45.5801"/>
</g>
<!-- 6 -->
<g id="node7" class="node">
<title>6</title>
<path fill="none" stroke="#78d856" stroke-width="2" d="M496.5,-324C496.5,-324 453.5,-324 453.5,-324 447.5,-324 441.5,-318 441.5,-312 441.5,-312 441.5,-300 441.5,-300 441.5,-294 447.5,-288 453.5,-288 453.5,-288 496.5,-288 496.5,-288 502.5,-288 508.5,-294 508.5,-300 508.5,-300 508.5,-312 508.5,-312 508.5,-318 502.5,-324 496.5,-324"/>
<text text-anchor="middle" x="475" y="-303.5" font-family="sans" font-size="10.00" fill="#000000">polypolish</text>
</g>
<!-- 5&#45;&gt;6 -->
<g id="edge20" class="edge">
<title>5&#45;&gt;6</title>
<path fill="none" stroke="#c0c0c0" stroke-width="2" d="M330.8974,-431.7623C360.1563,-406.2272 413.4325,-359.7316 446.365,-330.9906"/>
<polygon fill="#c0c0c0" stroke="#c0c0c0" stroke-width="2" points="449.0394,-333.302 454.2723,-324.0896 444.4367,-328.028 449.0394,-333.302"/>
</g>
<!-- 8 -->
<g id="node9" class="node">
<title>8</title>
<path fill="none" stroke="#56d863" stroke-width="2" d="M493.5,-396C493.5,-396 456.5,-396 456.5,-396 450.5,-396 444.5,-390 444.5,-384 444.5,-384 444.5,-372 444.5,-372 444.5,-366 450.5,-360 456.5,-360 456.5,-360 493.5,-360 493.5,-360 499.5,-360 505.5,-366 505.5,-372 505.5,-372 505.5,-384 505.5,-384 505.5,-390 499.5,-396 493.5,-396"/>
<text text-anchor="middle" x="475" y="-375.5" font-family="sans" font-size="10.00" fill="#000000">bwaalign</text>
</g>
<!-- 5&#45;&gt;8 -->
<g id="edge22" class="edge">
<title>5&#45;&gt;8</title>
<path fill="none" stroke="#c0c0c0" stroke-width="2" d="M338.3645,-437.6228C365.0532,-425.9768 405.2747,-408.4256 435.1756,-395.3779"/>
<polygon fill="#c0c0c0" stroke="#c0c0c0" stroke-width="2" points="436.7252,-398.5205 444.4908,-391.3131 433.9255,-392.1047 436.7252,-398.5205"/>
</g>
<!-- 5&#45;&gt;17 -->
<g id="edge50" class="edge">
<title>5&#45;&gt;17</title>
<path fill="none" stroke="#c0c0c0" stroke-width="2" d="M305.9352,-431.7696C293.3031,-373.1753 257.4736,-190.7659 290,-144 314.4104,-108.9031 341.3243,-124.904 381.4226,-110.0863"/>
<polygon fill="#c0c0c0" stroke="#c0c0c0" stroke-width="2" points="382.8922,-113.2652 390.7514,-106.1601 380.1767,-106.8134 382.8922,-113.2652"/>
</g>
<!-- 5&#45;&gt;18 -->
<g id="edge57" class="edge">
<title>5&#45;&gt;18</title>
<path fill="none" stroke="#c0c0c0" stroke-width="2" d="M338.1354,-447.6397C379.5433,-443.0991 458.1307,-430.3375 515,-396 628.5337,-327.4488 704.3767,-179.4103 732.1758,-117.7918"/>
<polygon fill="#c0c0c0" stroke="#c0c0c0" stroke-width="2" points="735.516,-118.8934 736.3701,-108.333 729.1169,-116.0558 735.516,-118.8934"/>
</g>
<!-- 5&#45;&gt;19 -->
<g id="edge64" class="edge">
<title>5&#45;&gt;19</title>
<path fill="none" stroke="#c0c0c0" stroke-width="2" d="M320.3396,-431.7865C347.6323,-383.9402 424.3074,-251.0041 494,-144 499.9123,-134.9225 506.6377,-125.1884 512.7703,-116.5195"/>
<polygon fill="#c0c0c0" stroke="#c0c0c0" stroke-width="2" points="515.697,-118.4434 518.6532,-108.2694 509.9976,-114.3793 515.697,-118.4434"/>
</g>
<!-- 6&#45;&gt;0 -->
<g id="edge3" class="edge">
<title>6&#45;&gt;0</title>
<path fill="none" stroke="#c0c0c0" stroke-width="2" d="M441.4185,-294.0094C422.5695,-285.3982 400.5732,-271.7822 389,-252 348.5723,-182.8966 358.7997,-148.6252 382,-72 384.9564,-62.2355 390.3252,-52.6229 396.03,-44.2762"/>
<polygon fill="#c0c0c0" stroke="#c0c0c0" stroke-width="2" points="398.9414,-46.2239 402.0095,-36.0831 393.2871,-42.0973 398.9414,-46.2239"/>
</g>
<!-- 9 -->
<g id="node10" class="node">
<title>9</title>
<path fill="none" stroke="#56d8d0" stroke-width="2" d="M602,-180C602,-180 572,-180 572,-180 566,-180 560,-174 560,-168 560,-168 560,-156 560,-156 560,-150 566,-144 572,-144 572,-144 602,-144 602,-144 608,-144 614,-150 614,-156 614,-156 614,-168 614,-168 614,-174 608,-180 602,-180"/>
<text text-anchor="middle" x="587" y="-159.5" font-family="sans" font-size="10.00" fill="#000000">pilon</text>
</g>
<!-- 6&#45;&gt;9 -->
<g id="edge24" class="edge">
<title>6&#45;&gt;9</title>
<path fill="none" stroke="#c0c0c0" stroke-width="2" d="M479.5036,-287.9315C484.9905,-268.607 495.728,-237.8032 513,-216 523.4505,-202.808 537.9055,-191.2952 551.2688,-182.3276"/>
<polygon fill="#c0c0c0" stroke="#c0c0c0" stroke-width="2" points="553.3258,-185.1659 559.8396,-176.81 549.5367,-179.2801 553.3258,-185.1659"/>
</g>
<!-- 10 -->
<g id="node11" class="node">
<title>10</title>
<path fill="none" stroke="#566bd8" stroke-width="2" d="M626,-252C626,-252 534,-252 534,-252 528,-252 522,-246 522,-240 522,-240 522,-228 522,-228 522,-222 528,-216 534,-216 534,-216 626,-216 626,-216 632,-216 638,-222 638,-228 638,-228 638,-240 638,-240 638,-246 632,-252 626,-252"/>
<text text-anchor="middle" x="580" y="-231.5" font-family="sans" font-size="10.00" fill="#000000">bwaalign_polypolish</text>
</g>
<!-- 6&#45;&gt;10 -->
<g id="edge27" class="edge">
<title>6&#45;&gt;10</title>
<path fill="none" stroke="#c0c0c0" stroke-width="2" d="M501.4959,-287.8314C514.6774,-278.7927 530.7847,-267.7476 544.9711,-258.0198"/>
<polygon fill="#c0c0c0" stroke="#c0c0c0" stroke-width="2" points="547.2446,-260.7047 553.5125,-252.1628 543.2859,-254.9316 547.2446,-260.7047"/>
</g>
<!-- 6&#45;&gt;17 -->
<g id="edge45" class="edge">
<title>6&#45;&gt;17</title>
<path fill="none" stroke="#c0c0c0" stroke-width="2" d="M441.31,-289.422C427.0421,-280.4735 411.911,-267.9559 404,-252 382.6354,-208.909 395.9092,-151.4204 407.1788,-117.7843"/>
<polygon fill="#c0c0c0" stroke="#c0c0c0" stroke-width="2" points="410.5499,-118.7484 410.5713,-108.1536 403.9476,-116.4226 410.5499,-118.7484"/>
</g>
<!-- 6&#45;&gt;18 -->
<g id="edge52" class="edge">
<title>6&#45;&gt;18</title>
<path fill="none" stroke="#c0c0c0" stroke-width="2" d="M508.7015,-302.599C545.9942,-297.326 606.204,-284.1715 647,-252 692.1745,-216.3757 720.9981,-153.4598 734.6585,-117.4141"/>
<polygon fill="#c0c0c0" stroke="#c0c0c0" stroke-width="2" points="737.952,-118.5986 738.1103,-108.0049 731.3803,-116.1877 737.952,-118.5986"/>
</g>
<!-- 6&#45;&gt;19 -->
<g id="edge59" class="edge">
<title>6&#45;&gt;19</title>
<path fill="none" stroke="#c0c0c0" stroke-width="2" d="M476.5832,-287.8751C478.424,-269.5592 482.0029,-240.5372 488,-216 496.4988,-181.227 510.7644,-142.5355 520.7412,-117.3192"/>
<polygon fill="#c0c0c0" stroke="#c0c0c0" stroke-width="2" points="523.9925,-118.6146 524.464,-108.0302 517.495,-116.0104 523.9925,-118.6146"/>
</g>
<!-- 7 -->
<g id="node8" class="node">
<title>7</title>
<path fill="none" stroke="#56d87b" stroke-width="2" d="M825,-540C825,-540 751,-540 751,-540 745,-540 739,-534 739,-528 739,-528 739,-516 739,-516 739,-510 745,-504 751,-504 751,-504 825,-504 825,-504 831,-504 837,-510 837,-516 837,-516 837,-528 837,-528 837,-534 831,-540 825,-540"/>
<text text-anchor="middle" x="788" y="-519.5" font-family="sans" font-size="10.00" fill="#000000">trimmomatic_pe</text>
</g>
<!-- 7&#45;&gt;6 -->
<g id="edge21" class="edge">
<title>7&#45;&gt;6</title>
<path fill="none" stroke="#c0c0c0" stroke-width="2" d="M752.3702,-503.9355C733.4624,-493.9611 710.0557,-480.9878 690,-468 621.0032,-423.3184 545.328,-363.5647 504.7195,-330.5402"/>
<polygon fill="#c0c0c0" stroke="#c0c0c0" stroke-width="2" points="506.7998,-327.7203 496.8394,-324.1089 502.3737,-333.1435 506.7998,-327.7203"/>
</g>
<!-- 7&#45;&gt;8 -->
<g id="edge23" class="edge">
<title>7&#45;&gt;8</title>
<path fill="none" stroke="#c0c0c0" stroke-width="2" d="M738.6616,-510.5444C703.0746,-501.3669 654.3923,-486.9056 614,-468 574.9982,-449.7452 534.0496,-422.0405 506.785,-402.194"/>
<polygon fill="#c0c0c0" stroke="#c0c0c0" stroke-width="2" points="508.5622,-399.1564 498.4335,-396.0485 504.4134,-404.7944 508.5622,-399.1564"/>
</g>
<!-- 7&#45;&gt;9 -->
<g id="edge26" class="edge">
<title>7&#45;&gt;9</title>
<path fill="none" stroke="#c0c0c0" stroke-width="2" d="M782.4862,-503.7349C766.9106,-454.0657 718.985,-313.7232 647,-216 639.13,-205.316 628.8734,-195.148 619.0724,-186.5758"/>
<polygon fill="#c0c0c0" stroke="#c0c0c0" stroke-width="2" points="621.2618,-183.8436 611.3641,-180.0638 616.7444,-189.1909 621.2618,-183.8436"/>
</g>
<!-- 7&#45;&gt;10 -->
<g id="edge28" class="edge">
<title>7&#45;&gt;10</title>
<path fill="none" stroke="#c0c0c0" stroke-width="2" d="M768.8483,-503.766C758.6298,-493.6391 746.1135,-480.5767 736,-468 679.0123,-397.1332 622.3725,-305.5224 595.7393,-260.8635"/>
<polygon fill="#c0c0c0" stroke="#c0c0c0" stroke-width="2" points="598.6351,-258.8849 590.5222,-252.0708 592.615,-262.4569 598.6351,-258.8849"/>
</g>
<!-- 11 -->
<g id="node12" class="node">
<title>11</title>
<path fill="none" stroke="#8fd856" stroke-width="2" d="M1121,-324C1121,-324 1029,-324 1029,-324 1023,-324 1017,-318 1017,-312 1017,-312 1017,-300 1017,-300 1017,-294 1023,-288 1029,-288 1029,-288 1121,-288 1121,-288 1127,-288 1133,-294 1133,-300 1133,-300 1133,-312 1133,-312 1133,-318 1127,-324 1121,-324"/>
<text text-anchor="middle" x="1075" y="-303.5" font-family="sans" font-size="10.00" fill="#000000">polypolish_unicycler</text>
</g>
<!-- 7&#45;&gt;11 -->
<g id="edge31" class="edge">
<title>7&#45;&gt;11</title>
<path fill="none" stroke="#c0c0c0" stroke-width="2" d="M799.1998,-503.7828C820.4152,-470.6869 869.6065,-400.3863 928,-360 951.6946,-343.6123 980.9591,-331.5392 1007.1231,-323.0167"/>
<polygon fill="#c0c0c0" stroke="#c0c0c0" stroke-width="2" points="1008.4879,-326.2567 1016.9808,-319.9225 1006.3916,-319.578 1008.4879,-326.2567"/>
</g>
<!-- 7&#45;&gt;12 -->
<g id="edge33" class="edge">
<title>7&#45;&gt;12</title>
<path fill="none" stroke="#c0c0c0" stroke-width="2" d="M837.1751,-506.4388C869.4238,-496.0302 912.4194,-481.7661 950,-468 951.432,-467.4754 952.8869,-466.9349 954.3541,-466.3833"/>
<polygon fill="#c0c0c0" stroke="#c0c0c0" stroke-width="2" points="956.0286,-469.4894 964.1069,-462.6343 953.5169,-462.9555 956.0286,-469.4894"/>
</g>
<!-- 13 -->
<g id="node14" class="node">
<title>13</title>
<path fill="none" stroke="#56d892" stroke-width="2" d="M1035,-396C1035,-396 949,-396 949,-396 943,-396 937,-390 937,-384 937,-384 937,-372 937,-372 937,-366 943,-360 949,-360 949,-360 1035,-360 1035,-360 1041,-360 1047,-366 1047,-372 1047,-372 1047,-384 1047,-384 1047,-390 1041,-396 1035,-396"/>
<text text-anchor="middle" x="992" y="-375.5" font-family="sans" font-size="10.00" fill="#000000">bwaalign_unicycler</text>
</g>
<!-- 7&#45;&gt;13 -->
<g id="edge35" class="edge">
<title>7&#45;&gt;13</title>
<path fill="none" stroke="#c0c0c0" stroke-width="2" d="M837.0938,-506.2508C860.9957,-497.2255 889.3801,-484.4038 912,-468 936.3246,-450.3599 958.5531,-424.1577 973.3715,-404.5683"/>
<polygon fill="#c0c0c0" stroke="#c0c0c0" stroke-width="2" points="976.3135,-406.4765 979.446,-396.3553 970.6856,-402.3139 976.3135,-406.4765"/>
</g>
<!-- 14 -->
<g id="node15" class="node">
<title>14</title>
<path fill="none" stroke="#d88556" stroke-width="2" d="M924,-180C924,-180 858,-180 858,-180 852,-180 846,-174 846,-168 846,-168 846,-156 846,-156 846,-150 852,-144 858,-144 858,-144 924,-144 924,-144 930,-144 936,-150 936,-156 936,-156 936,-168 936,-168 936,-174 930,-180 924,-180"/>
<text text-anchor="middle" x="891" y="-159.5" font-family="sans" font-size="10.00" fill="#000000">pilon_unicycler</text>
</g>
<!-- 7&#45;&gt;14 -->
<g id="edge38" class="edge">
<title>7&#45;&gt;14</title>
<path fill="none" stroke="#c0c0c0" stroke-width="2" d="M837.4164,-516.5203C952.7548,-502.3608 1230,-459.8155 1230,-378 1230,-378 1230,-378 1230,-306 1230,-238.9772 1169.6055,-244.6186 1109,-216 1056.5541,-191.2344 991.4539,-177.0174 946.1121,-169.4519"/>
<polygon fill="#c0c0c0" stroke="#c0c0c0" stroke-width="2" points="946.6076,-165.9866 936.1776,-167.8478 945.4918,-172.8971 946.6076,-165.9866"/>
</g>
<!-- 15 -->
<g id="node16" class="node">
<title>15</title>
<path fill="none" stroke="#5682d8" stroke-width="2" d="M1038,-252C1038,-252 896,-252 896,-252 890,-252 884,-246 884,-240 884,-240 884,-228 884,-228 884,-222 890,-216 896,-216 896,-216 1038,-216 1038,-216 1044,-216 1050,-222 1050,-228 1050,-228 1050,-240 1050,-240 1050,-246 1044,-252 1038,-252"/>
<text text-anchor="middle" x="967" y="-231.5" font-family="sans" font-size="10.00" fill="#000000">bwaalign_polypolish_unicycler</text>
</g>
<!-- 7&#45;&gt;15 -->
<g id="edge40" class="edge">
<title>7&#45;&gt;15</title>
<path fill="none" stroke="#c0c0c0" stroke-width="2" d="M792.7573,-503.7485C798.0153,-485.08 807.4318,-455.5559 820,-432 855.6932,-365.1023 912.356,-296.0014 943.8909,-259.7638"/>
<polygon fill="#c0c0c0" stroke="#c0c0c0" stroke-width="2" points="946.6318,-261.9468 950.5948,-252.121 941.3694,-257.3308 946.6318,-261.9468"/>
</g>
<!-- 8&#45;&gt;6 -->
<g id="edge19" class="edge">
<title>8&#45;&gt;6</title>
<path fill="none" stroke="#c0c0c0" stroke-width="2" d="M475,-359.8314C475,-352.131 475,-342.9743 475,-334.4166"/>
<polygon fill="#c0c0c0" stroke="#c0c0c0" stroke-width="2" points="478.5001,-334.4132 475,-324.4133 471.5001,-334.4133 478.5001,-334.4132"/>
</g>
<!-- 9&#45;&gt;0 -->
<g id="edge1" class="edge">
<title>9&#45;&gt;0</title>
<path fill="none" stroke="#c0c0c0" stroke-width="2" d="M588.0627,-143.8618C588.2324,-123.8966 585.4129,-91.9882 568,-72 539.4965,-39.2808 489.6456,-26.3842 455.2855,-21.3023"/>
<polygon fill="#c0c0c0" stroke="#c0c0c0" stroke-width="2" points="455.5328,-17.8046 445.1601,-19.9628 454.6147,-24.7442 455.5328,-17.8046"/>
</g>
<!-- 9&#45;&gt;16 -->
<g id="edge41" class="edge">
<title>9&#45;&gt;16</title>
<path fill="none" stroke="#c0c0c0" stroke-width="2" d="M614.2268,-155.6679C651.9456,-146.6065 722.0076,-128.7265 780,-108 780.4392,-107.843 780.8804,-107.6835 781.3231,-107.5217"/>
<polygon fill="#c0c0c0" stroke="#c0c0c0" stroke-width="2" points="782.6954,-110.7433 790.7426,-103.8518 780.1542,-104.2209 782.6954,-110.7433"/>
</g>
<!-- 9&#45;&gt;17 -->
<g id="edge46" class="edge">
<title>9&#45;&gt;17</title>
<path fill="none" stroke="#c0c0c0" stroke-width="2" d="M559.8472,-150.432C531.2666,-138.2556 486.1133,-119.0187 454.4467,-105.5276"/>
<polygon fill="#c0c0c0" stroke="#c0c0c0" stroke-width="2" points="455.6571,-102.2389 445.0854,-101.5393 452.9134,-108.6788 455.6571,-102.2389"/>
</g>
<!-- 9&#45;&gt;18 -->
<g id="edge53" class="edge">
<title>9&#45;&gt;18</title>
<path fill="none" stroke="#c0c0c0" stroke-width="2" d="M614.3473,-149.4586C640.237,-137.5856 679.2746,-119.683 707.7488,-106.6247"/>
<polygon fill="#c0c0c0" stroke="#c0c0c0" stroke-width="2" points="709.3353,-109.7477 716.9661,-102.3977 706.4173,-103.3849 709.3353,-109.7477"/>
</g>
<!-- 9&#45;&gt;19 -->
<g id="edge60" class="edge">
<title>9&#45;&gt;19</title>
<path fill="none" stroke="#c0c0c0" stroke-width="2" d="M573.1212,-143.8314C566.7864,-135.5386 559.1616,-125.557 552.2074,-116.4533"/>
<polygon fill="#c0c0c0" stroke="#c0c0c0" stroke-width="2" points="554.9175,-114.2353 546.0657,-108.4133 549.3548,-118.4847 554.9175,-114.2353"/>
</g>
<!-- 10&#45;&gt;9 -->
<g id="edge25" class="edge">
<title>10&#45;&gt;9</title>
<path fill="none" stroke="#c0c0c0" stroke-width="2" d="M581.7664,-215.8314C582.515,-208.131 583.4053,-198.9743 584.2373,-190.4166"/>
<polygon fill="#c0c0c0" stroke="#c0c0c0" stroke-width="2" points="587.7256,-190.7051 585.2098,-180.4133 580.7585,-190.0276 587.7256,-190.7051"/>
</g>
<!-- 11&#45;&gt;0 -->
<g id="edge4" class="edge">
<title>11&#45;&gt;0</title>
<path fill="none" stroke="#c0c0c0" stroke-width="2" d="M1098.3909,-287.838C1108.6333,-278.3937 1119.5459,-265.9182 1125,-252 1144.8025,-201.4665 1111.5985,-176.3256 1068,-144 997.7909,-91.9443 969.7924,-93.1983 885,-72 728.3301,-32.8322 534.8606,-21.9517 455.0716,-19.0299"/>
<polygon fill="#c0c0c0" stroke="#c0c0c0" stroke-width="2" points="455.1406,-15.5303 445.0256,-18.6826 454.8987,-22.5261 455.1406,-15.5303"/>
</g>
<!-- 11&#45;&gt;14 -->
<g id="edge36" class="edge">
<title>11&#45;&gt;14</title>
<path fill="none" stroke="#c0c0c0" stroke-width="2" d="M1085.9691,-287.8608C1096.2882,-268.19 1107.9653,-236.8206 1092,-216 1074.2876,-192.901 999.2552,-177.4881 946.0685,-169.236"/>
<polygon fill="#c0c0c0" stroke="#c0c0c0" stroke-width="2" points="946.4885,-165.7599 936.0784,-167.7296 945.4447,-172.6816 946.4885,-165.7599"/>
</g>
<!-- 11&#45;&gt;15 -->
<g id="edge39" class="edge">
<title>11&#45;&gt;15</title>
<path fill="none" stroke="#c0c0c0" stroke-width="2" d="M1047.747,-287.8314C1034.0611,-278.7074 1017.3085,-267.539 1002.6173,-257.7449"/>
<polygon fill="#c0c0c0" stroke="#c0c0c0" stroke-width="2" points="1004.5062,-254.7977 994.2442,-252.1628 1000.6233,-260.6221 1004.5062,-254.7977"/>
</g>
<!-- 11&#45;&gt;17 -->
<g id="edge44" class="edge">
<title>11&#45;&gt;17</title>
<path fill="none" stroke="#c0c0c0" stroke-width="2" d="M1016.8693,-294.7571C898.8255,-271.4827 635.1082,-217.1018 551,-180 512.5608,-163.0437 473.2913,-134.8651 447.488,-114.5512"/>
<polygon fill="#c0c0c0" stroke="#c0c0c0" stroke-width="2" points="449.6007,-111.7593 439.6016,-108.2564 445.2338,-117.2302 449.6007,-111.7593"/>
</g>
<!-- 11&#45;&gt;18 -->
<g id="edge51" class="edge">
<title>11&#45;&gt;18</title>
<path fill="none" stroke="#c0c0c0" stroke-width="2" d="M1091.3705,-287.6714C1106.2504,-268.6778 1123.796,-238.6549 1109,-216 1025.3076,-87.8542 926.8027,-157.5778 782,-108 781.5511,-107.8463 781.1005,-107.6888 780.6485,-107.5278"/>
<polygon fill="#c0c0c0" stroke="#c0c0c0" stroke-width="2" points="781.6775,-104.1706 771.0918,-103.7313 779.0931,-110.676 781.6775,-104.1706"/>
</g>
<!-- 11&#45;&gt;19 -->
<g id="edge58" class="edge">
<title>11&#45;&gt;19</title>
<path fill="none" stroke="#c0c0c0" stroke-width="2" d="M1077.3896,-287.6734C1078.9378,-267.2309 1077.882,-234.5976 1059,-216 1023.3932,-180.9296 885.6927,-191.2607 837,-180 783.1648,-167.55 770.9778,-159.7032 718,-144 666.4308,-128.7143 606.6866,-111.4476 569.118,-100.6436"/>
<polygon fill="#c0c0c0" stroke="#c0c0c0" stroke-width="2" points="569.7128,-97.1729 559.135,-97.7747 567.7793,-103.9006 569.7128,-97.1729"/>
</g>
<!-- 12&#45;&gt;11 -->
<g id="edge30" class="edge">
<title>12&#45;&gt;11</title>
<path fill="none" stroke="#c0c0c0" stroke-width="2" d="M1022.3714,-431.9364C1034.4482,-422.5964 1047.7466,-410.1796 1056,-396 1066.9461,-377.1942 1071.6226,-352.9106 1073.6026,-334.3081"/>
<polygon fill="#c0c0c0" stroke="#c0c0c0" stroke-width="2" points="1077.111,-334.36 1074.4837,-324.0961 1070.1369,-333.7581 1077.111,-334.36"/>
</g>
<!-- 12&#45;&gt;13 -->
<g id="edge34" class="edge">
<title>12&#45;&gt;13</title>
<path fill="none" stroke="#c0c0c0" stroke-width="2" d="M994.243,-431.8314C993.9221,-424.131 993.5406,-414.9743 993.184,-406.4166"/>
<polygon fill="#c0c0c0" stroke="#c0c0c0" stroke-width="2" points="996.6806,-406.2589 992.7672,-396.4133 989.6867,-406.5503 996.6806,-406.2589"/>
</g>
<!-- 12&#45;&gt;17 -->
<g id="edge48" class="edge">
<title>12&#45;&gt;17</title>
<path fill="none" stroke="#c0c0c0" stroke-width="2" d="M964.3239,-444.5104C882.269,-428.4617 654.3901,-374.7875 513,-252 470.2056,-214.836 441.7244,-153.4431 427.8509,-117.8643"/>
<polygon fill="#c0c0c0" stroke="#c0c0c0" stroke-width="2" points="430.9809,-116.2462 424.1697,-108.1309 424.4335,-118.7224 430.9809,-116.2462"/>
</g>
<!-- 12&#45;&gt;18 -->
<g id="edge55" class="edge">
<title>12&#45;&gt;18</title>
<path fill="none" stroke="#c0c0c0" stroke-width="2" d="M1025.562,-432.5572C1086.4683,-395.401 1213.3753,-304.5832 1168,-216 1143.032,-167.2567 1118.9678,-164.0399 1068,-144 948.771,-97.1207 904.9896,-143.8721 782,-108 781.6715,-107.9042 781.3423,-107.8059 781.0125,-107.7051"/>
<polygon fill="#c0c0c0" stroke="#c0c0c0" stroke-width="2" points="782.005,-104.342 771.4108,-104.223 779.6184,-110.9227 782.005,-104.342"/>
</g>
<!-- 12&#45;&gt;19 -->
<g id="edge62" class="edge">
<title>12&#45;&gt;19</title>
<path fill="none" stroke="#c0c0c0" stroke-width="2" d="M972.3053,-431.8216C959.3041,-421.3795 942.6999,-407.9959 928,-396 791.766,-284.8263 766.8187,-245.1707 623,-144 605.6315,-131.7819 585.3944,-119.5878 568.4204,-109.8872"/>
<polygon fill="#c0c0c0" stroke="#c0c0c0" stroke-width="2" points="569.7932,-106.6427 559.3651,-104.7701 566.3493,-112.737 569.7932,-106.6427"/>
</g>
<!-- 13&#45;&gt;11 -->
<g id="edge29" class="edge">
<title>13&#45;&gt;11</title>
<path fill="none" stroke="#c0c0c0" stroke-width="2" d="M1012.9444,-359.8314C1023.0691,-351.0485 1035.3777,-340.3712 1046.3548,-330.8489"/>
<polygon fill="#c0c0c0" stroke="#c0c0c0" stroke-width="2" points="1048.8019,-333.3595 1054.0623,-324.1628 1044.2149,-328.0718 1048.8019,-333.3595"/>
</g>
<!-- 14&#45;&gt;0 -->
<g id="edge7" class="edge">
<title>14&#45;&gt;0</title>
<path fill="none" stroke="#c0c0c0" stroke-width="2" d="M890.215,-143.9688C888.2667,-123.1636 881.711,-89.5685 860,-72 828.73,-46.6964 556.1406,-26.8432 455.2988,-20.3037"/>
<polygon fill="#c0c0c0" stroke="#c0c0c0" stroke-width="2" points="455.4597,-16.8069 445.2562,-19.6598 455.0117,-23.7926 455.4597,-16.8069"/>
</g>
<!-- 14&#45;&gt;16 -->
<g id="edge43" class="edge">
<title>14&#45;&gt;16</title>
<path fill="none" stroke="#c0c0c0" stroke-width="2" d="M873.336,-143.8314C865.0268,-135.2848 854.9736,-124.9443 845.9082,-115.6198"/>
<polygon fill="#c0c0c0" stroke="#c0c0c0" stroke-width="2" points="848.3821,-113.1435 838.9018,-108.4133 843.3631,-118.023 848.3821,-113.1435"/>
</g>
<!-- 14&#45;&gt;17 -->
<g id="edge47" class="edge">
<title>14&#45;&gt;17</title>
<path fill="none" stroke="#c0c0c0" stroke-width="2" d="M845.7669,-157.1717C772.1429,-149.0094 621.9469,-131.092 496,-108 482.625,-105.5477 468.0798,-102.3406 455.2127,-99.3138"/>
<polygon fill="#c0c0c0" stroke="#c0c0c0" stroke-width="2" points="455.8478,-95.867 445.3077,-96.9429 454.2182,-102.6747 455.8478,-95.867"/>
</g>
<!-- 14&#45;&gt;18 -->
<g id="edge54" class="edge">
<title>14&#45;&gt;18</title>
<path fill="none" stroke="#c0c0c0" stroke-width="2" d="M853.9057,-143.8314C831.4302,-132.823 802.8786,-118.8385 780.5097,-107.8823"/>
<polygon fill="#c0c0c0" stroke="#c0c0c0" stroke-width="2" points="781.8575,-104.6452 771.3373,-103.3897 778.7784,-110.9316 781.8575,-104.6452"/>
</g>
<!-- 14&#45;&gt;19 -->
<g id="edge61" class="edge">
<title>14&#45;&gt;19</title>
<path fill="none" stroke="#c0c0c0" stroke-width="2" d="M845.8959,-152.9541C774.2143,-138.5778 635.6263,-110.783 569.2302,-97.4668"/>
<polygon fill="#c0c0c0" stroke="#c0c0c0" stroke-width="2" points="569.7082,-93.993 559.2152,-95.4582 568.3316,-100.8564 569.7082,-93.993"/>
</g>
<!-- 15&#45;&gt;14 -->
<g id="edge37" class="edge">
<title>15&#45;&gt;14</title>
<path fill="none" stroke="#c0c0c0" stroke-width="2" d="M947.822,-215.8314C938.6412,-207.1337 927.4994,-196.5783 917.5224,-187.1265"/>
<polygon fill="#c0c0c0" stroke="#c0c0c0" stroke-width="2" points="919.8385,-184.4995 910.1719,-180.1628 915.0243,-189.5811 919.8385,-184.4995"/>
</g>
<!-- 16&#45;&gt;0 -->
<g id="edge6" class="edge">
<title>16&#45;&gt;0</title>
<path fill="none" stroke="#c0c0c0" stroke-width="2" d="M790.8841,-75.7097C787.2674,-74.3137 783.5852,-73.0344 780,-72 664.3855,-38.6438 521.7336,-25.0881 455.3077,-20.2912"/>
<polygon fill="#c0c0c0" stroke="#c0c0c0" stroke-width="2" points="455.5363,-16.7987 445.3171,-19.5949 455.0495,-23.7818 455.5363,-16.7987"/>
</g>
<!-- 17&#45;&gt;0 -->
<g id="edge8" class="edge">
<title>17&#45;&gt;0</title>
<path fill="none" stroke="#c0c0c0" stroke-width="2" d="M418,-71.8314C418,-64.131 418,-54.9743 418,-46.4166"/>
<polygon fill="#c0c0c0" stroke="#c0c0c0" stroke-width="2" points="421.5001,-46.4132 418,-36.4133 414.5001,-46.4133 421.5001,-46.4132"/>
</g>
<!-- 18&#45;&gt;0 -->
<g id="edge9" class="edge">
<title>18&#45;&gt;0</title>
<path fill="none" stroke="#c0c0c0" stroke-width="2" d="M716.7661,-83.9852C658.5177,-71.1205 521.7517,-40.9145 455.4062,-26.2615"/>
<polygon fill="#c0c0c0" stroke="#c0c0c0" stroke-width="2" points="455.9051,-22.7874 445.3856,-24.0484 454.3955,-29.6227 455.9051,-22.7874"/>
</g>
<!-- 19&#45;&gt;0 -->
<g id="edge10" class="edge">
<title>19&#45;&gt;0</title>
<path fill="none" stroke="#c0c0c0" stroke-width="2" d="M504.9836,-72.937C489.7616,-63.3231 470.5515,-51.1904 454.0583,-40.7737"/>
<polygon fill="#c0c0c0" stroke="#c0c0c0" stroke-width="2" points="455.5414,-37.5708 445.2176,-35.19 451.8035,-43.4892 455.5414,-37.5708"/>
</g>
</g>
</svg>
