<?xml version="1.0" encoding="UTF-8" standalone="no"?>
<!DOCTYPE svg PUBLIC "-//W3C//DTD SVG 1.1//EN"
 "http://www.w3.org/Graphics/SVG/1.1/DTD/svg11.dtd">
<!-- Generated by graphviz version 2.40.1 (0)
 -->
<!-- Title: snakemake_dag Pages: 1 -->
<svg width="654pt" height="580pt"
 viewBox="0.00 0.00 654.24 580.00" xmlns="http://www.w3.org/2000/svg" xmlns:xlink="http://www.w3.org/1999/xlink">
<g id="graph0" class="graph" transform="scale(1 1) rotate(0) translate(4 576)">
<title>snakemake_dag</title>
<polygon fill="#ffffff" stroke="transparent" points="-4,4 -4,-576 650.2422,-576 650.2422,4 -4,4"/>
<!-- 0 -->
<g id="node1" class="node">
<title>0</title>
<path fill="none" stroke="#88d856" stroke-width="2" d="M386,-36C386,-36 356,-36 356,-36 350,-36 344,-30 344,-24 344,-24 344,-12 344,-12 344,-6 350,0 356,0 356,0 386,0 386,0 392,0 398,-6 398,-12 398,-12 398,-24 398,-24 398,-30 392,-36 386,-36"/>
<text text-anchor="middle" x="371" y="-15.5" font-family="sans" font-size="10.00" fill="#000000">all</text>
</g>
<!-- 1 -->
<g id="node2" class="node">
<title>1</title>
<path fill="none" stroke="#d89c56" stroke-width="2" stroke-dasharray="5,2" d="M475,-180C475,-180 213,-180 213,-180 207,-180 201,-174 201,-168 201,-168 201,-156 201,-156 201,-150 207,-144 213,-144 213,-144 475,-144 475,-144 481,-144 487,-150 487,-156 487,-156 487,-168 487,-168 487,-174 481,-180 475,-180"/>
<text text-anchor="middle" x="344" y="-165" font-family="sans" font-size="10.00" fill="#000000">pycoqc</text>
<text text-anchor="middle" x="344" y="-154" font-family="sans" font-size="10.00" fill="#000000">prefix: 20210107_2213_MN35107_FAO13840_83e8e224</text>
</g>
<!-- 1&#45;&gt;0 -->
<g id="edge1" class="edge">
<title>1&#45;&gt;0</title>
<path fill="none" stroke="#c0c0c0" stroke-width="2" d="M347.4196,-143.7623C352.0451,-119.0928 360.3388,-74.8598 365.755,-45.9731"/>
<polygon fill="#c0c0c0" stroke="#c0c0c0" stroke-width="2" points="369.2053,-46.5634 367.6082,-36.0896 362.3252,-45.2733 369.2053,-46.5634"/>
</g>
<!-- 14 -->
<g id="node15" class="node">
<title>14</title>
<path fill="none" stroke="#afd856" stroke-width="2" d="M414,-108C414,-108 384,-108 384,-108 378,-108 372,-102 372,-96 372,-96 372,-84 372,-84 372,-78 378,-72 384,-72 384,-72 414,-72 414,-72 420,-72 426,-78 426,-84 426,-84 426,-96 426,-96 426,-102 420,-108 414,-108"/>
<text text-anchor="middle" x="399" y="-87.5" font-family="sans" font-size="10.00" fill="#000000">multiqc</text>
</g>
<!-- 1&#45;&gt;14 -->
<g id="edge42" class="edge">
<title>1&#45;&gt;14</title>
<path fill="none" stroke="#c0c0c0" stroke-width="2" d="M357.8788,-143.8314C364.2136,-135.5386 371.8384,-125.557 378.7926,-116.4533"/>
<polygon fill="#c0c0c0" stroke="#c0c0c0" stroke-width="2" points="381.6452,-118.4847 384.9343,-108.4133 376.0825,-114.2353 381.6452,-118.4847"/>
</g>
<!-- 2 -->
<g id="node3" class="node">
<title>2</title>
<path fill="none" stroke="#56d88a" stroke-width="2" stroke-dasharray="5,2" d="M313,-484C313,-484 51,-484 51,-484 45,-484 39,-478 39,-472 39,-472 39,-444 39,-444 39,-438 45,-432 51,-432 51,-432 313,-432 313,-432 319,-432 325,-438 325,-444 325,-444 325,-472 325,-472 325,-478 319,-484 313,-484"/>
<text text-anchor="middle" x="182" y="-472" font-family="sans" font-size="10.00" fill="#000000">trimmomatic_pe</text>
<text text-anchor="middle" x="182" y="-461" font-family="sans" font-size="10.00" fill="#000000">barcode: barcode01</text>
<text text-anchor="middle" x="182" y="-450" font-family="sans" font-size="10.00" fill="#000000">prefix: 20210107_2213_MN35107_FAO13840_83e8e224</text>
<text text-anchor="middle" x="182" y="-439" font-family="sans" font-size="10.00" fill="#000000">sample: 309a</text>
</g>
<!-- 2&#45;&gt;0 -->
<g id="edge2" class="edge">
<title>2&#45;&gt;0</title>
<path fill="none" stroke="#c0c0c0" stroke-width="2" d="M111.634,-431.9553C60.4193,-407.9314 0,-366.722 0,-306 0,-306 0,-306 0,-162 0,-90.91 239.731,-41.0622 333.7773,-24.2421"/>
<polygon fill="#c0c0c0" stroke="#c0c0c0" stroke-width="2" points="334.4785,-27.6725 343.7195,-22.4903 333.2638,-20.7787 334.4785,-27.6725"/>
</g>
<!-- 3 -->
<g id="node4" class="node">
<title>3</title>
<path fill="none" stroke="#ced856" stroke-width="2" d="M553.5,-252C553.5,-252 510.5,-252 510.5,-252 504.5,-252 498.5,-246 498.5,-240 498.5,-240 498.5,-228 498.5,-228 498.5,-222 504.5,-216 510.5,-216 510.5,-216 553.5,-216 553.5,-216 559.5,-216 565.5,-222 565.5,-228 565.5,-228 565.5,-240 565.5,-240 565.5,-246 559.5,-252 553.5,-252"/>
<text text-anchor="middle" x="532" y="-231.5" font-family="sans" font-size="10.00" fill="#000000">polypolish</text>
</g>
<!-- 2&#45;&gt;3 -->
<g id="edge9" class="edge">
<title>2&#45;&gt;3</title>
<path fill="none" stroke="#c0c0c0" stroke-width="2" d="M223.9884,-431.8802C241.6295,-420.8606 262.3461,-407.8601 281,-396 357.637,-347.2742 446.8647,-289.4138 495.6051,-257.7108"/>
<polygon fill="#c0c0c0" stroke="#c0c0c0" stroke-width="2" points="497.7496,-260.4912 504.2227,-252.1037 493.9319,-254.6238 497.7496,-260.4912"/>
</g>
<!-- 7 -->
<g id="node8" class="node">
<title>7</title>
<path fill="none" stroke="#68d856" stroke-width="2" d="M547.5,-324C547.5,-324 510.5,-324 510.5,-324 504.5,-324 498.5,-318 498.5,-312 498.5,-312 498.5,-300 498.5,-300 498.5,-294 504.5,-288 510.5,-288 510.5,-288 547.5,-288 547.5,-288 553.5,-288 559.5,-294 559.5,-300 559.5,-300 559.5,-312 559.5,-312 559.5,-318 553.5,-324 547.5,-324"/>
<text text-anchor="middle" x="529" y="-303.5" font-family="sans" font-size="10.00" fill="#000000">bwaalign</text>
</g>
<!-- 2&#45;&gt;7 -->
<g id="edge15" class="edge">
<title>2&#45;&gt;7</title>
<path fill="none" stroke="#c0c0c0" stroke-width="2" d="M309.3688,-431.9281C342.3882,-422.8009 377.2805,-410.9772 408,-396 443.1549,-378.8603 478.4842,-351.0772 501.8133,-330.9088"/>
<polygon fill="#c0c0c0" stroke="#c0c0c0" stroke-width="2" points="504.338,-333.3498 509.5447,-324.1225 499.7203,-328.0889 504.338,-333.3498"/>
</g>
<!-- 8 -->
<g id="node9" class="node">
<title>8</title>
<path fill="none" stroke="#56d8a9" stroke-width="2" d="M202,-252C202,-252 110,-252 110,-252 104,-252 98,-246 98,-240 98,-240 98,-228 98,-228 98,-222 104,-216 110,-216 110,-216 202,-216 202,-216 208,-216 214,-222 214,-228 214,-228 214,-240 214,-240 214,-246 208,-252 202,-252"/>
<text text-anchor="middle" x="156" y="-231.5" font-family="sans" font-size="10.00" fill="#000000">polypolish_unicycler</text>
</g>
<!-- 2&#45;&gt;8 -->
<g id="edge17" class="edge">
<title>2&#45;&gt;8</title>
<path fill="none" stroke="#c0c0c0" stroke-width="2" d="M145.6491,-431.899C115.4707,-407.7959 74.7271,-368.9916 57,-324 51.1347,-309.1138 48.8326,-301.7584 57,-288 64.8292,-274.8114 77.1376,-264.6377 90.4506,-256.8689"/>
<polygon fill="#c0c0c0" stroke="#c0c0c0" stroke-width="2" points="92.1595,-259.9239 99.3072,-252.1034 88.8426,-253.7596 92.1595,-259.9239"/>
</g>
<!-- 9 -->
<g id="node10" class="node">
<title>9</title>
<path fill="none" stroke="#567bd8" stroke-width="2" d="M260.5,-396C260.5,-396 223.5,-396 223.5,-396 217.5,-396 211.5,-390 211.5,-384 211.5,-384 211.5,-372 211.5,-372 211.5,-366 217.5,-360 223.5,-360 223.5,-360 260.5,-360 260.5,-360 266.5,-360 272.5,-366 272.5,-372 272.5,-372 272.5,-384 272.5,-384 272.5,-390 266.5,-396 260.5,-396"/>
<text text-anchor="middle" x="242" y="-375.5" font-family="sans" font-size="10.00" fill="#000000">unicycler</text>
</g>
<!-- 2&#45;&gt;9 -->
<g id="edge20" class="edge">
<title>2&#45;&gt;9</title>
<path fill="none" stroke="#c0c0c0" stroke-width="2" d="M201.6462,-431.805C208.2765,-422.9646 215.6759,-413.0988 222.3096,-404.2538"/>
<polygon fill="#c0c0c0" stroke="#c0c0c0" stroke-width="2" points="225.185,-406.2533 228.3851,-396.1532 219.585,-402.0532 225.185,-406.2533"/>
</g>
<!-- 10 -->
<g id="node11" class="node">
<title>10</title>
<path fill="none" stroke="#56d8d0" stroke-width="2" d="M164,-324C164,-324 78,-324 78,-324 72,-324 66,-318 66,-312 66,-312 66,-300 66,-300 66,-294 72,-288 78,-288 78,-288 164,-288 164,-288 170,-288 176,-294 176,-300 176,-300 176,-312 176,-312 176,-318 170,-324 164,-324"/>
<text text-anchor="middle" x="121" y="-303.5" font-family="sans" font-size="10.00" fill="#000000">bwaalign_unicycler</text>
</g>
<!-- 2&#45;&gt;10 -->
<g id="edge22" class="edge">
<title>2&#45;&gt;10</title>
<path fill="none" stroke="#c0c0c0" stroke-width="2" d="M171.5137,-431.8703C160.5313,-404.5041 143.3503,-361.6926 132.132,-333.7389"/>
<polygon fill="#c0c0c0" stroke="#c0c0c0" stroke-width="2" points="135.264,-332.1455 128.2913,-324.1685 128.7676,-334.7526 135.264,-332.1455"/>
</g>
<!-- 3&#45;&gt;0 -->
<g id="edge3" class="edge">
<title>3&#45;&gt;0</title>
<path fill="none" stroke="#c0c0c0" stroke-width="2" d="M565.5126,-227.1516C590.8191,-220.0329 623.8543,-206.1243 640,-180 648.4117,-166.3896 648.1454,-157.7714 640,-144 590.86,-60.9187 469.7782,-31.9703 408.2223,-22.4097"/>
<polygon fill="#c0c0c0" stroke="#c0c0c0" stroke-width="2" points="408.5634,-18.9224 398.1621,-20.9383 407.5503,-25.8487 408.5634,-18.9224"/>
</g>
<!-- 11 -->
<g id="node12" class="node">
<title>11</title>
<path fill="none" stroke="#56c1d8" stroke-width="2" d="M619,-180C619,-180 589,-180 589,-180 583,-180 577,-174 577,-168 577,-168 577,-156 577,-156 577,-150 583,-144 589,-144 589,-144 619,-144 619,-144 625,-144 631,-150 631,-156 631,-156 631,-168 631,-168 631,-174 625,-180 619,-180"/>
<text text-anchor="middle" x="604" y="-159.5" font-family="sans" font-size="10.00" fill="#000000">prokka</text>
</g>
<!-- 3&#45;&gt;11 -->
<g id="edge26" class="edge">
<title>3&#45;&gt;11</title>
<path fill="none" stroke="#c0c0c0" stroke-width="2" d="M550.1686,-215.8314C558.7152,-207.2848 569.0557,-196.9443 578.3802,-187.6198"/>
<polygon fill="#c0c0c0" stroke="#c0c0c0" stroke-width="2" points="580.9905,-189.9592 585.5867,-180.4133 576.0408,-185.0095 580.9905,-189.9592"/>
</g>
<!-- 12 -->
<g id="node13" class="node">
<title>12</title>
<path fill="none" stroke="#56d86b" stroke-width="2" d="M547,-180C547,-180 517,-180 517,-180 511,-180 505,-174 505,-168 505,-168 505,-156 505,-156 505,-150 511,-144 517,-144 517,-144 547,-144 547,-144 553,-144 559,-150 559,-156 559,-156 559,-168 559,-168 559,-174 553,-180 547,-180"/>
<text text-anchor="middle" x="532" y="-159.5" font-family="sans" font-size="10.00" fill="#000000">quast</text>
</g>
<!-- 3&#45;&gt;12 -->
<g id="edge31" class="edge">
<title>3&#45;&gt;12</title>
<path fill="none" stroke="#c0c0c0" stroke-width="2" d="M532,-215.8314C532,-208.131 532,-198.9743 532,-190.4166"/>
<polygon fill="#c0c0c0" stroke="#c0c0c0" stroke-width="2" points="535.5001,-190.4132 532,-180.4133 528.5001,-190.4133 535.5001,-190.4132"/>
</g>
<!-- 13 -->
<g id="node14" class="node">
<title>13</title>
<path fill="none" stroke="#d87556" stroke-width="2" d="M171,-180C171,-180 141,-180 141,-180 135,-180 129,-174 129,-168 129,-168 129,-156 129,-156 129,-150 135,-144 141,-144 141,-144 171,-144 171,-144 177,-144 183,-150 183,-156 183,-156 183,-168 183,-168 183,-174 177,-180 171,-180"/>
<text text-anchor="middle" x="156" y="-159.5" font-family="sans" font-size="10.00" fill="#000000">busco</text>
</g>
<!-- 3&#45;&gt;13 -->
<g id="edge36" class="edge">
<title>3&#45;&gt;13</title>
<path fill="none" stroke="#c0c0c0" stroke-width="2" d="M498.1967,-226.3906C482.3881,-222.9694 463.2787,-219.0293 446,-216 336.8763,-196.8681 302.7738,-212.9678 192.9368,-179.7381"/>
<polygon fill="#c0c0c0" stroke="#c0c0c0" stroke-width="2" points="193.724,-176.318 183.1362,-176.7048 191.6543,-183.0051 193.724,-176.318"/>
</g>
<!-- 4 -->
<g id="node5" class="node">
<title>4</title>
<path fill="none" stroke="#d8bc56" stroke-width="2" d="M580,-396C580,-396 548,-396 548,-396 542,-396 536,-390 536,-384 536,-384 536,-372 536,-372 536,-366 542,-360 548,-360 548,-360 580,-360 580,-360 586,-360 592,-366 592,-372 592,-372 592,-384 592,-384 592,-390 586,-396 580,-396"/>
<text text-anchor="middle" x="564" y="-375.5" font-family="sans" font-size="10.00" fill="#000000">medaka</text>
</g>
<!-- 4&#45;&gt;3 -->
<g id="edge10" class="edge">
<title>4&#45;&gt;3</title>
<path fill="none" stroke="#c0c0c0" stroke-width="2" d="M568.2584,-359.9735C571.8337,-341.4843 575.2971,-312.1006 568,-288 565.0436,-278.2355 559.6748,-268.6229 553.97,-260.2762"/>
<polygon fill="#c0c0c0" stroke="#c0c0c0" stroke-width="2" points="556.7129,-258.0973 547.9905,-252.0831 551.0586,-262.2239 556.7129,-258.0973"/>
</g>
<!-- 4&#45;&gt;7 -->
<g id="edge16" class="edge">
<title>4&#45;&gt;7</title>
<path fill="none" stroke="#c0c0c0" stroke-width="2" d="M555.168,-359.8314C551.3014,-351.8771 546.6794,-342.369 542.4032,-333.5723"/>
<polygon fill="#c0c0c0" stroke="#c0c0c0" stroke-width="2" points="545.4707,-331.8768 537.9509,-324.4133 539.1751,-334.9371 545.4707,-331.8768"/>
</g>
<!-- 4&#45;&gt;11 -->
<g id="edge27" class="edge">
<title>4&#45;&gt;11</title>
<path fill="none" stroke="#c0c0c0" stroke-width="2" d="M581.1951,-359.5541C589.153,-349.7722 597.7672,-337.0889 602,-324 616.5407,-279.0369 612.8572,-223.3166 608.6072,-190.3243"/>
<polygon fill="#c0c0c0" stroke="#c0c0c0" stroke-width="2" points="612.0223,-189.4735 607.1697,-180.0553 605.0899,-190.444 612.0223,-189.4735"/>
</g>
<!-- 4&#45;&gt;12 -->
<g id="edge32" class="edge">
<title>4&#45;&gt;12</title>
<path fill="none" stroke="#c0c0c0" stroke-width="2" d="M573.1577,-359.5129C577.7013,-349.3118 582.7002,-336.2593 585,-324 593.8962,-276.5789 593.0695,-260.3199 574,-216 569.7753,-206.1812 563.33,-196.592 556.7477,-188.2846"/>
<polygon fill="#c0c0c0" stroke="#c0c0c0" stroke-width="2" points="559.2943,-185.8737 550.1969,-180.4434 553.9223,-190.3617 559.2943,-185.8737"/>
</g>
<!-- 4&#45;&gt;13 -->
<g id="edge37" class="edge">
<title>4&#45;&gt;13</title>
<path fill="none" stroke="#c0c0c0" stroke-width="2" d="M537.7823,-359.8142C490.6414,-327.6838 387.73,-260.1098 294,-216 253.2206,-196.809 238.1471,-198.4716 192.8347,-180.0747"/>
<polygon fill="#c0c0c0" stroke="#c0c0c0" stroke-width="2" points="193.929,-176.7388 183.3525,-176.1157 191.232,-183.1984 193.929,-176.7388"/>
</g>
<!-- 5 -->
<g id="node6" class="node">
<title>5</title>
<path fill="none" stroke="#569ad8" stroke-width="2" d="M495,-476C495,-476 465,-476 465,-476 459,-476 453,-470 453,-464 453,-464 453,-452 453,-452 453,-446 459,-440 465,-440 465,-440 495,-440 495,-440 501,-440 507,-446 507,-452 507,-452 507,-464 507,-464 507,-470 501,-476 495,-476"/>
<text text-anchor="middle" x="480" y="-455.5" font-family="sans" font-size="10.00" fill="#000000">flye</text>
</g>
<!-- 5&#45;&gt;4 -->
<g id="edge12" class="edge">
<title>5&#45;&gt;4</title>
<path fill="none" stroke="#c0c0c0" stroke-width="2" d="M499.0609,-439.8468C510.4452,-429.0045 525.0731,-415.0732 537.5625,-403.1785"/>
<polygon fill="#c0c0c0" stroke="#c0c0c0" stroke-width="2" points="540.1869,-405.5125 545.0145,-396.0814 535.3593,-400.4435 540.1869,-405.5125"/>
</g>
<!-- 5&#45;&gt;11 -->
<g id="edge28" class="edge">
<title>5&#45;&gt;11</title>
<path fill="none" stroke="#c0c0c0" stroke-width="2" d="M507.0867,-451.2505C534.822,-442.9232 577.1471,-426.0378 601,-396 651.19,-332.796 639.8813,-295.3242 625,-216 623.365,-207.2844 620.3657,-198.1679 617.1358,-189.9601"/>
<polygon fill="#c0c0c0" stroke="#c0c0c0" stroke-width="2" points="620.2566,-188.352 613.1577,-180.4871 613.8026,-191.0623 620.2566,-188.352"/>
</g>
<!-- 5&#45;&gt;12 -->
<g id="edge33" class="edge">
<title>5&#45;&gt;12</title>
<path fill="none" stroke="#c0c0c0" stroke-width="2" d="M476.9561,-439.9547C470.7808,-398.718 459.7133,-295.045 489,-216 492.7863,-205.7807 499.3086,-196.0078 506.1453,-187.6536"/>
<polygon fill="#c0c0c0" stroke="#c0c0c0" stroke-width="2" points="508.7872,-189.9493 512.7173,-180.1103 503.5093,-185.3509 508.7872,-189.9493"/>
</g>
<!-- 5&#45;&gt;13 -->
<g id="edge38" class="edge">
<title>5&#45;&gt;13</title>
<path fill="none" stroke="#c0c0c0" stroke-width="2" d="M465.0265,-439.8026C429.5453,-397.3589 336.3797,-289.817 244,-216 227.9311,-203.16 208.5867,-190.9811 192.1317,-181.4505"/>
<polygon fill="#c0c0c0" stroke="#c0c0c0" stroke-width="2" points="193.7491,-178.3439 183.3266,-176.4408 190.2874,-184.4281 193.7491,-178.3439"/>
</g>
<!-- 6 -->
<g id="node7" class="node">
<title>6</title>
<path fill="none" stroke="#d85656" stroke-width="2" stroke-dasharray="5,2" d="M611,-572C611,-572 349,-572 349,-572 343,-572 337,-566 337,-560 337,-560 337,-532 337,-532 337,-526 343,-520 349,-520 349,-520 611,-520 611,-520 617,-520 623,-526 623,-532 623,-532 623,-560 623,-560 623,-566 617,-572 611,-572"/>
<text text-anchor="middle" x="480" y="-560" font-family="sans" font-size="10.00" fill="#000000">trim_nano_adaptors</text>
<text text-anchor="middle" x="480" y="-549" font-family="sans" font-size="10.00" fill="#000000">barcode: barcode01</text>
<text text-anchor="middle" x="480" y="-538" font-family="sans" font-size="10.00" fill="#000000">prefix: 20210107_2213_MN35107_FAO13840_83e8e224</text>
<text text-anchor="middle" x="480" y="-527" font-family="sans" font-size="10.00" fill="#000000">sample: 309a</text>
</g>
<!-- 6&#45;&gt;4 -->
<g id="edge13" class="edge">
<title>6&#45;&gt;4</title>
<path fill="none" stroke="#c0c0c0" stroke-width="2" d="M496.0125,-519.7761C502.4756,-508.8524 509.8446,-495.9505 516,-484 529.4767,-457.8355 543.16,-427.1213 552.4501,-405.5095"/>
<polygon fill="#c0c0c0" stroke="#c0c0c0" stroke-width="2" points="555.6873,-406.8407 556.3928,-396.2694 549.249,-404.0934 555.6873,-406.8407"/>
</g>
<!-- 6&#45;&gt;5 -->
<g id="edge14" class="edge">
<title>6&#45;&gt;5</title>
<path fill="none" stroke="#c0c0c0" stroke-width="2" d="M480,-519.5971C480,-509.0414 480,-496.868 480,-486.1448"/>
<polygon fill="#c0c0c0" stroke="#c0c0c0" stroke-width="2" points="483.5001,-486.0188 480,-476.0188 476.5001,-486.0188 483.5001,-486.0188"/>
</g>
<!-- 6&#45;&gt;9 -->
<g id="edge21" class="edge">
<title>6&#45;&gt;9</title>
<path fill="none" stroke="#c0c0c0" stroke-width="2" d="M449.0072,-519.85C420.0541,-495.8977 375.2282,-460.0158 334,-432 317.327,-420.6702 298.2009,-409.213 281.7216,-399.7848"/>
<polygon fill="#c0c0c0" stroke="#c0c0c0" stroke-width="2" points="283.2969,-396.6546 272.8712,-394.7694 279.8457,-402.7448 283.2969,-396.6546"/>
</g>
<!-- 7&#45;&gt;3 -->
<g id="edge11" class="edge">
<title>7&#45;&gt;3</title>
<path fill="none" stroke="#c0c0c0" stroke-width="2" d="M529.757,-287.8314C530.0779,-280.131 530.4594,-270.9743 530.816,-262.4166"/>
<polygon fill="#c0c0c0" stroke="#c0c0c0" stroke-width="2" points="534.3133,-262.5503 531.2328,-252.4133 527.3194,-262.2589 534.3133,-262.5503"/>
</g>
<!-- 8&#45;&gt;0 -->
<g id="edge4" class="edge">
<title>8&#45;&gt;0</title>
<path fill="none" stroke="#c0c0c0" stroke-width="2" d="M139.4036,-215.8198C124.5322,-197.2081 106.9216,-167.7286 120,-144 163.5178,-65.0445 275.1097,-34.4127 333.7399,-23.4879"/>
<polygon fill="#c0c0c0" stroke="#c0c0c0" stroke-width="2" points="334.4635,-26.9144 343.7016,-21.7271 333.245,-20.0212 334.4635,-26.9144"/>
</g>
<!-- 8&#45;&gt;11 -->
<g id="edge24" class="edge">
<title>8&#45;&gt;11</title>
<path fill="none" stroke="#c0c0c0" stroke-width="2" d="M214.0397,-228.7943C307.3665,-220.0393 487.5828,-201.4522 567.2217,-179.5627"/>
<polygon fill="#c0c0c0" stroke="#c0c0c0" stroke-width="2" points="568.2601,-182.9057 576.8735,-176.7365 566.2929,-176.1878 568.2601,-182.9057"/>
</g>
<!-- 8&#45;&gt;12 -->
<g id="edge29" class="edge">
<title>8&#45;&gt;12</title>
<path fill="none" stroke="#c0c0c0" stroke-width="2" d="M214.218,-226.938C292.8812,-217.0424 429.8856,-198.4734 495.0296,-179.6725"/>
<polygon fill="#c0c0c0" stroke="#c0c0c0" stroke-width="2" points="496.3177,-182.9383 504.8478,-176.6544 494.2608,-176.2473 496.3177,-182.9383"/>
</g>
<!-- 8&#45;&gt;13 -->
<g id="edge34" class="edge">
<title>8&#45;&gt;13</title>
<path fill="none" stroke="#c0c0c0" stroke-width="2" d="M156,-215.8314C156,-208.131 156,-198.9743 156,-190.4166"/>
<polygon fill="#c0c0c0" stroke="#c0c0c0" stroke-width="2" points="159.5001,-190.4132 156,-180.4133 152.5001,-190.4133 159.5001,-190.4132"/>
</g>
<!-- 9&#45;&gt;8 -->
<g id="edge18" class="edge">
<title>9&#45;&gt;8</title>
<path fill="none" stroke="#c0c0c0" stroke-width="2" d="M231.108,-359.7623C216.181,-334.7682 189.2607,-289.6924 172.03,-260.8409"/>
<polygon fill="#c0c0c0" stroke="#c0c0c0" stroke-width="2" points="174.9359,-258.8805 166.8035,-252.0896 168.9261,-262.4697 174.9359,-258.8805"/>
</g>
<!-- 9&#45;&gt;10 -->
<g id="edge23" class="edge">
<title>9&#45;&gt;10</title>
<path fill="none" stroke="#c0c0c0" stroke-width="2" d="M211.4666,-359.8314C195.9899,-350.6221 177.0131,-339.3301 160.4437,-329.4706"/>
<polygon fill="#c0c0c0" stroke="#c0c0c0" stroke-width="2" points="161.9071,-326.2687 151.5236,-324.1628 158.3276,-332.2843 161.9071,-326.2687"/>
</g>
<!-- 9&#45;&gt;11 -->
<g id="edge25" class="edge">
<title>9&#45;&gt;11</title>
<path fill="none" stroke="#c0c0c0" stroke-width="2" d="M266.8064,-359.8886C310.4444,-328.453 404.3543,-262.6867 489,-216 520.2789,-198.748 531.511,-196.8382 567.7131,-180.0172"/>
<polygon fill="#c0c0c0" stroke="#c0c0c0" stroke-width="2" points="569.3758,-183.1027 576.9246,-175.6685 566.3874,-176.7726 569.3758,-183.1027"/>
</g>
<!-- 9&#45;&gt;12 -->
<g id="edge30" class="edge">
<title>9&#45;&gt;12</title>
<path fill="none" stroke="#c0c0c0" stroke-width="2" d="M247.873,-359.9015C259.8356,-326.035 290.3544,-253.1598 342,-216 396.4926,-176.7918 427.068,-201.4223 494.9428,-179.8069"/>
<polygon fill="#c0c0c0" stroke="#c0c0c0" stroke-width="2" points="496.4485,-182.9908 504.7742,-176.4385 494.1796,-176.3687 496.4485,-182.9908"/>
</g>
<!-- 9&#45;&gt;13 -->
<g id="edge35" class="edge">
<title>9&#45;&gt;13</title>
<path fill="none" stroke="#c0c0c0" stroke-width="2" d="M244.1383,-359.6461C246.9199,-328.1253 248.7375,-262.6026 223,-216 215.677,-202.7404 203.645,-191.5134 191.7827,-182.7889"/>
<polygon fill="#c0c0c0" stroke="#c0c0c0" stroke-width="2" points="193.4606,-179.6938 183.2449,-176.8851 189.4793,-185.4514 193.4606,-179.6938"/>
</g>
<!-- 10&#45;&gt;8 -->
<g id="edge19" class="edge">
<title>10&#45;&gt;8</title>
<path fill="none" stroke="#c0c0c0" stroke-width="2" d="M129.832,-287.8314C133.6986,-279.8771 138.3206,-270.369 142.5968,-261.5723"/>
<polygon fill="#c0c0c0" stroke="#c0c0c0" stroke-width="2" points="145.8249,-262.9371 147.0491,-252.4133 139.5293,-259.8768 145.8249,-262.9371"/>
</g>
<!-- 11&#45;&gt;0 -->
<g id="edge5" class="edge">
<title>11&#45;&gt;0</title>
<path fill="none" stroke="#c0c0c0" stroke-width="2" d="M578.0576,-143.9737C550.9708,-125.3566 507.0706,-95.7552 468,-72 448.1351,-59.922 425.4553,-47.2373 407.0233,-37.1991"/>
<polygon fill="#c0c0c0" stroke="#c0c0c0" stroke-width="2" points="408.5387,-34.0395 398.0789,-32.3536 405.2044,-40.1944 408.5387,-34.0395"/>
</g>
<!-- 11&#45;&gt;14 -->
<g id="edge39" class="edge">
<title>11&#45;&gt;14</title>
<path fill="none" stroke="#c0c0c0" stroke-width="2" d="M576.6839,-147.7966C573.7802,-146.4511 570.8478,-145.1589 568,-144 523.467,-125.8785 470.4105,-109.7797 435.781,-99.9741"/>
<polygon fill="#c0c0c0" stroke="#c0c0c0" stroke-width="2" points="436.664,-96.5868 426.0904,-97.2584 434.775,-103.3271 436.664,-96.5868"/>
</g>
<!-- 12&#45;&gt;0 -->
<g id="edge6" class="edge">
<title>12&#45;&gt;0</title>
<path fill="none" stroke="#c0c0c0" stroke-width="2" d="M512.9211,-143.7996C493.5351,-125.4249 462.526,-96.3582 435,-72 424.0686,-62.3267 411.867,-51.9345 401.073,-42.8754"/>
<polygon fill="#c0c0c0" stroke="#c0c0c0" stroke-width="2" points="403.0547,-39.9702 393.1376,-36.2417 398.5651,-45.3408 403.0547,-39.9702"/>
</g>
<!-- 12&#45;&gt;14 -->
<g id="edge41" class="edge">
<title>12&#45;&gt;14</title>
<path fill="none" stroke="#c0c0c0" stroke-width="2" d="M504.7645,-147.256C484.6821,-136.3843 457.1565,-121.4832 435.2201,-109.6079"/>
<polygon fill="#c0c0c0" stroke="#c0c0c0" stroke-width="2" points="436.6594,-106.4071 426.1991,-104.7243 433.3269,-112.563 436.6594,-106.4071"/>
</g>
<!-- 13&#45;&gt;0 -->
<g id="edge7" class="edge">
<title>13&#45;&gt;0</title>
<path fill="none" stroke="#c0c0c0" stroke-width="2" d="M183.2299,-143.7623C221.9206,-117.8485 292.8417,-70.3479 335.5792,-41.7237"/>
<polygon fill="#c0c0c0" stroke="#c0c0c0" stroke-width="2" points="337.6303,-44.5625 343.9912,-36.0896 333.7349,-38.7465 337.6303,-44.5625"/>
</g>
<!-- 13&#45;&gt;14 -->
<g id="edge40" class="edge">
<title>13&#45;&gt;14</title>
<path fill="none" stroke="#c0c0c0" stroke-width="2" d="M183.2537,-147.6373C186.1696,-146.3228 189.1219,-145.0814 192,-144 249.8518,-122.263 319.9528,-105.9693 361.9373,-97.2263"/>
<polygon fill="#c0c0c0" stroke="#c0c0c0" stroke-width="2" points="362.8875,-100.6044 371.981,-95.1675 361.4818,-93.747 362.8875,-100.6044"/>
</g>
<!-- 14&#45;&gt;0 -->
<g id="edge8" class="edge">
<title>14&#45;&gt;0</title>
<path fill="none" stroke="#c0c0c0" stroke-width="2" d="M391.9344,-71.8314C388.874,-63.9617 385.2221,-54.5712 381.8318,-45.8533"/>
<polygon fill="#c0c0c0" stroke="#c0c0c0" stroke-width="2" points="385.0473,-44.4647 378.1607,-36.4133 378.5232,-47.0019 385.0473,-44.4647"/>
</g>
</g>
</svg>
