<?xml version="1.0" encoding="UTF-8" standalone="no"?>
<!DOCTYPE svg PUBLIC "-//W3C//DTD SVG 1.1//EN"
 "http://www.w3.org/Graphics/SVG/1.1/DTD/svg11.dtd">
<!-- Generated by graphviz version 2.40.1 (0)
 -->
<!-- Title: snakemake_dag Pages: 1 -->
<svg width="619pt" height="481pt"
 viewBox="0.00 0.00 619.00 481.00" xmlns="http://www.w3.org/2000/svg" xmlns:xlink="http://www.w3.org/1999/xlink">
<g id="graph0" class="graph" transform="scale(1 1) rotate(0) translate(4 477)">
<title>snakemake_dag</title>
<polygon fill="#ffffff" stroke="transparent" points="-4,4 -4,-477 615,-477 615,4 -4,4"/>
<!-- 0 -->
<g id="node1" class="node">
<title>0</title>
<path fill="none" stroke="#56d8a9" stroke-width="2" d="M384,-36C384,-36 354,-36 354,-36 348,-36 342,-30 342,-24 342,-24 342,-12 342,-12 342,-6 348,0 354,0 354,0 384,0 384,0 390,0 396,-6 396,-12 396,-12 396,-24 396,-24 396,-30 390,-36 384,-36"/>
<text text-anchor="middle" x="369" y="-15.5" font-family="sans" font-size="10.00" fill="#000000">all</text>
</g>
<!-- 1 -->
<g id="node2" class="node">
<title>1</title>
<path fill="none" stroke="#56d8d8" stroke-width="2" stroke-dasharray="5,2" d="M274,-108C274,-108 12,-108 12,-108 6,-108 0,-102 0,-96 0,-96 0,-84 0,-84 0,-78 6,-72 12,-72 12,-72 274,-72 274,-72 280,-72 286,-78 286,-84 286,-84 286,-96 286,-96 286,-102 280,-108 274,-108"/>
<text text-anchor="middle" x="143" y="-93" font-family="sans" font-size="10.00" fill="#000000">pycoqc</text>
<text text-anchor="middle" x="143" y="-82" font-family="sans" font-size="10.00" fill="#000000">prefix: 20210107_2213_MN35107_FAO13840_83e8e224</text>
</g>
<!-- 1&#45;&gt;0 -->
<g id="edge1" class="edge">
<title>1&#45;&gt;0</title>
<path fill="none" stroke="#c0c0c0" stroke-width="2" d="M199.7376,-71.9243C241.2098,-58.7119 296.2565,-41.1749 332.1433,-29.742"/>
<polygon fill="#c0c0c0" stroke="#c0c0c0" stroke-width="2" points="333.2642,-33.0583 341.7299,-26.6878 331.1393,-26.3886 333.2642,-33.0583"/>
</g>
<!-- 2 -->
<g id="node3" class="node">
<title>2</title>
<path fill="none" stroke="#56d882" stroke-width="2" stroke-dasharray="5,2" d="M518.5,-401C518.5,-401 429.5,-401 429.5,-401 423.5,-401 417.5,-395 417.5,-389 417.5,-389 417.5,-372 417.5,-372 417.5,-366 423.5,-360 429.5,-360 429.5,-360 518.5,-360 518.5,-360 524.5,-360 530.5,-366 530.5,-372 530.5,-372 530.5,-389 530.5,-389 530.5,-395 524.5,-401 518.5,-401"/>
<text text-anchor="middle" x="474" y="-389" font-family="sans" font-size="10.00" fill="#000000">trimmomatic_pe</text>
<text text-anchor="middle" x="474" y="-378" font-family="sans" font-size="10.00" fill="#000000">barcode: barcode01</text>
<text text-anchor="middle" x="474" y="-367" font-family="sans" font-size="10.00" fill="#000000">sample: 309a</text>
</g>
<!-- 2&#45;&gt;0 -->
<g id="edge2" class="edge">
<title>2&#45;&gt;0</title>
<path fill="none" stroke="#c0c0c0" stroke-width="2" d="M513.6261,-359.9066C554.0874,-335.7075 611,-291.457 611,-234 611,-234 611,-234 611,-162 611,-68.0265 474.5674,-33.9894 406.5822,-22.8621"/>
<polygon fill="#c0c0c0" stroke="#c0c0c0" stroke-width="2" points="406.7081,-19.3399 396.2901,-21.2673 405.6361,-26.2574 406.7081,-19.3399"/>
</g>
<!-- 3 -->
<g id="node4" class="node">
<title>3</title>
<path fill="none" stroke="#d88556" stroke-width="2" stroke-dasharray="5,2" d="M328.5,-180C328.5,-180 285.5,-180 285.5,-180 279.5,-180 273.5,-174 273.5,-168 273.5,-168 273.5,-156 273.5,-156 273.5,-150 279.5,-144 285.5,-144 285.5,-144 328.5,-144 328.5,-144 334.5,-144 340.5,-150 340.5,-156 340.5,-156 340.5,-168 340.5,-168 340.5,-174 334.5,-180 328.5,-180"/>
<text text-anchor="middle" x="307" y="-159.5" font-family="sans" font-size="10.00" fill="#000000">polypolish</text>
</g>
<!-- 2&#45;&gt;3 -->
<g id="edge6" class="edge">
<title>2&#45;&gt;3</title>
<path fill="none" stroke="#c0c0c0" stroke-width="2" d="M417.2683,-360.0547C399.2413,-351.2658 380.503,-339.4006 367,-324 332.954,-285.1693 317.5631,-225.2853 311.1347,-190.2363"/>
<polygon fill="#c0c0c0" stroke="#c0c0c0" stroke-width="2" points="314.5549,-189.4726 309.4166,-180.2071 307.6554,-190.6545 314.5549,-189.4726"/>
</g>
<!-- 7 -->
<g id="node8" class="node">
<title>7</title>
<path fill="none" stroke="#59d856" stroke-width="2" stroke-dasharray="5,2" d="M290.5,-252C290.5,-252 253.5,-252 253.5,-252 247.5,-252 241.5,-246 241.5,-240 241.5,-240 241.5,-228 241.5,-228 241.5,-222 247.5,-216 253.5,-216 253.5,-216 290.5,-216 290.5,-216 296.5,-216 302.5,-222 302.5,-228 302.5,-228 302.5,-240 302.5,-240 302.5,-246 296.5,-252 290.5,-252"/>
<text text-anchor="middle" x="272" y="-231.5" font-family="sans" font-size="10.00" fill="#000000">bwaalign</text>
</g>
<!-- 2&#45;&gt;7 -->
<g id="edge12" class="edge">
<title>2&#45;&gt;7</title>
<path fill="none" stroke="#c0c0c0" stroke-width="2" d="M417.4248,-370.996C384.8935,-363.0792 345.0468,-348.9131 317,-324 298.4262,-307.5015 286.6017,-281.5598 279.7595,-261.7579"/>
<polygon fill="#c0c0c0" stroke="#c0c0c0" stroke-width="2" points="283.0274,-260.4875 276.6263,-252.045 276.3654,-262.6366 283.0274,-260.4875"/>
</g>
<!-- 8 -->
<g id="node9" class="node">
<title>8</title>
<path fill="none" stroke="#afd856" stroke-width="2" stroke-dasharray="5,2" d="M501,-180C501,-180 409,-180 409,-180 403,-180 397,-174 397,-168 397,-168 397,-156 397,-156 397,-150 403,-144 409,-144 409,-144 501,-144 501,-144 507,-144 513,-150 513,-156 513,-156 513,-168 513,-168 513,-174 507,-180 501,-180"/>
<text text-anchor="middle" x="455" y="-159.5" font-family="sans" font-size="10.00" fill="#000000">polypolish_unicycler</text>
</g>
<!-- 2&#45;&gt;8 -->
<g id="edge14" class="edge">
<title>2&#45;&gt;8</title>
<path fill="none" stroke="#c0c0c0" stroke-width="2" d="M497.3131,-359.9308C530.3312,-328.2184 583.5849,-265.8371 554,-216 546.1708,-202.8114 533.8624,-192.6377 520.5494,-184.8689"/>
<polygon fill="#c0c0c0" stroke="#c0c0c0" stroke-width="2" points="522.1574,-181.7596 511.6928,-180.1034 518.8405,-187.9239 522.1574,-181.7596"/>
</g>
<!-- 9 -->
<g id="node10" class="node">
<title>9</title>
<path fill="none" stroke="#80d856" stroke-width="2" stroke-dasharray="5,2" d="M425.5,-324C425.5,-324 388.5,-324 388.5,-324 382.5,-324 376.5,-318 376.5,-312 376.5,-312 376.5,-300 376.5,-300 376.5,-294 382.5,-288 388.5,-288 388.5,-288 425.5,-288 425.5,-288 431.5,-288 437.5,-294 437.5,-300 437.5,-300 437.5,-312 437.5,-312 437.5,-318 431.5,-324 425.5,-324"/>
<text text-anchor="middle" x="407" y="-303.5" font-family="sans" font-size="10.00" fill="#000000">unicycler</text>
</g>
<!-- 2&#45;&gt;9 -->
<g id="edge17" class="edge">
<title>2&#45;&gt;9</title>
<path fill="none" stroke="#c0c0c0" stroke-width="2" d="M455.3368,-359.7476C447.5504,-351.0896 438.4239,-340.9415 430.2111,-331.8093"/>
<polygon fill="#c0c0c0" stroke="#c0c0c0" stroke-width="2" points="432.575,-329.2037 423.2856,-324.1087 427.3702,-333.8845 432.575,-329.2037"/>
</g>
<!-- 10 -->
<g id="node11" class="node">
<title>10</title>
<path fill="none" stroke="#5682d8" stroke-width="2" stroke-dasharray="5,2" d="M533,-252C533,-252 447,-252 447,-252 441,-252 435,-246 435,-240 435,-240 435,-228 435,-228 435,-222 441,-216 447,-216 447,-216 533,-216 533,-216 539,-216 545,-222 545,-228 545,-228 545,-240 545,-240 545,-246 539,-252 533,-252"/>
<text text-anchor="middle" x="490" y="-231.5" font-family="sans" font-size="10.00" fill="#000000">bwaalign_unicycler</text>
</g>
<!-- 2&#45;&gt;10 -->
<g id="edge19" class="edge">
<title>2&#45;&gt;10</title>
<path fill="none" stroke="#c0c0c0" stroke-width="2" d="M476.2585,-359.8208C479.0388,-334.3635 483.7747,-291.0008 486.8956,-262.4249"/>
<polygon fill="#c0c0c0" stroke="#c0c0c0" stroke-width="2" points="490.3987,-262.5859 488.0052,-252.265 483.4401,-261.8259 490.3987,-262.5859"/>
</g>
<!-- 3&#45;&gt;0 -->
<g id="edge3" class="edge">
<title>3&#45;&gt;0</title>
<path fill="none" stroke="#c0c0c0" stroke-width="2" d="M310.529,-143.8289C314.5334,-125.2244 321.9745,-95.7506 333,-72 337.3662,-62.5946 343.2457,-52.9727 348.9862,-44.5056"/>
<polygon fill="#c0c0c0" stroke="#c0c0c0" stroke-width="2" points="351.966,-46.3526 354.8488,-36.1575 346.2374,-42.3296 351.966,-46.3526"/>
</g>
<!-- 11 -->
<g id="node12" class="node">
<title>11</title>
<path fill="none" stroke="#d8ac56" stroke-width="2" d="M384,-108C384,-108 354,-108 354,-108 348,-108 342,-102 342,-96 342,-96 342,-84 342,-84 342,-78 348,-72 354,-72 354,-72 384,-72 384,-72 390,-72 396,-78 396,-84 396,-84 396,-96 396,-96 396,-102 390,-108 384,-108"/>
<text text-anchor="middle" x="369" y="-87.5" font-family="sans" font-size="10.00" fill="#000000">prokka</text>
</g>
<!-- 3&#45;&gt;11 -->
<g id="edge24" class="edge">
<title>3&#45;&gt;11</title>
<path fill="none" stroke="#c0c0c0" stroke-width="2" d="M322.6452,-143.8314C329.8591,-135.454 338.557,-125.3531 346.4605,-116.1749"/>
<polygon fill="#c0c0c0" stroke="#c0c0c0" stroke-width="2" points="349.2711,-118.2748 353.1441,-108.4133 343.9667,-113.7071 349.2711,-118.2748"/>
</g>
<!-- 4 -->
<g id="node5" class="node">
<title>4</title>
<path fill="none" stroke="#d85656" stroke-width="2" stroke-dasharray="5,2" d="M236,-324C236,-324 204,-324 204,-324 198,-324 192,-318 192,-312 192,-312 192,-300 192,-300 192,-294 198,-288 204,-288 204,-288 236,-288 236,-288 242,-288 248,-294 248,-300 248,-300 248,-312 248,-312 248,-318 242,-324 236,-324"/>
<text text-anchor="middle" x="220" y="-303.5" font-family="sans" font-size="10.00" fill="#000000">medaka</text>
</g>
<!-- 4&#45;&gt;3 -->
<g id="edge7" class="edge">
<title>4&#45;&gt;3</title>
<path fill="none" stroke="#c0c0c0" stroke-width="2" d="M218.3731,-287.7241C217.5424,-268.5023 218.7972,-238.0425 232,-216 239.8374,-202.9151 252.1961,-192.1019 264.6374,-183.6776"/>
<polygon fill="#c0c0c0" stroke="#c0c0c0" stroke-width="2" points="266.6479,-186.5469 273.2093,-178.2284 262.8925,-180.6395 266.6479,-186.5469"/>
</g>
<!-- 4&#45;&gt;7 -->
<g id="edge13" class="edge">
<title>4&#45;&gt;7</title>
<path fill="none" stroke="#c0c0c0" stroke-width="2" d="M233.1218,-287.8314C239.0499,-279.6232 246.1729,-269.7606 252.6933,-260.7323"/>
<polygon fill="#c0c0c0" stroke="#c0c0c0" stroke-width="2" points="255.684,-262.5693 258.7015,-252.4133 250.0092,-258.4708 255.684,-262.5693"/>
</g>
<!-- 4&#45;&gt;11 -->
<g id="edge22" class="edge">
<title>4&#45;&gt;11</title>
<path fill="none" stroke="#c0c0c0" stroke-width="2" d="M216.1021,-287.9837C212.8597,-269.5025 209.8227,-240.1252 217,-216 227.8968,-179.3721 235.6191,-169.5904 264,-144 283.8028,-126.1442 310.5906,-112.4922 332.1522,-103.382"/>
<polygon fill="#c0c0c0" stroke="#c0c0c0" stroke-width="2" points="333.7047,-106.529 341.6473,-99.5171 331.0656,-100.0455 333.7047,-106.529"/>
</g>
<!-- 5 -->
<g id="node6" class="node">
<title>5</title>
<path fill="none" stroke="#d6d856" stroke-width="2" stroke-dasharray="5,2" d="M290,-398.5C290,-398.5 260,-398.5 260,-398.5 254,-398.5 248,-392.5 248,-386.5 248,-386.5 248,-374.5 248,-374.5 248,-368.5 254,-362.5 260,-362.5 260,-362.5 290,-362.5 290,-362.5 296,-362.5 302,-368.5 302,-374.5 302,-374.5 302,-386.5 302,-386.5 302,-392.5 296,-398.5 290,-398.5"/>
<text text-anchor="middle" x="275" y="-378" font-family="sans" font-size="10.00" fill="#000000">flye</text>
</g>
<!-- 5&#45;&gt;4 -->
<g id="edge9" class="edge">
<title>5&#45;&gt;4</title>
<path fill="none" stroke="#c0c0c0" stroke-width="2" d="M261.686,-362.4656C254.98,-353.3819 246.724,-342.1989 239.3335,-332.1881"/>
<polygon fill="#c0c0c0" stroke="#c0c0c0" stroke-width="2" points="242.1372,-330.0929 233.382,-324.1265 236.5056,-334.2504 242.1372,-330.0929"/>
</g>
<!-- 6 -->
<g id="node7" class="node">
<title>6</title>
<path fill="none" stroke="#56a9d8" stroke-width="2" stroke-dasharray="5,2" d="M320,-473C320,-473 230,-473 230,-473 224,-473 218,-467 218,-461 218,-461 218,-449 218,-449 218,-443 224,-437 230,-437 230,-437 320,-437 320,-437 326,-437 332,-443 332,-449 332,-449 332,-461 332,-461 332,-467 326,-473 320,-473"/>
<text text-anchor="middle" x="275" y="-458" font-family="sans" font-size="10.00" fill="#000000">trim_nano_adaptors</text>
<text text-anchor="middle" x="275" y="-447" font-family="sans" font-size="10.00" fill="#000000">barcode: barcode01</text>
</g>
<!-- 6&#45;&gt;4 -->
<g id="edge10" class="edge">
<title>6&#45;&gt;4</title>
<path fill="none" stroke="#c0c0c0" stroke-width="2" d="M260.0592,-436.5417C252.683,-426.5591 244.2604,-413.6998 239,-401 230.0933,-379.4974 225.264,-353.4842 222.7065,-334.1189"/>
<polygon fill="#c0c0c0" stroke="#c0c0c0" stroke-width="2" points="226.1728,-333.6279 221.5079,-324.1153 219.2225,-334.4607 226.1728,-333.6279"/>
</g>
<!-- 6&#45;&gt;5 -->
<g id="edge11" class="edge">
<title>6&#45;&gt;5</title>
<path fill="none" stroke="#c0c0c0" stroke-width="2" d="M275,-436.9656C275,-428.5178 275,-418.2542 275,-408.8064"/>
<polygon fill="#c0c0c0" stroke="#c0c0c0" stroke-width="2" points="278.5001,-408.6265 275,-398.6265 271.5001,-408.6265 278.5001,-408.6265"/>
</g>
<!-- 6&#45;&gt;9 -->
<g id="edge18" class="edge">
<title>6&#45;&gt;9</title>
<path fill="none" stroke="#c0c0c0" stroke-width="2" d="M291.1858,-436.7297C314.4419,-410.4784 357.4263,-361.9582 383.982,-331.9824"/>
<polygon fill="#c0c0c0" stroke="#c0c0c0" stroke-width="2" points="386.6704,-334.2259 390.6818,-324.4198 381.4308,-329.584 386.6704,-334.2259"/>
</g>
<!-- 7&#45;&gt;3 -->
<g id="edge8" class="edge">
<title>7&#45;&gt;3</title>
<path fill="none" stroke="#c0c0c0" stroke-width="2" d="M280.832,-215.8314C284.6986,-207.8771 289.3206,-198.369 293.5968,-189.5723"/>
<polygon fill="#c0c0c0" stroke="#c0c0c0" stroke-width="2" points="296.8249,-190.9371 298.0491,-180.4133 290.5293,-187.8768 296.8249,-190.9371"/>
</g>
<!-- 8&#45;&gt;0 -->
<g id="edge4" class="edge">
<title>8&#45;&gt;0</title>
<path fill="none" stroke="#c0c0c0" stroke-width="2" d="M445.4608,-143.8247C435.6977,-125.4697 419.8886,-96.4179 405,-72 399.5146,-63.0037 393.2329,-53.3742 387.4687,-44.7746"/>
<polygon fill="#c0c0c0" stroke="#c0c0c0" stroke-width="2" points="390.2071,-42.5761 381.7041,-36.2555 384.4096,-46.4991 390.2071,-42.5761"/>
</g>
<!-- 8&#45;&gt;11 -->
<g id="edge23" class="edge">
<title>8&#45;&gt;11</title>
<path fill="none" stroke="#c0c0c0" stroke-width="2" d="M433.2986,-143.8314C422.8079,-135.0485 410.0545,-124.3712 398.6806,-114.8489"/>
<polygon fill="#c0c0c0" stroke="#c0c0c0" stroke-width="2" points="400.6089,-111.8986 390.6945,-108.1628 396.1153,-117.2659 400.6089,-111.8986"/>
</g>
<!-- 9&#45;&gt;8 -->
<g id="edge15" class="edge">
<title>9&#45;&gt;8</title>
<path fill="none" stroke="#c0c0c0" stroke-width="2" d="M409.2609,-287.9931C411.9338,-269.5194 417.1731,-240.148 426,-216 429.2915,-206.9955 433.858,-197.6408 438.3944,-189.2976"/>
<polygon fill="#c0c0c0" stroke="#c0c0c0" stroke-width="2" points="441.5609,-190.8082 443.4338,-180.3802 435.4667,-187.3642 441.5609,-190.8082"/>
</g>
<!-- 9&#45;&gt;10 -->
<g id="edge20" class="edge">
<title>9&#45;&gt;10</title>
<path fill="none" stroke="#c0c0c0" stroke-width="2" d="M427.9444,-287.8314C438.0691,-279.0485 450.3777,-268.3712 461.3548,-258.8489"/>
<polygon fill="#c0c0c0" stroke="#c0c0c0" stroke-width="2" points="463.8019,-261.3595 469.0623,-252.1628 459.2149,-256.0718 463.8019,-261.3595"/>
</g>
<!-- 9&#45;&gt;11 -->
<g id="edge21" class="edge">
<title>9&#45;&gt;11</title>
<path fill="none" stroke="#c0c0c0" stroke-width="2" d="M403.8255,-287.9555C397.2035,-250.3144 381.8754,-163.1867 373.9478,-118.1246"/>
<polygon fill="#c0c0c0" stroke="#c0c0c0" stroke-width="2" points="377.372,-117.3874 372.1922,-108.1451 370.4779,-118.6003 377.372,-117.3874"/>
</g>
<!-- 10&#45;&gt;8 -->
<g id="edge16" class="edge">
<title>10&#45;&gt;8</title>
<path fill="none" stroke="#c0c0c0" stroke-width="2" d="M481.168,-215.8314C477.3014,-207.8771 472.6794,-198.369 468.4032,-189.5723"/>
<polygon fill="#c0c0c0" stroke="#c0c0c0" stroke-width="2" points="471.4707,-187.8768 463.9509,-180.4133 465.1751,-190.9371 471.4707,-187.8768"/>
</g>
<!-- 11&#45;&gt;0 -->
<g id="edge5" class="edge">
<title>11&#45;&gt;0</title>
<path fill="none" stroke="#c0c0c0" stroke-width="2" d="M369,-71.8314C369,-64.131 369,-54.9743 369,-46.4166"/>
<polygon fill="#c0c0c0" stroke="#c0c0c0" stroke-width="2" points="372.5001,-46.4132 369,-36.4133 365.5001,-46.4133 372.5001,-46.4132"/>
</g>
</g>
</svg>
